<svg id="Layer_1" data-name="Layer 1" xmlns="http://www.w3.org/2000/svg" viewBox="0 0 474.97 95.97"><title>swoosh</title><g style="opacity:0.14999400079250336"><path d="M494.12,407c85.3,5.14,149.62-45.19,233-40.89S809.56,410,809.56,410c-49-51.65-132.72-28.79-169.27-16.9s-93.55,30.8-158.08,24.68S381,354.76,381,354.76,422.47,402.67,494.12,407" transform="translate(-357.8 -324.39)" style="fill:#000"/><path d="M393.27,342.14s42.85,53.61,111,55.19c57.05,1.32,75.37-7.82,105.64-16.64,30.07-8.76,125.75-49.17,190.52,4.77,0,0-15.44-44.66-102.79-39.44-83.94,5-100.81,32.46-182,35.21,0,0-71,2.41-122.38-39.1" transform="translate(-357.8 -324.39)" style="fill:#000"/><rect width="474.97" height="95.97" style="fill:none"/></g><rect x="23.2" y="17.75" width="428.56" height="76.86" style="fill:none"/><rect x="23.2" y="17.75" width="428.56" height="76.86" style="fill:none"/></svg>