<svg id="Layer_1" data-name="Layer 1" xmlns="http://www.w3.org/2000/svg" xmlns:xlink="http://www.w3.org/1999/xlink" viewBox="0 0 428.56 76.86"><defs><clipPath id="clip-path" transform="translate(0)"><rect width="428.56" height="76.86" style="fill:none"/></clipPath><clipPath id="clip-path-3" transform="translate(0)"><rect x="-23.2" y="-17.75" width="474.97" height="95.97" style="fill:none"/></clipPath></defs><title>swoosh-2</title><g style="clip-path:url(#clip-path)"><g style="clip-path:url(#clip-path)"><g style="opacity:0.14999400079250336"><g style="clip-path:url(#clip-path-3)"><path d="M113.12,64.84C198.42,70,262.73,19.65,346.1,24s82.46,43.94,82.46,43.94C379.55,16.24,295.84,39.1,259.29,51S165.74,81.8,101.21,75.67,0,12.62,0,12.62,41.47,60.54,113.12,64.84" transform="translate(0)" style="fill:#fff"/><path d="M12.27,0s42.85,53.61,111,55.19c57.05,1.32,75.37-7.82,105.64-16.64C259,29.79,354.71-10.61,419.48,43.33c0,0-15.44-44.66-102.79-39.44-83.94,5-100.81,32.46-182,35.21,0,0-71,2.41-122.38-39.1" transform="translate(0)" style="fill:#fff"/></g></g></g></g></svg>