<svg xmlns="http://www.w3.org/2000/svg" xmlns:xlink="http://www.w3.org/1999/xlink" viewBox="0 0 592.96 600.97"><defs><clipPath id="clip-path" transform="translate(-54.5 -41.42)"><rect x="54.5" y="41.42" width="592.96" height="600.97" style="fill:none"/></clipPath><clipPath id="clip-path-3" transform="translate(-54.5 -41.42)"><rect width="701.96" height="644.57" style="fill:none"/></clipPath></defs><title>Asset 1</title><g id="Layer_2" data-name="Layer 2"><g id="Layer_1-2" data-name="Layer 1"><g style="clip-path:url(#clip-path)"><g style="clip-path:url(#clip-path)"><g style="opacity:0.19999699294567108"><g style="clip-path:url(#clip-path-3)"><path d="M259.85,159.39c1.95,2.34,3.87,4.7,5.83,7l-5.1-7.62c-.24.21-.5.39-.73.58" transform="translate(-54.5 -41.42)" style="fill:none"/><path d="M352,133.09c-8,16-8.54,18.85-4.3,23.49,1.77-2.52,3.55-5,6.18-8.68.84,3.57,1.37,5.73,1.88,7.92,3.17,14.3,6.27,28.62,9.61,42.86.34,1.52,1.95,2.75,3,4.07.41-24-7.77-45.78-15-67.81a10.09,10.09,0,0,0-1.35-1.85" transform="translate(-54.5 -41.42)" style="fill:none"/><path d="M277.57,226.92h-.21l.14.13.13-.1-.06,0" transform="translate(-54.5 -41.42)" style="fill:none"/><path d="M351.39,127.41c-5.45-8.66-3-19.13-2.58-29.57-2.8,13-4.52,26.07-6.21,39.17-.44,3.52-.57,7.05-.87,10.62.67,0,1.31,0,2,0,2.53-6.42.5-14.89,7.69-20.26" transform="translate(-54.5 -41.42)" style="fill:none"/><path d="M497.09,250.42c-6.82,2.9-13.53,6-19.1,11.28.29.55.62,1.06.94,1.57l-6,4c.24.54.47,1.15.71,1.67,4.94-2.94,9.89-6,14.86-9l-.67-1.18,4.23-2.66c.17.28.34.55.51.83,5.7-3.68,11.21-7.66,16.72-11.65l3.12-2c-.34.19-.7.33-1,.51A308.11,308.11,0,0,0,535.85,224q-19.39,13.18-38.76,26.38" transform="translate(-54.5 -41.42)" style="fill:none"/><path d="M317.52,162q-5.85-19.52-11.78-39.12c3.5,13.28,3,27.84,9.39,40.13.77-.33,1.58-.66,2.38-1" transform="translate(-54.5 -41.42)" style="fill:none"/><path d="M323.26,135c-1.14-7.27-2.27-14.56-3.41-21.78-.36.07-.66.1-1,.16q1.24,11,2.47,22l2-.33" transform="translate(-54.5 -41.42)" style="fill:none"/><path d="M507,209.67q-6.66,7.32-13.23,14.69l1.57,1.55,12.11-15.86a5.12,5.12,0,0,1-.44-.39" transform="translate(-54.5 -41.42)" style="fill:none"/><path d="M333.63,105.44c-.34,0-.66,0-1,0q-.08,9.51-.17,19l1.8,0c-.21-6.35-.44-12.66-.67-19" transform="translate(-54.5 -41.42)" style="fill:none"/><path d="M480,219.68c-.31.4-.6.81-.91,1.22,0,.11-.09.2-.12.32.11-.07.22-.19.32-.25l.71-1.28" transform="translate(-54.5 -41.42)" style="fill:none"/><path d="M487.23,206.51c-2.4,4.37-4.81,8.78-7.2,13.17,3-4,5.87-8,8.86-11.93-.59-.4-1.11-.83-1.66-1.24" transform="translate(-54.5 -41.42)" style="fill:none"/><path d="M469.54,202.8c-1.71,2.54-3.43,5.05-5.12,7.6l5.81-7c-.26-.2-.44-.42-.69-.63" transform="translate(-54.5 -41.42)" style="fill:none"/><path d="M512.94,294.21c-16.17-5-18.87-5-22.21.44,2.65,1.38,5.28,2.66,9.24,4.66-3.08,1.68-5,2.7-6.87,3.68-12.28,6.37-24.61,12.67-36.81,19.18-1.33.73-2.08,2.68-3.06,4.07,21.85-4.67,39.92-17.88,58.36-30.21a8.72,8.72,0,0,0,1.35-1.82" transform="translate(-54.5 -41.42)" style="fill:none"/><path d="M497.61,286.45c.14.72.25,1.37.38,2.07,6.35,1.31,13.66-2.64,20,3.83,6.71-7.6,16.76-7.25,26.35-9-12.46-.11-24.66.78-36.91,1.79-3.3.3-6.51.89-9.81,1.34" transform="translate(-54.5 -41.42)" style="fill:none"/><path d="M505.09,264.32q9.54-4.1,19.07-8.19c-.11-.33-.26-.67-.38-1l-19.4,7.21c.27.65.47,1.34.72,2" transform="translate(-54.5 -41.42)" style="fill:none"/><path d="M210.53,248.55c0-.08,0-.15,0-.23l-.48-.87.32.87c.07.05.14.17.2.23" transform="translate(-54.5 -41.42)" style="fill:none"/><path d="M419.77,381.32c2.78,5.82,6.42,3.94,9.88,2.7-2.07-4.55-5.48-4-9.88-2.7" transform="translate(-54.5 -41.42)" style="fill:none"/><path d="M281.54,395.32l0,0h0Z" transform="translate(-54.5 -41.42)" style="fill:none"/><path d="M238.28,387.52l.13.08a1.39,1.39,0,0,0,.16-.14l-.29.07" transform="translate(-54.5 -41.42)" style="fill:none"/><path d="M199.79,397.08c-1.53.19-3.06.36-5.52.67,2.2-2.71,3.7-4.52,5.15-6.34-3.57-1.74-5.44-.67-15.24,8.61a3,3,0,0,0,1.36.47c15.53-.34,31-.08,47-6.13-1-.37-2-1.2-3.09-1.1-9.86,1.19-19.81,2.55-29.68,3.82" transform="translate(-54.5 -41.42)" style="fill:none"/><path d="M193,390.81a10.27,10.27,0,0,1-.26-1.3c-2.36,1-4.73,2-7,3.14-8.62,4.3-17.14,8.68-25.62,13.73,7-2.83,13.76-7,20.11-5.43,2.81-6.21,8.75-6.86,12.77-10.15" transform="translate(-54.5 -41.42)" style="fill:none"/><path d="M282.09,400h0s0,0,0,.05Z" transform="translate(-54.5 -41.42)" style="fill:none"/><path d="M271.1,404.21c.21.2.5.39.73.57,3.43-1.6,6.86-3.18,10.26-4.8-.2-1.52-.41-3-.62-4.6l.07-.06c-2.61,2-5.28,3.93-7.82,6a19.83,19.83,0,0,0-2.61,2.9" transform="translate(-54.5 -41.42)" style="fill:none"/><path d="M182.43,378.52c-5,1.21-10,2.45-14.9,3.61,0,.29,0,.51-.06.76,5-1,10-2,15-3Z" transform="translate(-54.5 -41.42)" style="fill:none"/><path d="M268.44,412.28c-3.32,1-5.79,2-6.09,5.49,2.65-.72,5.59-1.08,6.09-5.49" transform="translate(-54.5 -41.42)" style="fill:none"/><path d="M262.36,417.76l-.08,0s0,.07,0,.11,0-.08,0-.13" transform="translate(-54.5 -41.42)" style="fill:none"/><path d="M203.72,276.8l1.05-.93a28.71,28.71,0,0,0-2.78-2.59l3.95,2.48,2.44,4.27c-.36-.07-.71-.16-1.07-.23l-3.59-3m-12.35-36.39c1.71,3,3.43,5.91,5.13,8.89.55-.25,1.09-.55,1.59-.82l-5.76-8.17a81.45,81.45,0,0,1,9.81-.63c1.25,0,2.45.17,3.69.23,1.39,2.51,2.78,5,4.18,7.54-.93-2.47-1.85-5-2.78-7.46l2.16.14c5.48,8.55,10.95,17,16.2,25.22.61,1.78,1.32,3.54,2,5.31q-6.29-8.37-12.61-16.72l-.32.27a22.11,22.11,0,0,0-4.13-5.65c.43,4.89,2.43,9.22,4.8,13.57l-13.49-14.49C204,251,208.5,257.32,212.26,264c1.14,2.06,2.16,4.23,3.2,6.36a124.78,124.78,0,0,0-16.54-11.24q8.16,7.4,16.37,14.79a3.28,3.28,0,0,0-.53,1.35c-4.66-5.59-12-9-17.22-14.27q2.85,5,5.72,10.06l-13.89-7.14,0,0q-11.93-10.35-23.86-20.68c8.43,0,17.22-1.82,25.89-2.86m34.19,1.16c.84.06,1.83.1,2.72.13,1.2,4.62,2.43,9.23,3.62,13.84L224,243.34c2.95,6,5.85,12.05,9,18,.26.51.55,1,.8,1.51L234.9,267c-3.63-6.39-7.2-12.85-11-19.14,2.13,5.93,4.11,12,6.6,17.68-1.33-2.07-2.68-4.19-4-6.24l-6.55-17a123.28,123.28,0,0,0,3.44,15.79c-3.44-6.39-9.18-11.9-13.82-18q6.57.51,13.12,1.14l1.32,2.05c-.33-.67-.67-1.35-1-2,.84.08,1.68.18,2.52.25m6.07.3c.39.92.93,2.12,1.43,3.33l-.11,0,.29.7c-.06-.23-.1-.47-.17-.7a32.68,32.68,0,0,0,5.33-.15,2.53,2.53,0,0,1,1.25.28l-.47.08c1,5.2,2,10.4,3,15.61.66,3.61,1.28,7,1.91,10.37-3.57-8.54-7.22-17-10.83-25.48,1.68,6.4,3,13,4.89,19.25l-2.45-3.78c-1.87-6.54-3.72-13.08-5.6-19.62l1.55.08m13.14-8.16c3.33,1.86,6.66,3.7,9.94,5.64a11.38,11.38,0,0,1-.07,1.45,7.07,7.07,0,0,1,2.85.79c1,.88,2,1.7,2.94,2.6l.49.32s0,0-.08,0l.38.23a20.66,20.66,0,0,0,3.48,4.47c.47-.3.9-.57,1.32-.81-.22-.42-.46-.82-.68-1.23.35.23.76.39,1.1.65,0,0,0,.12.09.17-.08.75-.15,1.51-.23,2.25l-3.75-.89a32.72,32.72,0,0,0-3.84-3c0-.68.36-1.35,2.12-1.88l-.1-.05-.32-.31c-1-.67-2-1.34-3-2-.15,1.13-.28,2.1-.41,3.11-.54-.35-.83-.58-1.43-1a6.09,6.09,0,0,0-.47,1.58c0,.25,0,.5,0,.75l-1.39-.31a8.68,8.68,0,0,0-2.72-6.45c-2.15-2-4.18-4.08-6.22-6.17m-1.14-4.83c-.08.12-.16.25-.24.38l-3.83-.9c-1.4-1.49-2.81-3-4.24-4.47,2.48,1.48,5.08,3.07,8.3,5m8.75-1.71,4,2.24-.24.37a16.34,16.34,0,0,0-1.82-.4c.51.29,1,.61,1.5.89-.16.25-.32.49-.47.74l-.19-.08c-.88-1.27-1.82-2.51-2.74-3.76m12.36-.39c2.06,1,4,2.1,6.12,3,1.37.62,2.83,1.05,4.26,1.56.18.84.37,1.68.54,2.52.49-.17,1-.39,1.41-.58-.12-.45-.24-.9-.36-1.35l.5.18c1,1,1.89,2,1.19,3.36L266.11,230q-.69-1.58-1.37-3.18M258,212l.3.37-1-.29c.24-.05.42,0,.66-.08m7.32-2.72c-5.44-1.45-10.9-2.89-16.36-4.32,9.92-1.17,13.9-.17,16.36,4.32m-30.26-12.49a10,10,0,0,0,.41-1.24c7.31,2.06,16.09-.51,21.88,5.94-.17.38-.36.74-.53,1.14l-21.77-5.85m-2.8-7.34,13,2.92c-.18.67-.33,1.33-.5,2l-13-3.44c.15-.54.33-1,.5-1.52m36.05,4.42c2.5,3.18,5,6.4,7.56,9.47.49,3.1,1,6.21,1.49,9.3l-2-1.87-7-16.9m16.82,20c-.11,1.87-.21,3.74-.32,5.6l-2.07-1.91c-1-3.12-1.87-6.26-2.65-9.43,1.67,1.93,3.35,3.86,5,5.75m3.16-13.76,5.51,8.22c-.07.33-.17.65-.24,1l-5.33-3.84c0-1.78,0-3.57.06-5.35m9.83-.35,4.72,7.05c-.53,1.32-1,2.64-1.53,3.95-1.31-1.7-2.64-3.37-3.95-5.07.25-2,.51-3.95.75-5.93m9.37-.67c-.22.18-.44.39-.67.58.11-.45.22-.89.32-1.34l.35.76m-.71-19.8.81,1.6c-.51.21-1,.41-1.51.65l-.77-1.4,1.47-.85m3.41-13.16c6.4,5.44,8.48,12.51,8.27,21.39-1.6-5.39-5.32-10.5-5.84-16q.53,3.15,1,6.3-1.75-5.82-3.47-11.66m21.35,15.49c-1,.12-1.94.24-2.88.39-.71-8.08-1.4-16.12-2.14-24.17,6.85,7.15,5.19,15.55,5,23.78m7.19,3.49,6.27,14c-.54,1.88-1.1,3.76-1.63,5.67l1.44.3c.33-1.39.65-2.8,1-4.2l5.13,11.45c0,.07,0,.15.08.22-.14.33-.29.65-.43,1l.9.31a17.69,17.69,0,0,0,2.16,4.9c.95,1.29,3,1.65,4.53,2.41l-.25.38c-1.2,1.73-2.4,3.51-4.17,6.06-1.19-2.77-2.35-5.29-3.49-8l.62-1.79a7.83,7.83,0,0,1-.63-.48l-.68.7c-1.35-3.15-2.68-6.44-4.15-9.47-2.21-4.66-5.32-8.82-7.31-13.49-1.18-2.74-1-6.13-1.46-9.27.7-.24,1.39-.46,2.1-.73m50.53,20.62-11.22,4c.35-1.53.73-3.09,1.08-4.6a37.81,37.81,0,0,0-2.06,5l-9.5,3.38c1.84-8.85,9.31-11.65,21.7-7.73m-8.52-11.41c7-1.41,14.12-1.77,21.22-2.52.13.54.23,1.06.4,1.6q-13.21,4.13-26.46,8.14c-.43-.54-.81-1.07-1.25-1.58,2-2,3.83-5.19,6.1-5.64m24.55,31a31.7,31.7,0,0,1-2.43,5,83.32,83.32,0,0,1,1.45-10.48c.54-.19,1-.33,1.59-.61-.27,3-.12,4.66-.62,6.14m14.48-11.74.05-.19a1.6,1.6,0,0,0,.06.15l.49-.15L420,214c0-.13-.1-.24-.14-.36l-.06,0h-.05c-.11.4-.2.81-.3,1.22a45.59,45.59,0,0,0-6.66,15.6,19.94,19.94,0,0,0-2,1.13c-1-1.77-2.76-3.51-2.73-5.27.1-6.7,4.66-11.29,11.73-12.68m16.38-5.23c-.79,1.19-1.58,2.37-2.41,3.54-.49-.22-1-.44-1.45-.69a26,26,0,0,0-2.29,4.31c-.35,1-.63,2-.94,3a66.83,66.83,0,0,0-7.42,13.17c-.8-1.35-1.93-2.71-1.89-4,0-.34.12-.68.15-1,1.07-4.75,2.14-9.45,3.21-14.15l13-4.16m-10.77,28c-2.44,3.75-5.47,7.37-4.93,11.89-3.72,4.52-8.35,8.64-6.39,16l1.48-1.78c-1.42,4.37-2.86,8.73-4.26,13.11l-2.68.95c2.09-4.73,3.68-8.4,5.3-12.08l.23.19c0-.14,0-.25-.06-.39h0L412.67,257l1.64-4.86-2.43.72L411,248l-3.32,6.13h0l-4.74,8.76-.83-.42c.2-2.14.4-4.28.62-6.43l0,0c.17-.54.37-1.07.56-1.6,1.46-.09,2.91-.25,4.36-.36-.77-1.49-1.55-2.94-2.33-4.4,1.65-3.6,3.36-7.16,5.1-10.7a8.31,8.31,0,0,1,2.28,0c.14.78.29,1.56.44,2.36-1.82,1.8-1.92,4.7-1.74,8.28a7.65,7.65,0,0,0,3-1.57c.11.61.2,1.14.32,1.77l.78-3.42a6.85,6.85,0,0,0,.64-2.82l1-4.34,2.57-.88a37.37,37.37,0,0,0-.77,6.27l3.62-7.25,2.92-1M439,247.2q-3.55,7.68-7.1,15.35l-2.53,3c-.75-.63-1.52-1.26-2.25-1.88,4-5.5,7.91-11,11.88-16.5M449.25,262l-1.78,2.61c3.54-.36,7.64-4.37,10.27-8.71a14.85,14.85,0,0,1,2.46-1c.39.51.79,1,1.18,1.48l-22.4,21c-.32-3.85,4.66-10.25,10.26-15.29m44.14,13.18c1.69,0,3.39.08,5.08.13-8.92,2.16-16.73,6.16-22.72,14.65,1.41.63,2.8,1.28,5.45,2.48-7.46,5.43-14.26,10.38-21,15.22l-5.74-1.45c1.16-.84,2.26-1.77,3.41-2.64l6.61.39a2,2,0,0,0-.07-.31l-5.87-.59c5.72-4.35,11.39-8.79,17-13.2l0,.3c0-.08.11-.13.17-.21h0c1.95-2.77,3.65-5.86,6-8.21,2-2,4.09-3.83,6.14-5.74a27.26,27.26,0,0,1,5.53-.82m-8.45,8.86c-.1-.63-.21-1.31-.33-2,5-1,9.86-2,16.26-3.34-5.14,7.46-10.61,6.07-15.93,5.3m-41.18,19.48a7.49,7.49,0,0,1-.06-.78l5.09.3-1.6,1.34-3.44-.87m-22.24,10.08c.14-.4.26-.81.41-1.15l-1.82-.84,11.84-9.8c.82.15,1.64.42,2.45.6-2.6,7.42-7.94,11.86-12.89,11.2m-3.32,5.7c-.2-.82-.35-1.44-.58-2.36,1.11.6,2.12,1,3,1.43-.82.31-1.64.61-2.45.93m5.27.94a14.08,14.08,0,0,1,.11,2.67l-4.25.94c-.2-.82-.47-1.92-.7-2.85l3.74-1.8c.58.33,1,.65,1.11,1m3.82,1.84c0-.6,0-1,0-1.63a10.13,10.13,0,0,1,1.13,1.38l-1.14.24m12.33,5c-1.23.05-2.47.08-3.71.15-.24-1.27-.5-2.47-.67-4a9.27,9.27,0,0,1,4.38,3.85m23.79,10.29c.71,1.82,1.25,3.7,1.85,5.56-1-.33-2-.92-3.08-1.17a9.43,9.43,0,0,0-2.48-.16l-2.25-4.53h3.24c-.08-.36-.12-.64-.21-1-1.21-.12-2.44-.22-3.66-.33l-1-2c.41-.57.77-1.09,1.18-1.66,2.2,1.71,5.47,2.92,6.38,5.19m6,.6c2.21,2.8,5.12,5.29,6.59,8.48.74,1.69,1.32,3.46,2,5.2l-5.86-2.58c-.62-1.28-1.23-2.57-1.86-3.85l2.74.62c-1-.51-2-.69-3-1.12-.83-1.74-1.67-3.47-2.5-5.2.64-.51,1.27-1.05,1.91-1.56M492,363.15a6,6,0,0,0-.65-.48L485.16,359l-6.54-12.32c7.27.75,11.43,5.67,13.37,16.44m17.42,14.15c-1.49-1.17-3.05-2.19-4.58-3.27l-3.15-9.9c5.16,2.37,7.63,6.67,7.72,13.17m8.89,19.28c-2-7.05-4.07-14.19-6.11-21.29,6.14,3.17,7.6,8.43,6.11,21.29m4.58-10.93c8.84,7.56,5.51,19,8.39,28.46-.59.21-1.14.37-1.68.56-2.73-9.45-5.5-18.89-8.21-28.32.47-.22,1-.46,1.5-.7m12.58,15.77c1.37,5.61,2.77,11.27,4.13,16.92-.69.22-1.34.44-2,.6-1.64-5.58-3.27-11.24-4.91-16.85.94-.24,1.89-.48,2.8-.67m-26.94-15.75c-1.1-3.5-2.21-7-3.36-10.59l4.28,2.49a37.77,37.77,0,0,1-.91,8.1m-19.77-19.85,4,3.22c.15,1.63.3,3.26.38,5.09-1.44-2.73-3-5.57-4.41-8.31m-1.17-2.2h0l.07,0-.07,0m4.9,2.79c-.3-.14-.58-.3-.87-.44a4,4,0,0,0,.74-.39c0,.27.08.54.13.83m-15.07-11.92c-1.39-.82-2.71-1.85-4.06-2.82l-.43-.89.06-.1,5.36,1.93c.38,1,.8,2.07,1.18,3.11-.7-.42-1.41-.81-2.11-1.24m-7.57,3.39c-1.05-.74-2.1-1.5-3.16-2.24l-1.92-3.84c.79.44,1.61,1,2.39,1.38.51.27,1,.52,1.55.79.37,1.31.76,2.61,1.14,3.92m-1,2.09-1.37-2.75,2.64,1.56c0,.14.09.3.13.45-.46.23-.93.51-1.4.74m-28.38,9.9a42.08,42.08,0,0,1-5.84-1.84c.36-1.17.66-3.22,1.16-3.27a22.74,22.74,0,0,1,7.33-.08c.9.21,1.56,2.19,3.13,4.52-2.77.42-4.31.93-5.78.67m-24.41-.43a.39.39,0,0,1,0-.07c2-.83,4.25-1.4,6.22-2.39a22.27,22.27,0,0,0,2.23,4.29c-1.78-.11-3.55-.2-5.3-.27l-3.14-1.56m-1.95,5.8a6.77,6.77,0,0,0-2.76,1.46l-4.1-.43c.07-.14.31-.23.32-.38l-1.63.25-8.23-.85c4.78-.54,9.6-1.1,14.34-1.71a10.11,10.11,0,0,0,.51-1.07l.8,0c.24.93.51,1.85.76,2.77m.48,1.79-.83-.08.78-.11c0,.07,0,.13,0,.19m-26,1.85c.92-1.46,5.19-1.84,9.35-1.49l-1.62.25c1.8,1.19,4.87,1.29,7.38.76a11.08,11.08,0,0,1,1.56.57c.06.32.1.63.14,1l-16.81-1.06m-18.74,6.08.37-.18-.63-.94c3.94.43,7.53.84,11,1.21-3.65,2.53-8.21,2.23-10.77-.09m3.75,8.46c2.43,3.4.41,5.45-.53,8-1.8-2-1.55-4.42.53-8m-5.1,5.31c-3-1.72-2.38-4.53,2.06-9.2,1.6,3.85-1.27,6.1-2.06,9.2M364.6,400c.39-.54,1.52-.58,2.36-.88.28,1.39.64,2.74,1.14,4.79-3-1.31-4.68-2.14-3.5-3.91m.61,8.56c-.92-1.31-1.85-2.63-2.78-3.93.87-.25,1.77-.52,2.68-.82.64,1.38,1.34,2.74,2,4.12-.64.18-1.27.4-1.91.63m-2.32,2.93a36.53,36.53,0,0,1-2.38-2.84c.53-.27,1.27-.84,1.49-.7a17.56,17.56,0,0,1,3.61,2.69c.41.4.14,1.32.24,2.72a20,20,0,0,1-3-1.87M359.77,385c.47-1.6.74-3.31,1.15-5,.35-.06.55.15.82.24,1.14,1.83,2.29,3.64,3.42,5.47L363,389.08c-3-.32-3.92-1.74-3.2-4.11M345.4,376.5c1.45-1.3,2.73-2.43,4.46-4,.47,4.9-.47,5.7-4.46,4m-2.77-5.64c1.8-1,3.24-1.78,4.6-2.52.46.71,1.39,1.71,1.21,2-1,1.52-2.29,2.63-5.81.54m-2.81,4.89c-.26-.68-.59-1.36-.91-2,1.7-.3,3.41-.57,5.05-.86.27.55.53,1.16.82,1.71-1.67.42-3.28.81-5,1.17M338,384.94a45,45,0,0,1-4.41-2.74,25,25,0,0,1-2.52-3,20.07,20.07,0,0,1,4.74-.64c1.18.1,2.53,1,3.82,1.64.09-.22.19-.46.26-.7l-3.7-2.43c0-.3,0-.6,0-.93,1.57.19,3.11.42,5.74.75-1.47,3-2.63,5.39-4,8m-.39-13c-1.35,2.55-2.17,2.52-6.48.12,0-.25-.09-.58-.13-.86,2,.24,4.07.45,6.61.75m-9.45-9.12,1.67-.91c.24.17.49.33.79.55-.2.95-.37,2-.56,3l-.18.12a16.55,16.55,0,0,1-1.72-2.81m-5-2.9c.16-.12.29-.33.45-.35a2.6,2.6,0,0,1-.17.39l-.29,0m-3.7-.58c.06,0,.13.06.19.1l-.24,0,0-.07m-2-.68a.09.09,0,0,1,0,0,4.55,4.55,0,0,1,.57,0l-.06.13a4.38,4.38,0,0,1-.51-.12m-2.07-2.58-.07,0c-1.69,1.51-3.41,3-5.13,4.55-.1-.08-.25-.13-.33-.21l1.47-2.93c1.19-.59,2.39-1.16,3.58-1.71l.41.31h0l-.25-.37.54-.24c0,.14,0,.28,0,.42l-.23.2s0,0,0,.06m-6.21-.22c-.06-.51-.09-1-.14-1.52l1.52-.51c-.19.64-.37,1.25-.56,1.87l-.82.17m-5.24,1.4c-.07-.07-.12-.14-.18-.22.08-1.58.14-3.07.27-4.5.35-.2.71-.42,1.13-.6l1.62,1.74a24.43,24.43,0,0,1-2.83,3.57m-3.3,8.85c-5.85,2.3-6.85,2.16-7.62-1.87,3.05.25,5.52.42,8,.63-.11.41-.27.83-.36,1.24m-5.9,13.73a41.07,41.07,0,0,1-6,2.79c-.74-4.09-1.46-7.75-2.32-12.48,3.18.19,5.12.3,7,.4-.09.44-.17.91-.27,1.39-1.67.83-3.36,1.62-5.07,2.46,0,.36.08.71.11,1.08,1.71-.51,3.57-1.55,5-1.35,2,.21,3.67,1.38,5.47,2.15a30,30,0,0,1-3.91,3.55m-14.11-20.76c-.15-.43,1-1.48,1.78-2.33l.28-.12c1.42,1.44,2.83,2.86,4.64,4.7-4.78,2.09-6,.12-6.69-2.26m-2.33,2.69c1.6,2.73,2.8,4.68,4.11,6.89-5.21,1.4-6.08,0-4.11-6.89M262.88,377c.19,3.57-1.25,5.39-4.94,5-.56-1.8-1.1-3.61-1.64-5.42l5.56-6.85c.36-.07.66-.32,1.07-.14,0,2.44-.14,4.91-.06,7.37m-1.67,13.25c-1.07-2.57-2.07-5.2-3.1-7.78,4.77,1.37,5.07,2.07,3.1,7.78M253.55,384c-.76-1.61-1.88-3.09-2.18-4.87-.1-.72,1.58-2.1,3.24-4.18.34,3.51.6,5.7.81,8-.61.38-1.23.75-1.87,1.09m-2,30.07c-.91.71-2.1,1-4.07,1.93.53-1.95.44-3.36,1.09-3.81a22,22,0,0,1,5-2.93c.37-.15,1,.9,1.56,1.4a48.84,48.84,0,0,1-3.57,3.4m2.5-9.62c-1.46,1.64-3,3.23-4.47,4.85-.66-.44-1.36-.94-2-1.39,1.15-1.79,2.4-3.57,3.55-5.33,1,.61,2,1.23,3,1.87m-6.51-2.54c1.15-2.77,2-4.64,2.77-6.52.84.62,2.2,1,2.5,1.89.89,2.74-1.33,3.49-5.26,4.63m1.27-21.14c4,7.78,3.78,12-.24,13.64,0-4.61-2.76-8.52.24-13.64m-10.63-8.95c4.28.32,8.64.67,13.39,1.05l-1,1.2a4,4,0,0,1,.4.35c-3.68,2.65-9.2,2-12.76-2.6m-23.7,2.52c-4.08,1.54-8.14,3.67-12.23,3.48a41.36,41.36,0,0,0,5.5-2.23c1.57-.83,3.13-1.84,4.67-2.78l2.05-.55Zm-48.86-3.85c1.7.09,3.38.31,5.08.37l-4.25,4.92c.3.21.57.43.9.63,1.94-1.69,4.07-3.48,6.47-5.52l1.1-.06h0c-1.31,2.22-2.37,4.07-3.35,5.76.2.17.48.32.71.48l-16.43,2.22,9.76-8.81m-7-1.2c1.75-1.55,3.61-3,5.31-4.59,4.1-3.79,7.91-7.86,11.79-11.85l2.58.89-14.24,15.46-5.45.09m-.14-22.15q-4.26,6.69-8.44,13.4c.89-8.86,2.91-12.19,8.44-13.4M138,371c-.47-.17-.86-.41-1.28-.58,3.85-6,3-14.16,11.42-17.89.39.2.76.45,1.11.66C145.51,359.1,141.73,365,138,371m-7.18,1.71c-.5-.24-1-.51-1.54-.73,2.07-3.58,4.08-7.19,6.14-10.76.7.3,1.42.57,2.09.86-2.17,3.56-4.44,7.07-6.68,10.64m38-31.53-9.09,13.44c-.06-8.07,2.78-12.25,9.09-13.44m21.5-8.32-6.74,6.76-.12,0,.11,0-1.24,1.25-1.49-.85c-.28.43-.56.86-.85,1.36l1.36.49c-2.41,2.41-4.89,4.88-7.26,7.27,3.76-12.36,8.53-17,16.25-16.28m-46.37-19.51,10.66-4.69c1.72,1,3.45,1.91,5.17,2.87L159,312c.17.43.37.9.53,1.34.68-.26,1.32-.56,2-.81,10.1,5.63,20.45,10.84,32.6,12.92l1.46,1.05c-.12.35-.26.69-.34,1a37.71,37.71,0,0,1-4.57-.65c-15.6-4.59-31.1-9.22-46.77-13.52m6.59-6.94,1.27-.54c.14.4.28.81.43,1.2l-1.69-.65m7.65-7,.75.37-.58.3c-.08-.24,0-.36-.17-.67m-1.56-8.31v.31l-2.31-.19,2.31-.12m5.8.8-.35,0a1.58,1.58,0,0,0-.06-.23l.41.26m8.6-6.27-.38.07c-2.18-.54-4.36-1.08-6.55-1.6,2.14.46,4.39,1,6.93,1.54M194.37,284c.62.74,1.25,1.46,1.86,2.21l-1.61.79a28.44,28.44,0,0,0-2.56-1.87,17,17,0,0,1,2.19-1.17l.11,0m14,.49c-.75-.32-1.46-.73-2.17-1.11a7.3,7.3,0,0,1,3.54.44l-1.37.67m4-4.69v0l0,0,.05,0m9.73-4.75c.06.13.06.26.13.39l-2-1.46a12.65,12.65,0,0,1,1.84,1.08m.62-5-1-1.92c-.15.16-.06.5-.16.7l-3.76-4a10,10,0,0,0-.52-4.42q4.74,7,9.49,14.06l-4.08-4.39m21,12.31c-1.35-2.39-2.74-4.73-4.08-7.12-.32-1.15-.66-2.29-1-3.43,2.24,4.13,4.43,8.3,6.68,12.44a8.76,8.76,0,0,1-1.62-1.88M273.93,217l-5.33-1.55-7.26-3.81c6.35-.61,10.45,1,12.58,5.36m10.81,3.74c-.05.95-.1,1.9-.16,2.84-.4-1.08-.66-2.21-1-3.31.39.16.78.32,1.19.46m12,7.5c-.12.83-.12,1.69-.19,2.54l-2.32,0c.19-1.42.35-2.84.54-4.25a15.29,15.29,0,0,0,2,1.74m8.14-3c-.25,1-.55,2.24-.85,3.45-.21.48-.44.94-.64,1.41l-2.77-4.12c.33-1.33.64-2.66,1-4l3.31,3.25M306.1,217c-.87-1.11-1.74-2.21-2.59-3.33.34-1.42.68-2.84,1-4.26,1.27,1.89,2.5,3.75,3.78,5.64l-2.2,2m11.27-11.82.33-.64c.4.68.7,1.23,1,1.84a12.72,12.72,0,0,1-1.38-1.2m26.28,19.08-2-4.53c.21-.75.47-1.47.65-2.23a21.27,21.27,0,0,1,4.35,3.64c-1,1-2,2.07-3,3.11m5.22,11.91c-.84-1.93-1.61-3.68-2.41-5.51l2.25-6.5c2.35,4.21,2.75,8.73.17,12m-4.91,5c-.34-.1-.67-.24-1-.35.75-2.15,1.49-4.3,2.23-6.45a22.91,22.91,0,0,0,3.31,3.48L344,241.18M357.7,228.8a11.33,11.33,0,0,1,7.18-3L360,229.36c-.83-.22-1.44-.28-2.34-.55m13.94-10.43h0v0h0l.91,1.84c-.26.1-.49.24-.77.32-.05-.72-.11-1.44-.17-2.17a11.1,11.1,0,0,0-1-.51s-.34.33-.31.48c.08.82,0,1.61.08,2.42a30,30,0,0,1-8.48.26c3.35-5.4,8-5,12.75-4.92a13.7,13.7,0,0,1-3,2.28l0-.13a.24.24,0,0,0,0,.07m19.16,10.49-1.71-1.57,3.09-3.43a33,33,0,0,0-1.39,5m6.92-5.15-3.71,6,2.43-7.14,1.28,1.13m2.22,4a25.24,25.24,0,0,1,1.25-6.2c.14-.35.66-.57,1.18-.81-.71,2.37-1.56,4.69-2.43,7m18.93,81.88-.25-.25-1.34,1-5.45-2.53c.71-2,1.41-4,2.11-6l4.61,1.61c.17-.57.35-1.09.52-1.62,3.8,1.28,3.08,3.37.71,6.32a16.07,16.07,0,0,0-.9,1.51m-10.18,16.65c0-.12-.09-.23-.12-.37l8.08-3.88c.07.81.14,1.62.2,2.43l-8.15,1.82m8.43,1.59h-.5c-.06-.25-.1-.45-.14-.71L417,327c0,.29,0,.59.07.88m6.29,0c-1,0-2.05,0-3.09,0-.14-.57-.29-1.18-.43-1.76l3.74-1.13c-.07,1-.15,1.94-.22,2.9m3.88-.07c0-1.18,0-2.57,0-3.95l2.23-.67a14.76,14.76,0,0,1,2.09,4.33l-4.33.28m5.11,2.55-3.64-.06a1.79,1.79,0,0,1-.07-.43c1.18-.17,2.35-.36,3.53-.54.07.34.12.69.19,1m8.8.15-4.55-.08c-.16-.57-.34-1.09-.48-1.71l4-.6a14.4,14.4,0,0,1,1,2.39m13.44,9.11a3.14,3.14,0,0,0-.53-.54,28.07,28.07,0,0,0-5.11-2h4.86a17.88,17.88,0,0,1,.78,2.52m.18,7.9a6.79,6.79,0,0,0-.85-.36l-2-3.68,2.75-.84c0,.24,0,.51,0,.76l-1.2,1.9,1.26.73c0,.52.06,1,0,1.5m-19.49,5.66c2.27,1.54,4.58,3,6.84,4.58-.57,1.23-1.18,2.48-1.74,3.71-2.55-1-5.1-2.12-7.62-3.17.85-1.74,1.67-3.43,2.52-5.12M418,347.35l-.74-.38c0-.66.07-1.37.1-2l.24.09c.17.76.28,1.54.4,2.31M409.86,370l-2.18.13c-2.32-.45-4.71-.8-7.08-1.17l4-1.46,1.16-.15c2-.28,4-.62,6-.93,0,0,0,.07.05.11.3.92.5,1.88.77,2.82l-2.64.65m-12.33,4.76c0,.17.08.35.11.52l-1.86-.2,1.75-.32m-26.79,3.34c-.11-.14-.23-.3-.35-.44l.09,0a4.72,4.72,0,0,1,.26.48m-4.13,1.33c.93-.44,1.85-.88,2.77-1.3l1.75,2.21a4.42,4.42,0,0,0,.71-.35c1.51,1.86.55,2.33-1.46,2.44a8.54,8.54,0,0,0-1.5.39c-.76-1.14-1.52-2.27-2.28-3.4m-25.43-11.59c.18.41.38.77.56,1.22-2.23,2.76-2.79,2.85-7.12,1.35-.14-.29-.28-.62-.41-.92,2.32-.54,4.65-1.08,7-1.64m-8.55-5.11.54-.12c.16.37.34.67.29.68-.84.59-1.74,1.17-2.63,1.74l1.8-2.31m-6-5.89.47-.14.17.28c.16.31.35.61.51.92-.29-.12-.62-.29-1-.46-.06-.22-.12-.42-.19-.61M313.76,355l-1.39.27.47-.94.92.67m.76-1.74a4.31,4.31,0,0,0,.19.6,8.63,8.63,0,0,1,.85-.88,7.45,7.45,0,0,1,.17.91c0,.25-.07.5-.09.75l-1.2.24c-.58-.89-.56-1.27.09-1.62m-14.18-.3c-.1-.09.24-.42.48-.87l.65.33c.45,1.22.93,2.45,1.43,3.71-.87-1.05-1.74-2.11-2.56-3.17M250,366.82l.74.68,2.75-2.73,2.87,2.55-3.7,4.3a9.35,9.35,0,0,0-1.64-.93c-2.29-.74-3.29-1.63-1-3.88m-48.1-3.36c2.18-.1,4.35-.23,6.53-.35a42.66,42.66,0,0,1,5.59,1.28c.22.08.36.33.54.48-4.82,1.42-8.95,1.22-12.66-1.41m-12.71,7.25c.05-.22.11-.46.16-.68l3.51-.18c-2.25,5.67-8.24,4.15-13.5,4.26l5.55,1.1c-4.13.6-8.26,1.24-12.39,1.8,2.31-2.08,4.66-4.15,7-6.24,3.23,0,6.44.08,9.69-.05m-.39-8.28,7.32,2.59c-.35.62-.67,1.27-1.06,1.85a2.18,2.18,0,0,1-.91.57,70.31,70.31,0,0,0-9.53,1.38l-3,0c2.39-2.15,4.74-4.33,7.19-6.43M180,360.12c-2.55,3-5.12,5.94-7.69,8.9l-5.15.09,11.31-10.22c.51.41,1,.81,1.53,1.23m9.7-18.73-2.21,2.4-2.27-1.3c.5-.66,1.06-1.29,1.54-2l2.94.85m-20.5-32c.7-.38,1.07-1.78,1.5-3,6.77,4.2,13.47,8.48,20.4,12.45,3.92,2.25,8.51,3.54,12.83,5.26-.06.39-.07.78-.1,1.17-1.91.07-4.08.71-5.71.13-4.58-1.7-8.89-3.93-13.39-5.76-6.93-2.75-13.9-5.42-20.85-8.11a54.35,54.35,0,0,0,5.32-2.16m9.52-19.36c-1.26.61-2.52,1.24-3.78,1.84-.16-.42-.29-.9-.43-1.31l1.95-1c.76.15,1.51.33,2.26.52m5-2.43-2.06,1c-.74-.24-1.49-.45-2.23-.67,1-.56,2.05-1.1,3.08-1.65l1.21,1.32m6.43,1.63a10,10,0,0,1-2.77-1.15q1.26-.92,2.54-1.76l3.52,1.3-3.29,1.61m8.31-.42c.11.14.17.31.28.46l-.89.43c-.19-.2-.32-.48-.52-.67l.73-.69c.13.16.27.31.4.47m1.86-2.48c.83.33,1.7.58,2.54.91l-.89.43a13.72,13.72,0,0,1-1.77-1.27l.12-.07m31.36-1.07a17.27,17.27,0,0,1,1.71,3.57l-1.95.53-2.57-3.05a18.75,18.75,0,0,1,2.81-1.05m18.55-24.7c.34,2,.68,4,1,5.94l.06,0a7.43,7.43,0,0,0-.4.95c-.71-2.63-1.36-5.27-2.07-7.89l1.38,1M248.66,249a1.64,1.64,0,0,1-.09-.18l.36.13-.27.05m6.52,2.5c0,3.48.19,6.94.34,10.39l-1.09-.58a48.23,48.23,0,0,0-3-7.1c-.08-.74-.18-1.48-.29-2.21a13.91,13.91,0,0,0-.94-2.61l3.57,1.26a1.7,1.7,0,0,1,0-.19l1.44,1m32.32-15.7a17,17,0,0,1,3.87,2.62c-.08.23-.15.46-.22.7l0,0c-1.23-1-2.4-2.14-3.6-3.19a.69.69,0,0,1,0-.11m-.35-2.3c0,.14.13.23.14.38l-.09,0c0-.11,0-.22-.05-.33m6.93,3.48c0-.28,0-.56,0-.85l.91.89-.88,0m5.84,4.9c-.1.48-.2,1-.31,1.43l-.35.48-.75.1-.46-.3c-.49-1.54-1.4-3.15-1.09-4.6l3,2.9m11.54-10.21c-.71,1.26-1.32,2.58-2,3.86l-3.32-2.73c.6-1.53,1.2-3,1.79-4.58,1.17,1.15,2.33,2.31,3.51,3.46m42.36,8.27-3.22,5c.92-1.5,1.43-3,0-4.67.22-.21.38-.46.6-.67l2.59.35m2.23-3.46L355,238.13l-1.87.1a19.13,19.13,0,0,1,2.94-1.75m8.52-1.71c-.19,1-.37,2-.59,2.94-1.48,0-3,.11-4.66.2,0-.26-.1-.52-.16-.78.72-1.13,1.45-2.24,2.12-3.41,1.1.36,2.2.74,3.29,1.05m7.63-9.13a23.16,23.16,0,0,0,4.33-.19,5.05,5.05,0,0,1-4,5l-.37-4.82m8.3,3.82c-.31-.31-.62-.61-.93-.93l2.19-2.49-1.27,3.42m7.85,18.16v-1.53l1.5-1.22c.35,0,.7,0,1,0-.68,1-1.26,2-2,2.9l-.53-.16m5.76,10.21a3.66,3.66,0,0,0-3,1L392,256c1.11-.29,2.2-.62,3.31-.81-.4,1.43-.8,2.85-1.2,4.28,0-.57,0-1.1,0-1.68m16.46,53.53c.2-.57.39-1.09.58-1.66l4.55,1.78c-.76.57-1.55,1.13-2.32,1.69-1.05-.67-2-1.3-2.8-1.8m-3.9,9.27,3.58-2.88c1.72.88,3.46,1.75,5.18,2.64-2.59,1-5.17,2-7.8,2.95-.32-.9-.64-1.81-1-2.7m7.68,11-4.61-2.88-.07-.14a8.21,8.21,0,0,1,6.51,2,7.85,7.85,0,0,1-1.83,1.07m19.42,5.57L428,333.48c-.12-.53-.23-1.09-.32-1.7a13.4,13.4,0,0,1,5.42,2.65c.16,1,.45,1.87.68,2.82m-47.44-8.83c.06-.4.15-.81.2-1.19l.48.11a3.54,3.54,0,0,1-.66,1.1l0,0m24.75,36.67c.07.16.15.31.21.48l-1.78.1,1.57-.57m-2.54-.57c-.76-3.32-2.83-3.34-5.11-3.06l5.07-2.25c.71,1.54,1.37,3.09,2,4.63l-2,.68m-14,1,.56,1-3.12.17,2.56-1.17m-9.39-.52,3.1.36c0,.09.09.17.12.25-3,.79-5.91,1.57-8.86,2.37,1.91-1,3.77-2,5.63-3M374,367.42c2.34-.86,4.18-1.55,6-2.25l0,.17c0-.09.1-.1.14-.18h-.05c.51-1.07.92-2,1.39-3l1.62-.8c.17,0,.33,0,.48,0-.08.42-.17.8-.26,1.2a4.11,4.11,0,0,0-3.18,2.6l1.23-.07-5.86,3-1.54-.66m-29.14-22.89c.14-.14.26-.28.43-.42a17.26,17.26,0,0,1,2.48,1,5,5,0,0,1-1.25,1.56c-.51-.66-1.08-1.4-1.65-2.16m-11,16.66.31.22-.72.31.41-.53m-15.69-9.94.54,1.78-.81.71c.08-.82.16-1.65.24-2.48h0m-17.65-1.37.32.84-.76-.62c.15-.08.28-.15.44-.22m-48.12,13.89.09.08-.63.63c.17-.25.37-.46.54-.71m-26.56-3.57a4.64,4.64,0,0,1,3.32-1,3.72,3.72,0,0,1,1.49,1.69l-4.81-.69M210.33,358c.15-.45.29-.86.49-1.3a12.29,12.29,0,0,1,1.93-.39,13.24,13.24,0,0,0,5.91,1.41c.36.55.7,1.14,1.09,1.64L210.33,358m-14.87.38.58-.45c0,.06,0,.06,0,.1,1.21-1.06,2.41-2.14,3.64-3.17,1.32.49,2.61,1.1,3.91,1.64a5.52,5.52,0,0,1-2.52,2.77c-1.71.62-4.62,2.7-5-1.25l-.08.07-.54.28-2.8,2.16,2.74.81c-1.9.21-3.76.28-5.63.35a37.81,37.81,0,0,1,5.7-3.31m3.92-18.66-2,2.12-1.73-.25c.69-1.09,1.38-2.17,2.07-3.27.56.48,1.11.95,1.67,1.4m3.87-4.07-2.83,3-2.16-1.19c.65-1,1.35-2,2-3.06l3,1.27m2-2.13-1.4,1.48-3.35-1c.58-.88,1.21-1.75,1.83-2.63l2.92,2.13m4.85-7.17c.24.41.47.86.73,1.31l-4.29,4.52-3.21-2.21c.26-.35.48-.73.75-1.07,1.11-1.4,4-1.71,6-2.53m-31.91-20.62c2.06-.36,4.13-.85,6.2-1.22q2.11,1.72,4.26,3.39l-5.28,1.64c0,.16,0,.35,0,.52l6.24-1.37c1.66,1.27,3.41,2.44,5.13,3.64,0,.11,0,.22,0,.33l.37-.07c.94.65,1.91,1.28,2.89,1.9l-.75.39a5.5,5.5,0,0,0,.14.86l1.88-.41c1.95,1.21,4,2.32,6,3.4,1,1.35,1.95,2.65,3.08,4.2l3.6-1c.73.3,1.36.71,2.1,1-.24-.44-.41-.94-.62-1.42l1.84-.53,2.23,1.41-3.31.61-.14-.07,0,.08.17,0a11.29,11.29,0,0,1-2.39.58c-.18-.15-.34-.32-.52-.46l-.5.57a14.38,14.38,0,0,1-7.71-2.16c-9.68-5.37-19.52-10.48-29.32-15.67a20,20,0,0,0,4.27-.12m29.13-17.08c.62.12,1.27.22,1.88.33l-2.61,1.21-.52-.22c.42-.49.84-.87,1.25-1.31m26.36,3.54-.61-.72.65-.25a4,4,0,0,1,0,1M214,300l-1.78-1.88,2.48-.68c.94.46,1.79,1,2.66,1.5L214,300m36.19-22,.08.12a61.39,61.39,0,0,0,2.25,5.71c.13,1.17.29,2.35.43,3.52l-.11.12c-.25-.18-.54-.32-.82-.48-1-2.84-2.06-5.69-3.12-8.55.43-.16.84-.3,1.29-.45m3.42-10.27,1.73,5.39a20.9,20.9,0,0,0,.42-4.31l.13.07a80.94,80.94,0,0,0,2.39,13.23c0,.08,0,.16,0,.24-.7,1.41-1.42,2.87-2.16,4.34l0,0c2.44-4.49-.51-7.87-2.72-11.36,1.15-2.92-.63-5.78-2-8.64l2.16,1.08m11.38-3c-.36.29-.73.56-1,.85a17,17,0,0,0-1.44-1,23.55,23.55,0,0,0-1.81-9l4.75,3.44c-.18,1.93-.35,3.86-.47,5.76M360.21,242c-.1-.42-.18-.84-.27-1.26l1.79.25c-.51.34-1,.68-1.52,1m6.56,2.13c-.14-.16-.29-.39-.44-.57l1-1.11c-.18.56-.35,1.12-.54,1.69m8.41-.34-1.48,1.2c0-.54-.09-1.07-.12-1.61l1.63.35,0,.07m13.18.93,1,.08-1,.69Zm-5.78,1.12-2.88-.88.23-.73c1,0,2.09,0,3.13.11l-.49,1.49m6.32,19.77c.3-.89.58-1.79.88-2.69a19.93,19.93,0,0,1-.34,2.42l-.54.27m16.32,50.9a2.76,2.76,0,0,1,1-.88l2.21,1.12-2.44,1.77c-.25-.67-.49-1.35-.72-2m-22.7,9.76,0-.07c.05-.48.11-1,.17-1.45,1-1.11,1.88-2.24,2.79-3.36a19,19,0,0,1,1.26,2.55c-.28.35-.52.73-.82,1.06-.7.75-2.21.88-3.36,1.27m.14,4.61-.67-.3c.09-.74.17-1.46.24-2.18a3.68,3.68,0,0,1,1.68.29c.48.27.93.61,1.41.89a13.78,13.78,0,0,1-2.66,1.3M343,347.12a6.92,6.92,0,0,1,.46-.86,2.45,2.45,0,0,1,.11,1.16l-.57-.3m-.11,1.22.28.18c-.08.14-.19.29-.3.44a3.42,3.42,0,0,1,0-.62m-6.47,10.58.08.15a12.14,12.14,0,0,1-3,.29l2.89-.44M220.71,344.73l3.81,2.77L218,345.62c.88-.3,1.78-.6,2.68-.88m-11.13-8.11-.11,0s0,0,0,0l.1.07m6.72-5.85-4.86,4.73-1.41-1a15.83,15.83,0,0,1,3.13-6.42l3.13,2.66m5.64-5.5c-1.29,1.27-2.47,2.41-3.72,3.64-.95-.81-1.86-1.66-2.82-2.45a9.4,9.4,0,0,1,6.5-1.22l0,0m-1.74-5.79c1,.51,1.94,1.1,3,1.58a17.33,17.33,0,0,0-1.1-2.13l3.93-1.14,2.7,3.28c-1.75,0-3.5.07-5.26.13l-.26-.14c0,.06,0,.1.06.15h.21l-2.46.46c-.54-.3-1.06-.61-1.61-.93-.26.35-.53.66-.79,1-.82-.32-1.56-.74-2.36-1.08l4-1.15m-14.93-8.84-3.43,1.8-1.33-.9,4.76-.9m-.77-7.72-2.28-2.09c1.46-.35,2.92-.83,4.38-1.2.67.67,1.37,1.33,2,2l-4.15,1.29m4.3,3.94-2.12-1.94,4.35-1,1.62,1.58-3.85,1.31m33.3,9.76c.31.43.54.91.83,1.34l-1.21.22s0,.09,0,.13a5.44,5.44,0,0,1-.58-.36c-.67-.61-1-1.65-1.87-3.23.32-.05.51-.12.8-.19l2,2.09m14-25.31c-.06.13-.09.27-.14.4,0-.16,0-.3-.06-.45l.19.06m2.31,4.73-2-1c0-.19,0-.38-.07-.56a10.44,10.44,0,0,1,1.54-.48c.18.69.34,1.3.53,2m98-46.52c-.12.2-.26.4-.39.61-1.41.23-2.81.44-4.2.69l4.85-5a3.57,3.57,0,0,1,.3.24c-.19,1.17-.37,2.34-.56,3.51m8.66-4.45c0,2-1.18,3.25-3.35,3.92l0-.09,3.37-3.83m18.37,73c.25.35.32.57.54.9l-.8,1.36c.09-.78.16-1.42.26-2.25m-6.49,14.44-3.49-1.44,1-1.46a6.59,6.59,0,0,1,3.83.63l-1.3,2.27M330.55,353.3c.21.08.42.14.62.23.44.42.87.85,1.3,1.28-.67,0-1.23,0-1.85,0,0-.49,0-1-.06-1.5m-107-9.49.92.36.13.4-1.09-.74h0m4.83-2.7a2.25,2.25,0,0,1-.74.76L222,340.24q1.79-1,3.15-1.85l3.17,2.72m-4.68-14.31,2.54,2.24a8.9,8.9,0,0,1-2.74,2.57l-2-.87a27,27,0,0,1,2.23-3.93M228,326c-.73-.4-1.38-.93-2.15-1.28a8.72,8.72,0,0,1,3.32-1.2c-.38,1-.78,1.7-1.16,2.49m16.14-10.41a.4.4,0,0,1,0-.09,12.9,12.9,0,0,1,1.19,1.58l-.81-.73a7.88,7.88,0,0,0-.34-.76m16.58-38.66c.6-2.08.86-3.84-.2-5.17l.75-1.55a8.49,8.49,0,0,1,1.82.35c.62,1.93,1.17,3.88,1.76,5.82,0,.87,0,1.77.09,2.63l-2.1,2.07c.82.21,1.62.42,2.43.61.2,1.75.42,3.5.77,5.21,0,.22-.06.45-.08.68-.25,0-.5.08-.76.15-1.44-3.93-2.87-7.93-4.05-11.15l-.37.74a4,4,0,0,1-.05-.4m31.56-24.31-1.78-1.18c.54,0,1.22,0,1.72,0,0,.38,0,.76.06,1.14m7,4.62L297,255.69c.14-.95.26-1.9.4-2.84a8,8,0,0,1,1.78,1.39,21.26,21.26,0,0,1,.18,3m77.22,69.64c-.15,0-.25.1-.41.11l.18-.27.23.16m-8.91,4.5c-.2-.17-.32-.19-.52-.37a5.14,5.14,0,0,1,.91,0c-.1.12-.28.23-.39.36m5,2.29c0,.26,0,.65-.08.92-.17-.07-.3,0-.47-.11l.54-.82c-.13-.18-.23-.37-.36-.53s-.17,0-.24.06l.52-.79q1.11.77,2.21,1.59a7.66,7.66,0,0,1-2.13-.33m-2.19,21.21,1.34-.68c.61.31,1.24.6,1.83,1l-1.76,1,.45-.57a2.55,2.55,0,0,0-1.86-.72m-1.64.84c-.13.13-.3.21-.43.34l-.14,0,.58-.29m-6.1-16.59c.34.37.71.73,1,1.1-.29.15-.54.35-.84.49a15.85,15.85,0,0,1-.21-1.59M305.3,345c-.12.22-.25.43-.36.62a3.08,3.08,0,0,1-.33-.91l.69.29m-66.24-2.59c.19.2.4.39.6.59l-.3,1.72-1.08-.63c.24-.57.52-1.11.78-1.68M229.9,332.3l.08,0a7.13,7.13,0,0,0,.52,2.26s-.06.06-.09.06c-.82-.39-1.71-.71-2.53-1.09.39-.66.8-1.32,1.12-2l.9.79m2-6c-.08.62-.18,1.23-.32,1.86-.21-.17-.48-.25-.69-.42a14.36,14.36,0,0,1,1-1.45m14.68-13.41,3.32,3c-1.32-.64-2.62-1.3-3.92-1.92.2-.37.4-.75.59-1.12m47.34-60.09c0,.3,0,.62,0,.93l-.26-.17c.07-.25.16-.52.23-.76m.31,1.11c-.11-.4-.15-.81-.29-1.22.05-.24.17-.5.22-.75a16.43,16.43,0,0,1,2.16.63c-.27.7-.56,1.46-.83,2.17l-1.27-.84m70.1,79.82c-.49-.53-.91-.92-1.44-1.54a7.7,7.7,0,0,1,3,.77c-.4.24-1.06.53-1.55.78m3.2,3.09a23.16,23.16,0,0,1-1.89-1.68l1.63-1.35,0,0a18.65,18.65,0,0,1,.24,3m8.16-2.1a1.33,1.33,0,0,0-.1.18c-.07,0-.14,0-.2,0l.27-.18,0,0m3.32,9.84-.44-1.34.57,0c.07.35.13.73.18,1.07-.11.08-.2.2-.31.28m-6.59,5.42.81-1c.39.34.8.66,1.21,1-.61.08-1.16.22-1.8.26l-.22-.26m1.35-9.19c-.05-.21-.11-.43-.17-.64l.6-.47,1.42.28-1.85.84m-9.62-4.43c.11.13.24.25.34.37-.37.29-.73.54-1.1.85l-.39-.27,1.14-.95m-120.86-.14-1.86.56,1.48,1.37c-.32.27-.85.65-1.28,1a8.16,8.16,0,0,0-1-.69c.36-1.36.73-2.73,1.09-4.1a5.09,5.09,0,0,0,1.15-.13,18,18,0,0,0-.66-1.7l.37-1.36a20,20,0,0,1,1.51,2.72l-1.3-.76c.15.94.35,2.07.53,3.13m-10.94-4.55.71.45a8.06,8.06,0,0,1-.76,1.08c-.71-.32-1.44-.62-2.15-.93l2.2-.59M279,279.5c-.2-.33-.32-.66-.51-1,.19.18.38.35.58.56,0,.14,0,.28-.07.43m-35.79,49.65c1.29.84,2.56,1.69,3.83,2.57l-.11.65c-1.3.35-2.69-.14-4.24-1.78l.51-1.45m109-52.43-.76-.29.84-.45c0,.24-.06.49-.08.74m-45,58.48.26-.43c.12,0,.23.08.34.12l.09.26-.44.22-.24-.17m41.07-53.36a16,16,0,0,1-.26-1.77,5.42,5.42,0,0,1,1.07,1.42l-.81.35m-72.11,10-.35,0a7.66,7.66,0,0,1,.08-2c.08.66.18,1.32.27,2m-36,37.6-.56-.1c0-.25-.09-.51-.13-.76a8.92,8.92,0,0,1,1.56-.9l.1.07c-.32.55-.67,1.16-1,1.69m121.1,3.74a9.5,9.5,0,0,1,1.29,1.39c-.24.11-.34.18-.59.3l-.36-.23a0,0,0,0,1,0,0h0c-.38-.23-.76-.48-1.15-.72l.43-.75c.12,0,.33,0,.4,0m1.15,5.64c-.24,2.22-1.46,2.62-3.36,1.75l0-.11,2.34-1.91c.2,0,.38,0,.58,0-.11-.07-.24-.1-.34-.16l.14-.11.61.57m2.88-9.19a.39.39,0,0,0,0,0l0,0h0c-.73.12-1.69.24-2.59.37l1.34-2.35a20.3,20.3,0,0,0,1.26,2l0,0c.75-2.47,1.46-4.92,2.15-7.39l1-.16,1.13.76c0,.83-.06,1.31-.08,2-.07.32-.17.63-.24.95a2.48,2.48,0,0,0,.17,1,13.62,13.62,0,0,1-.21,1.38c-1.31.49-2.6,1-3.9,1.42M375.41,324a10.74,10.74,0,0,1-2.88.91c1.24-4.2,2.21-7.45,3.2-10.73.92.49,2.37.92,3.12,1.41q-1.74,4.2-3.44,8.4m-45,26.25c0-.08,0-.15,0-.23l.27,0,.24.57-.5-.32m-97.36-34.19c1.2,1.23,2.33,2.41,3.55,3.7-1.11.22-2,.41-2.89.59a25.75,25.75,0,0,0-3-1.84,2.67,2.67,0,0,0-.2-1.25,5.42,5.42,0,0,0-.54-.61,12.91,12.91,0,0,1,3.09-.58m-9.46-.78-3.29,1.74c-1.93-1.71-3.88-3.38-5.83-5.07,1.35-.29,2.7-.61,4.05-.88,1.62,1.42,3.33,2.77,5,4.13l0,.08m179.24,44.32c-1.63.24-3.26.52-4.87.79a4,4,0,0,1-.81-1.09c3.3-.51,6.35-1,9.52-1.47-1.3.57-2.56,1.18-3.85,1.77m-89-120.46-1.3-1.08,1-1.88c.08.81.17,1.69.29,3m-89.12,71.89.6-.09s0,.05,0,.09c.81-.18,1.61-.3,2.43-.49.94,1,1.94,2,2.91,3a6,6,0,0,1-2.82.89,11.63,11.63,0,0,1-.88-.79l-1.91-2a3.78,3.78,0,0,1,.28-.61l-.11,0-.45,0-.27,0-.05-.05.32,0M197.09,302c.85.84,1.73,1.64,2.6,2.46l-6.56,2-4.21-2.9c2.73-.52,5.45-1,8.18-1.61m-2.39,5.58,6.72-1.47q1.31,1.22,2.67,2.39l-5.39,1.83-4-2.75m14.9,13.12a6.94,6.94,0,0,1-1.43-.68l1.43.68m4.49-.61a7.41,7.41,0,0,1-1.08.49,2.72,2.72,0,0,0-.64-.87c-2.65-1.87-5.33-3.65-8-5.48,1.79-.4,3.58-.78,5.37-1.17a77.74,77.74,0,0,0,7.8,5c-.31,0-.6-.09-.76,0a14.72,14.72,0,0,1-2.25,1.75c-.93-.43-1.91-.77-2.77-1.27l2.33,1.48m7.38,33.37-8.58-.8a18.9,18.9,0,0,1,2.75-2.23c1.93,1,3.82,2.11,5.82,3m102.25.29c.66,1.56,0,2.06-.9,2.31.07-.7.13-1.42.19-2.13.11-.16.2-.31.31-.47.11.11.35.18.4.29m7,3.55c0-.51,0-1-.07-1.55l1.08-.3a3.64,3.64,0,0,1-.83,2.28c-.06-.13-.13-.29-.18-.43m86.54-25.74c0,.67,0,1.33,0,2l-1.48-.93c.34-.46.61-.88,1-1.42.14.13.27.22.41.35m-60.48-91.18,1,.14c-.18,1.19-.37,2.35-.56,3.53l-8.56,5.44a5.09,5.09,0,0,1,1-3.07,22.42,22.42,0,0,0,7.09-6m-87.33,21.47,1.49,1.08a22.34,22.34,0,0,1-.38,2.76,21.06,21.06,0,0,1-1.13-3.48c0-.1,0-.24,0-.35m-85.27,29.12c.15-.32.29-.61.44-.9l.79-.55c.43.48.86.95,1.3,1.42-1,.47-1.92.95-2.88,1.4a23.73,23.73,0,0,0-2.58-.18c.71-.39,1.41-.84,2.11-1.31.27,0,.54.11.82.11m-16.43,9.77a5.93,5.93,0,0,0-.59-.75l.57-.15c0,.31,0,.59,0,.89M202,367.94a11.78,11.78,0,0,0-1.86.18c0-.18.08-.34.12-.52a26.82,26.82,0,0,0-2.87-.07l1.46-1.52,6.13,2.16c-1-.09-2-.16-3-.22m-7.64,2.75,8.46-.58,6.91.28a42.86,42.86,0,0,1-10.81,2.77c-2.69.43-5.38.78-8.07,1.18,1.13-1.18,2.36-2.44,3.51-3.66m13-9.72c-.38-.06-.76-.11-1.16-.14-.71-.1-1.42-.21-2.13-.3l0,0,0,0c.08.07.15.15.24.22h-.46l.21-.22a.84.84,0,0,1-.09-.08l.15,0a14.9,14.9,0,0,1,2.73-2.71c2.85,1.26,5.83,2.55,8.83,3.91-.06,0-.11.07-.16.07-.66,0-1.33-.12-2-.17.1-.19.2-.38.29-.58-2.16-.7-4.32-1.41-6.79-2.25a3.82,3.82,0,0,0,.39,2.17m189.17,9.46c0,.1,0,.2.07.3l-1.06.06,1-.36m-7.32.71-2.09.11-.53-1.47c3.18-.41,6.36-.83,9.54-1.22l0,.18-7,2.39m29.53-19.23c.37,2.89.82,5.77,1.4,8.6l-3.72,1.28q.23-4.24.47-8.4l.52-.38c-.17.06-.34.15-.51.23,0-.65.07-1.34.11-2,.58.22,1.16.43,1.74.66m-.34-2.2-1.26-.86,1.18.42c0,.16.06.3.08.45m-2.29-7.29a23,23,0,0,1-1.73-2.64c1,.43,2,.88,3,1.3,0,.65,0,1.3,0,2l-1.33-.62m23.05,6.93a18.43,18.43,0,0,1-5.67,1.23l-2.13-1a4.78,4.78,0,0,1-.71-2.43c0-.27.19-.57.26-.86,2.69,1,5.37,2,8.09,2.9l.15.17M442.06,334c-1.49-.27-3-.6-4.47-.92-.12-.28-.22-.65-.33-1l4.31-.14c.16.68.36,1.32.49,2m.87,4.23a7.44,7.44,0,0,1-3.84-2.78l3.81,2.68s0,.06,0,.1M370.57,225.64c-.08,1.74-.32,3.46-.55,5.19a27.32,27.32,0,0,1-6.69-.69c.9-1.57,1.95-3.05,3-4.54,1.4,0,2.82,0,4.24,0M343,231.88c-1,2.83-2,5.66-3,8.48l-2.65-1.86a15.61,15.61,0,0,1,3.08-6.92c.86-.67,1.7-.49,2.6.3m-39.93-1.18-.07.16-3.79-.06c.09-.27.16-.56.24-.83a9.51,9.51,0,0,0,3.62.74m-56.15,21.69c-.24-1.11-.3-2.28-.64-4.4l1.12.4,1.5,4.64c.33,1.94.67,3.87,1,5.81l-1.49-.81c-.51-1.87-1-3.76-1.48-5.64m-3,3.48c.66.57,1.34,1.11,2,1.63.29,1.6.62,3.18.91,4.78-.93-1.93-1.86-3.87-2.85-5.8l-.11-.61m-23.65,28-1.08.5c-.88-.38-1.74-.8-2.52-1.23a8.22,8.22,0,0,1,3.6.73m-34.85.89.48.18c.19.45.37.91.54,1.37l-.94.45a10.54,10.54,0,0,1-1.1-1.46l1-.54m-26.93,14.8c-.47-.33-1-.49-1.43-.76l.62-.26c.26.33.54.7.81,1m2,6.53c1.42,1,2.5,1.88,3.6,2.77l-2.82,1.74-5.87-2.28,5.09-2.24m31.92,27.05a9.82,9.82,0,0,1,1.36-1.08l3.31,1-2.94-1.25c1.41-1.08,3-2.05,4.51-3.05l1.64,1.19-2.95,3.19-.26-.08.24.1c-.78.84-1.56,1.68-2.33,2.53l-1.38-.76c.37.35.8.64,1.17,1l-4.52,4.91c-1.1-.15-2.18-.38-3.27-.55,1.74-2.41,3.46-4.83,5.42-7.08m-7.7,10,2.54.92-7.78,8.45-2.73-.67c1.78-1.84,3.71-3.56,5.42-5.44.93-1,1.71-2.16,2.55-3.26m68.06,29.84c-.1.15-.28.19-.39.32l.31-.32h.08m2.36,0,0,.17c-.57-.34-1.15-.6-1.7-1,1.27-1.31,2.53-2.63,3.78-3.94l.79.7c-.76,1.09-1.76,2.59-2.79,4.09,1.15.84,2,.37,2.88-.36L256,375.52c-.25-.83-.51-1.66-.75-2.48l.07-.1s-.08,0-.12-.06m35.64-6.46c-.54.88-1.07,1.78-1.63,2.67-1.82-1-3.68-1.94-5.52-2.94.5-.74,1-1.51,1.41-2.24,1.91.83,3.84,1.7,5.74,2.5m-2-7.41c.35-.51.7-1,1-1.58,2.58,1.4,5.2,2.82,7.8,4.25a13.4,13.4,0,0,0-.77,1.15c-5.59,1-6.16.7-8.06-3.82m77.85,24.4c-.34.53-.69,1-1,1.57-.46-.79-.91-1.6-1.36-2.4a1.94,1.94,0,0,0,2.32.75c-.57-1.19-1.16-2.29-1.6-3.14.26-.13.5-.23.76-.36l2.38,3.19c-.48.15-1,.25-1.46.38m1.91.31h.07c.06.07.11.15.15.21-.05-.09-.17-.13-.22-.22m-1.78,1c1,1.65,2.13,2.84,2,3.27-.54,1.19-1.7,2-2.61,3l-1.3-1c.57-1.46,1.14-2.93,1.94-5.23m44.38-13.37-.15-.07c.62-.21,1.21-.48,1.81-.7l.15.54c-.61.06-1.22.13-1.81.23m11.08-4.43-6.15,1.52c.05-.95.1-1.81.15-2.74,1.38-.23,2.77-.43,4.15-.66l-4.13.24c0-.74.08-1.42.12-2.15l4.07-1.5a32.16,32.16,0,0,0,.78,3.28l-.83.13.86,0c.23.67.7,1.27,1,1.92M460.41,343c1.76.42,3.53.81,5.28,1.2.26.81.57,1.61.82,2.43l-5.49-2.4-.61-1.22m-7-7.49c-.57-.06-1.14-.08-1.7-.15-1.47-.15-3-.39-4.44-.59-.53-1-1.05-1.92-1.58-2.91l5.69-.19a13.79,13.79,0,0,1,2,3.84m-10-7.9a9.9,9.9,0,0,1,7,3l-5.44-.09c-.55-1-1-1.91-1.6-2.93h0m-27.32-12.75c.11,1.38.22,2.77.33,4.15l-3.78-2.19c1.23.22,2.38-.09,3.28-2.07l-1.08-.7c.82-.66,1.64-1.33,2.47-2l.14.05c-.45.91-.88,1.84-1.36,2.74l0-.33c0,.1-.09.13-.14.22l.17.11m2.79-2.18,2.44.95a7.53,7.53,0,0,1-2.51-.88l.08-.06M473,279.23a41.37,41.37,0,0,0,7.64-1.48c-4.73,3.72-10.58,4-16.14,5.2-.34-1-.65-2-1-2.94l2.58-.89c2.29.06,4.65.2,6.89.1M453.7,292.7c2.22-1.84,5.35-2.36,8.05-3.48.4.67.74,1.36,1.14,2-4.34,3.67-8.71,7.33-13.06,11l-5.24-.53c.82-.81,1.63-1.62,2.41-2.45l.77-.06a1.76,1.76,0,0,1-.15-.37h-.2a65.32,65.32,0,0,1,6.28-6.13m-30.18-39.78c.48.29.93.66,1.4,1-2.89,5.4-5.83,10.81-8.75,16.21,1.47-4.4,2.82-8.86,4.16-13.32l3.19-3.85m-44.75-25.2c1-.74,2.06-1.47,3.2-2.26a.13.13,0,0,1,0,.05L379,228c-.08-.08-.17-.18-.25-.25m-1.61-11.58a7.53,7.53,0,0,1-.92,1.25l.3-1.25h.62m-64-19.89c1.14.8,1.27,3.44,3.52,2.49l.45.89a26,26,0,0,1-1.33,3.76l0,.11A49.65,49.65,0,0,1,309,192.79a31.24,31.24,0,0,0,4.08,3.46m-7-11.26c1.13,1.12,2.25,2.22,3.55,3.5-.21,1-.55,2.35-.88,3.73a48.88,48.88,0,0,1-2.66-7.23m-10.3,33.28a12.61,12.61,0,0,1,1-1l1.87,1.84c-.26.93-.52,1.87-.76,2.82l-2.16-3.23c0-.13,0-.26,0-.39M292,222.55a52.13,52.13,0,0,0,.17,8.16h-2.26a32.52,32.52,0,0,1-1.41-3.59l2.43,0-2.82-1.48c0-.06-.05-.12-.05-.19,0-2.71.07-5.43.09-8.15l.24.28a37.87,37.87,0,0,1,3.62,4.95m-21.58,1.22a28.66,28.66,0,0,0,3.45,1.58c.15.68.29,1.37.43,2.05-2.67-1.34-5.42-2.72-8.08-4,1.63.06,2.77.27,4.2.41m7.12,3.29a6.58,6.58,0,0,0-1.5,1.2l-.32-.15c-.19-.74-.38-1.48-.58-2.22a24.77,24.77,0,0,0,2.47,1l5.22.08a10,10,0,0,1,2.34,1.92q.09,2,.18,4l-2.76-1.38c-1.66-1.5-3.35-3-5-4.46m-34.57,17.13a40.46,40.46,0,0,1,1.28,4.23c.52,2.73,1.08,5.46,1.57,8.2l-1.92-1c-.63-3.44-1.07-6.91-1.87-10.32a3.25,3.25,0,0,0,.7-1.18l.24.12M218.71,277l1.23,2.63-.38-.19-2.13-3.61,1.28,1.16m-10-3.55,1.41,1.12-1.19-.62c-.06-.18-.17-.32-.22-.5m-22.76,8.7c1.12.18,2.26.23,3.38.44,0,.09,0,.18,0,.25l-1.71,0c-.56-.24-1.1-.51-1.68-.74m151-121.71c-.58-.06-1.24-.06-1.83-.09.12-5.42.24-10.81.39-17.75,5.68,6.94,3.31,12.41,1.44,17.85m83.45,10.43c-9.16,3.13-18.37,6.25-28,9.51,2.84-9.7,10.91-12.54,28-9.51m13.73-13.71c-6.68.84-13.38,1.65-21,2.63,4.48-6.8,11.09-7.61,21-2.63m12-8c-6.87.63-13.76,1.3-20.6,1.93,4.18-5.81,9.23-6.23,20.6-1.93m18.68-9.94c0,.65.06,1.28.12,1.92l-27.47,2.62c-.08-.57-.18-1.14-.3-1.74,8.77-7.69,18.44-1.74,27.65-2.79m5.58-7.87c0,.77.09,1.55.13,2.3-5.44.54-10.92,1-16.34,1.55,0-1,0-2,0-3l16.23-.81m-71,258.89c.14-.47.27-.91.41-1.4l1.38.59c1.13.89,2.28,1.83,3.43,2.65a37.37,37.37,0,0,0,4.13,2.31c-3.36-.45-6.3-2.5-9.36-4.15m9.62,7.91a6,6,0,0,1,.4-.78c2.67,1.44,5.35,2.92,8.83,4.79-4.6.71-6.85-1.76-9.23-4m-32.69-.27c4.08,3.07,4,7.11-.41,11.56.15-3.77.27-7.55.41-11.56m4.32,6.77c.33,0,.7-.06,1.06-.13.57,1.38,1.81,3,1.61,4.14a94.78,94.78,0,0,1-2.91,10.06,6.8,6.8,0,0,1-.85-.24c.33-4.61.71-9.2,1.1-13.83M388,417.47c4.34,3.78,4.12,8.09-.73,14.84.23-4.88.49-9.73.73-14.84M394.25,432c2.53,3.77,1.6,6.91-2.83,10,.91-3.2,1.81-6.4,2.83-10m-1.19,17.36c1-3.21,2.09-6.4,3.11-9.63,2.1,3.36,1.24,5.73-3.11,9.63m5.37-2.08c2.11,5.85-2.77,8.58-4.06,12.95a10.5,10.5,0,0,0-1-.45q2.07-6.41,4.09-12.86c.34.15.64.24,1,.36m-1.19,17.47c-.43-.2-.83-.38-1.21-.54.8-2.54,1.63-5.09,2.45-7.64.53.24,1,.52,1.52.77-.94,2.44-1.88,4.93-2.77,7.41M242.41,397.08c-.34-3.88-2.14-7.37,1.68-11.59,1.46,5.71,1,9.12-1.68,11.59m-5.64,10.74c-4-7.48-2.83-13.28,2.85-16.65-1,5.79-1.91,11.21-2.85,16.65m-4.08-13.5-.07,0,.11-.06s0,0,0,0m-2.8,25.41c-.35,0-.74.09-1.1.15a149.78,149.78,0,0,1-.56-15.1c.06-1.68,2-3.66,3.11-5.51a11.28,11.28,0,0,1,1.21.47q-1.33,10-2.67,20m-13.21,17.74c-3.84-10.89-2.79-17.09,3.4-21.37-1.19,7.36-2.27,14.36-3.4,21.37M204,445.74c.29,4.85.6,9.66.88,14.53-4.05-6.72-4.34-10.27-.88-14.53m-3.8,29.66c-.29-6.52-5.29-11.68-1.06-19.52.41-.07.8-.12,1.21-.22.39,6.47.76,12.93,1.14,19.38-.42.11-.86.21-1.3.35m8.26-40.2c.21,5.4.34,10.16.49,14.95-4.38-5.5-4.54-10.21-.49-14.95m-12.95,45.92c-.37-3.75-.78-7.53-1.18-11.26.71-.26,1.4-.48,2-.75.27,3.88.47,7.7.71,11.57-.53.17-1.07.28-1.57.45m5.37-98c-3.48,2.58-6.85,5.52-12.12,3.34,4.61-1.78,8.22-3.2,11.83-4.6a10.32,10.32,0,0,0,.29,1.26M58.42,305.5c8.19-3.07,16.68-5.69,24.34-9.57,28.79-14.38,59.54-17.75,91.49-15.32,1.07.09,2.12.32,3.19.42.67.69,1.36,1.38,2,2.07l-.49,0c-3.57-.08-7.11-.35-10.58-.65s-7.13-.81-10.69-1.17a11.08,11.08,0,0,0-.5,1.27L159,283c-3.77-.83-7.55-1.66-11.41-2.34,5.86,2.05,12.07,3.35,16.53,6.73a26.08,26.08,0,0,0-3.21,3.05c-2.25-.54-4.42-1.68-6.79-1.52a51.69,51.69,0,0,0-8.7,1.52c-4.32-.47-8.64-1-13-1.41,5.77,4.7,12.77,4.07,19.95,4.39l-16.25,4.53a32.93,32.93,0,0,1-8.4.46l5.77.27-5.6,1.57v.69c3.42-.7,6.79-1.35,10.18-2l.63,0c.07.23.11.44.19.65-2.14,1.15-4.26,2.44-6.48,3.43-2.36.38-4.72.78-7.08,1.15-2.93.45-5.92.51-8.89,1.07a9.13,9.13,0,0,0-4.87,2.7c4.75-.68,9.52-1.4,14.27-2.1-4.12,1.77-8.25,3.55-12.38,5.3a8,8,0,0,0-1.22.69l-4.67,1.07,1.05,1.68c-2.2,1-4.35,1.94-6.59,2.9.06.14.13.25.19.39,2.05-.46,4.11-.94,6.15-1.36a3,3,0,0,0,.19.4,43,43,0,0,0-5.72,2.14c-.52.24-1,.6-1.53.84-3.8,1.34-7.61,2.66-11.39,4a.92.92,0,0,0,.15.46l6-1.59c-3.59,1.91-7.2,3.67-10.76,5.9,5.31-2.27,10.62-4.51,15.93-6.79.21.45.43.85.64,1.28l-.42.43c-10.13,4.76-20.28,9.49-30.37,14.28.06.1.11.22.17.33q13.51-5.65,27-11.26l-.39.4.93-.58c.21.32.41.62.63.91C89.2,334.67,79,341.61,69,348.37c18.33-5.42,29.91-19.92,45.81-28.93,7.86-4.42,16.37-7.94,24.58-11.87,2-1,4-2.07,6.24-3.23.74.27,1.75.68,2.7,1.06-5.56,2.91-11.13,5.86-16.62,9.11q9.41-4.08,18.84-8.12c.62.33,1.22.67,1.82,1,0,.11.08.23.12.34q-4.71,2.68-9.43,5.33l-.1,0,.08,0-1.64.93a4.17,4.17,0,0,1,.07.42l2.31-1c14.2,6.35,28.11,13.33,44.51,14.61v1.78c-2.3.24-4.8,1.11-7,.75-14.1-2.55-28.12-5.34-42.18-8.05-.11.52-.3,1-.44,1.54q19.83,4.62,39.71,9.12c-16.77,1.74-33.83.11-50.84,2.2,13.6.7,27.23,1.36,40.87,2.09a3.56,3.56,0,0,0,.2.35c-15.49,2.18-31,4.26-46.51,6.45,0,.36.06.7.08,1.09q17.8-1.28,35.66-2.61c.13.3.29.6.41.88-4.34,1.58-8.59,3.35-13,4.65-10.67,3-21.33,5.84-31.79,9.57,10-2,19.93-4,29.91-5.93a4.7,4.7,0,0,1,.3.57q-20.15,7.37-40.28,14.78c.13.33.24.6.38.9,11.06-3.49,22.19-7,33.29-10.49.16.12.3.21.46.31-3.34,2-6.61,4.2-10,6.07s-7.24,3.78-11,5.57S109,373,105.17,374.75c.17.41.38.81.56,1.2,4.91-1.68,9.84-3.44,16.09-5.63-2.42,2.17-4.22,3.27-5.25,4.8-.74,1.18-.5,2.85-.74,4.34-2.67,1-5.74,1.31-8,2.81a53.16,53.16,0,0,0-11.29,10.2c5.15-3.37,10.36-6.67,15.57-10.05.27.24.6.51.92.78q-10.83,11-21.69,22.06a4.14,4.14,0,0,0,.6.46c3-2.52,5.89-5.05,8.85-7.6.29.14.58.3.87.46-1.2,2.06-2.23,4.25-3.64,6.25-3.9,5.52-7.92,11-11.94,16.5-2,2.82-1.11,4.13,2.53,4.09-2.18,2.55-4.67,4.91-6.45,7.67A124,124,0,0,0,72.81,450q5.05-7,10.12-13.91c.55.16,1.13.39,1.66.54-.17,1.72-.35,3.36-.5,5.28,3.71-8,7.35-15.79,11.38-24.43l-3.4,3.25c6.33-7.45,12.78-14.83,18.93-22.43,4.1-5,7.75-10.37,11.89-16-2-1-3.47-1.78-5-2.55,2.81-.21,5.61-.36,8.58-.57l4.53,3.88c-4.25-1.3-6.9-.15-9.08,3.67-5,8.89-10.49,17.6-15.12,26.75q6.38-8.82,12.72-17.65c.73.3,1.45.64,2.21,1-1.93,3.61-3.85,7.25-5.74,10.86a3.25,3.25,0,0,0,.4.19c4.07-5.74,8.11-11.5,11.83-16.83,2.29,0,4,0,5.81,0-.83,1.69-1.61,3.43-2.41,5.12.53.27,1.11.49,1.67.73,2.1-2.76,4.47-5.39,6.24-8.28.48-.81-.84-2.46-1.31-3.71,2.36-1.36,5.08-2.43,7.13-4.1,4.31-3.53,8.46-7.24,12.63-10.91,1.71.16,3.42.28,5.13.4l-8.46,9.19-5,.67a10.14,10.14,0,0,0-3.57,1.25l7.52-.71c.13.09.27.19.43.32l.44-.4,31.78-3-.19.58,2.12.31c-4.84,1.82-9.66,3.78-14.51,5.34-5.21,1.73-10.52,3-15.74,4.49-5.43,1.52-10.81,3.11-16.2,5.1,5.91-1.28,11.77-2.53,17.68-3.76a6.83,6.83,0,0,0,.24.72c-1.66,1.05-3.29,2.08-4.94,3.11,0,.12.06.25.08.39,8.24-3.36,16.46-6.72,24.94-10.2-.07,1.22,0,1.63-.18,1.71-2.09,1.53-4.17,3.1-6.28,4.6l-9.65,3.56a2.21,2.21,0,0,0,.05.36q-15.57,6.67-31.1,13.34v.57c2.3-.88,4.87-2.7,6.8-2.49,7.92.9,14.1-6.41,21.43-8.19,1.2-.29,2.33-1.58,3.33-3l6.32-2c-4.48,3.21-9,6.34-13.32,9.77-3.81,3.06-6.61,7.45-10.38,10.57-5.21,4.37-10.86,8.07-16.33,12-1.32,1-2.64,2-4,3,.17.22.3.52.47.78q8.61-5.71,17.3-11.41a6.32,6.32,0,0,0,.61.6,17.89,17.89,0,0,1-2,2.57c-2.31,2-4.88,3.81-7.06,5.93a203.24,203.24,0,0,0-16.92,18.27c.8-.39,1.58-.76,2.34-1.2a4.44,4.44,0,0,0,.56.36c-1.8,2-3.57,3.91-5.33,5.88a2.93,2.93,0,0,0,.4.46c2.13-1.78,4.21-3.57,6.37-5.36a3.33,3.33,0,0,0,.71.6c-4.6,5.77-9.17,11.54-13.76,17.35.22.14.44.3.66.47,3-3.41,6-6.82,8.92-10.22.29.14.62.26.91.41-5.61,9.33-11.25,18.66-16.83,28a4,4,0,0,1,.4.57c1-.84,2.23-1.5,2.85-2.52,4.44-7.19,9.33-14.28,13-21.75,13.72-27.81,34.9-49.25,60-67.37.85-.61,1.76-1.11,2.62-1.71,18.63,1.35,36.05,5.34,55.56-.58a6.85,6.85,0,0,0-2.54-1c-3.4-.06-6.83.16-10.19.13-6.51,0-13-.15-20.19-.25,1.54-1.74,2.35-2.67,3.17-3.58-6.06-2.42-12.33-1.5-18.9.81,1.12-.7,2.2-1.52,3.33-2.18a26.1,26.1,0,0,1,3.9-1.7c1.87.27,3.77.48,5.62.82a32.93,32.93,0,0,1,6.07,2.23l0,0a.89.89,0,0,1,.15,0l0-.16c6.42.34,12.85.81,19.31.88,5.23.08,10.54-.42,15.82-.64h0c-.66-.89-1.12-2.21-2.09-2.56-1.33-.46-3-.1-4.6-.27-6.49-.54-13-1.14-19.48-1.73.07-.52.19-1.06.27-1.6,2.1-.44,4.37-1.39,6.34-1.26,3.34.25,6.46,1.35,9.78,1.76,4.4.54,8.93.7,13.62,1-1.61,2-2.68,3.3-3.8,4.6l0,0h0c-1.78,1.58-3.6,3.16-5.38,4.69l.17-.14c-2,2.29-4,4.61-6,6.89h0l.11,0c-2.22,3.6-5.3,5-9,5.85-11.72,2.62-23.4,5.62-35.13,8.46-1.2.32-2.44.35-4.67.69,2.25-2.9,3.91-5,5.85-7.49-4.31-.14-7.81-.29-11.93,2.78-7.91,6-16.16,11.35-24.35,17,9.82-.44,15.63-10.24,25.09-14.2-1.59,2-2.58,3.23-3.74,4.68,1.31.24,2.48.48,3.65.68C167.53,414,163.07,425.41,154.89,431c5.05-3.86,10.12-7.69,15.16-11.53l.79.74c-4.87,5.4-9.71,10.86-14.58,16.26-2,2.11-4.21,4-6.11,6.22a9.43,9.43,0,0,0-2.14,4.94q8.37-9.13,16.79-18.21c.43.34.9.68,1.31,1-6.09,7.65-12.22,15.32-18.43,23.12.56.16,1.1.29,1.64.48-1.08,2.06-2.2,4.08-3.31,6.1a3.22,3.22,0,0,0,.32.17c1.3-1.58,2.6-3.18,3.88-4.72.21.08.44.18.67.28-3.51,5.44-7,10.88-10.51,16.31.15.07.27.13.39.21,3.09-4.08,6.15-8.16,9.22-12.25.36.17.67.36,1,.54-5.68,10.93-11.42,21.88-17.1,32.8a.67.67,0,0,0,.29.17q7.19-12.47,14.36-25l1,.31c-3.9,11.16-7.81,22.33-11.6,33.22,10.81-15.13,11.64-32.36,18.65-48.48,3.48-8,8-15.69,11.93-23.51,1-1.93,1.87-3.85,2.94-6.13,1.07-.38,2.51-.92,4-1.44v.13l.88-.33-.83.19a45.75,45.75,0,0,0,2.12-5.33c.44-1.41,3.79-3.23.66-4.42,1.73-.47,3.47-1.11,5.18-1.43,9.92-1.84,19.81-3.36,29.76-5.43,4.09-.89,8.24-2.87,12.39-4.31.19.28.37.57.56.89-1.38,1.2-2.68,3-4.22,3.58-4.28,1.69-8.69,2.79-13,4.34q-16.33,5.93-32.57,11.93c14.87-3.57,29.85-5.53,44.13-14.58.17.49.33,1,.5,1.51a29.57,29.57,0,0,1-3.74,2.38c-14.36,6.63-28.76,13.14-43.06,20.05,14.29-4.52,28.7-8.26,41.89-17.74l.94,1.22c-1.58,1.61-3,3.8-4.8,4.85-11.87,7-23.85,13.73-35.78,20.59.15.41.37.87.51,1.34,11.49-6.13,23-12.23,34.47-18.34-11.55,11.64-25.14,21.05-36.7,33.08q15.8-11.93,31.58-23.89c.13,0,.27.06.38.11q-15.67,16.65-31.32,33.29l.73.74q12.59-12,25.15-23.94l.81.37c-2.38,3.74-4.62,7.64-7.24,11.26C188.45,463.43,182,472,176.22,481c6.38-7.53,12.73-15.11,19.11-22.66a3.69,3.69,0,0,1,.52.2q-11.05,17.67-22.11,35.31c.27.11.5.25.78.37l19.21-27.95c.17,0,.31,0,.47-.07-1.39,3.47-2.65,7-4.21,10.42-1.6,3.57-3.37,7.12-5.15,10.65S181,494.43,179.06,498a8.43,8.43,0,0,0,1,.48l9-13.87c-.67,3-1.37,4.9-1.34,6.61.08,1.31,1.17,2.32,1.8,3.51-1.54,2.27-3.6,4.46-4.45,6.86a53.72,53.72,0,0,0-3,14.09q3.13-8.3,6.21-16.65l1.16,0q-2.23,14.43-4.37,28.77c.26,0,.47,0,.71,0,.84-3.58,1.63-7.2,2.47-10.78.33-.1.61-.17.93-.25.2,2.16.63,4.35.64,6.6.07,6.26,0,12.58,0,18.88,0,3.24,1.37,3.54,4.05,1.28a76.86,76.86,0,0,0-.74,9.31,120.15,120.15,0,0,0,2.13,17.53c0-5.3,0-10.62.07-16a16,16,0,0,0,1.53-.62c.77,1.33,1.58,2.57,2.47,4-1.51-7.92-3-15.53-4.62-24-.36,1.81-.57,3-.8,4.29.71-9.05,1.58-18.21,2.08-27.25.36-6,.23-12,.3-18.48-2,.54-3.54.91-5.07,1.32,2-1.87,4-3.72,6.08-5.7l5.44-.11c-3.9,1.75-5.21,4.2-4.78,8.16,1.06,9.27,1.6,18.74,3.1,27.93V503.78c.7-.25,1.4-.46,2.13-.71.53,3.72,1,7.4,1.56,11.1a2.13,2.13,0,0,1,.41-.11c-.1-6.5-.14-13-.2-19,1.7-1.43,3-2.55,4.3-3.63.32,1.66.63,3.37,1,5.09.53-.23,1.09-.37,1.6-.57a78,78,0,0,0,.22-9.62c-.06-.84-1.91-1.18-3-1.74,1.07-2.44,2.55-4.86,3.14-7.3,1.94-7.54,3.82-15.12,5.26-22.68,1.56-8.05,2.85-16.08,3.76-24.08.61-5.21.1-10.29.55-15.52.19-2.4,1.6-5,2.47-7.49.54,0,1.13.13,1.7.15q-3.88,32.21-7.68,64.43c.14,0,.31,0,.53,0,2.08-10.16,4.24-20.32,6.4-30.48.58,0,1.21-.08,1.81-.12-.58,6.45-1.14,12.85-1.7,19.26.31,0,.64-.06,1-.11.76-3.14,1.53-6.24,2.54-10.5.31,3.45.54,5.7.78,8,.27,0,.58-.08.89-.14,1.5-7.09,2.86-14.17,4.54-21.29a38.42,38.42,0,0,1,2.62-6.12c.06-.19.11-.39.17-.59,0,0,0,0,.06,0a48,48,0,0,1,1.35-5.93c.24-.78,1.33-1.44,2.07-2.17.45.68,1.23,1.26,1.34,2.06.16,1.21.33,2.73-.33,3.77-1,1.54-2,4.8-4.43,2.27a1.39,1.39,0,0,0,0,.14c-.06.14-.13.27-.19.41-.33,1.12-.68,2.22-.95,3.34l4.61-2.13c.24,1.7.5,3.38.6,5.1,0,.51-.84,1.35-.67,1.69,3.17,6.55-2.93,9.37-7.19,13,2.65-1.49,5.3-3,8.36-4.76.86-6.3,1.85-13.11,2.81-20h-.11l.13-.08c.22-5.18,2.81-9.39,7.24-11.1,1.14-.42,2.54.37,3.85.61-.64,1.45-.86,3.44-1.91,4.33-2.87,2.28-6.08,4.12-9.18,6.16,0,0,0,0,0,0s0,0,0,.05a8.94,8.94,0,0,0,3.32-.26c2.1-.9,4.05-2.45,6.17-3.28,1-.39,2.17.25,3.27.42-.59,1.12-.87,2.6-1.77,3.31-2.75,2.22-5.74,4.1-8.56,6.19a29.48,29.48,0,0,0-2.67,2.63c.3.38.57.75.85,1.13,5.07-3.91,10.17-7.83,15.22-11.74.38-2.49.8-5,1.23-7.45-2.05-3.81-1.45-6.24,2-8.32-.5-.32-1.5-.65-1.44-.93,2.21-7-1-12.31-1.66-18.38,2.3,4.48,4.6,9,7,13.85-.78,1-1.93,2.34-3,3.67,1.94.33,3.88.64,5.89,1-.27-2.7-.58-5.32-.64-8,0-2.14.35-4.35.5-6.55,2.61-1.13,5.05-2.16,7.72-3.31-.39,4.37-7.53,2.85-6.52,7.77,3.22-1.09,6.29-2.14,9.37-3.2.33-1.84.71-3.7,1-5.55.34.9.66,1.81,1,2.69q3.08-2.21,6.16-4.39c-.41-.52-.87-1.06-1.3-1.61,3.35-2.06,7.06-3.69,9.88-6.3,2.37-2.16,3.67-5.44,5.61-8.55-1.56-3.16-.55-8.74,2.47-11.49a20,20,0,0,1,2.75-1.58c-.5,1.68-1,3.4-1.5,5.06.34.19.71.4,1.07.56.77-.73,1.53-1.45,2.33-2.16a21.75,21.75,0,0,1,2.6-2.39,5.23,5.23,0,0,1,1.56-.7c0,.09,0,.18,0,.27-.17,1.58-.38,3.15-.61,4.77.5.23,1,.41,1.48.64,1.09-1.67,2.23-3.41,3.34-5.09l1.08.54a6.1,6.1,0,0,1,1.28,1.68,5.76,5.76,0,0,0,.5-.8c1.35.67,2.74,1.35,4,2-.08.3-.21.63-.33,1-2.52-.92-5-1.79-7.51-2.68a101.38,101.38,0,0,1,9,5.92c2,2.31,1.9,6.2.15,8.1,1.05,2.35,1.58,4.77,3.11,6.55,1.87,2.19,4.6,3.81,7,5.67-.44.32-.86.62-1.32.91,1.43,1.3,2.83,2.58,4.28,3.83.39-.49.8-1.09,1.17-1.61,0,1.29,0,2.54-.05,3.87,2.33,1.14,4.66,2.32,7.09,3.53,1.6-3.16-4.41-3.21-4-6.22,2,1.19,3.78,2.25,5.68,3.4a36.21,36.21,0,0,1-.69,4.44c-.47,1.82-1.17,3.55-1.76,5.32,1.63.08,3.3.13,4.94.19-.7-1-1.38-2.1-1.89-2.88,2.77-2.87,5.32-5.54,7.9-8.22-.62-4.08-.33-4.49,3.77-4.75-1.26,1.57-2.47,3.18-3.72,4.72-1.52,4-4.95,7.09-4.33,12.08,0,.14-.84.29-1.3.41,2.4,1.88,2.49,3.58.23,5.87l-.08,0s0,.07,0,.12l.07-.08c-.08,1.72-.18,3.46-.24,5.2,3.44,3.34,6.9,6.73,10.38,10.08a5.92,5.92,0,0,0,.86-.64,16.33,16.33,0,0,0-1.71-2.11c-1.93-1.84-4-3.55-5.91-5.46-.58-.58-.58-1.64-.9-2.45.94,0,2-.24,2.74.17,1.55.9,2.94,2.21,4.47,3.15a8,8,0,0,0,2.58.63v0s0,0,0,0c-2.16-1.81-4.44-3.54-6.39-5.49-.73-.69-.57-2.07-.83-3.14,1.11,0,2.34-.3,3.21.15a7.56,7.56,0,0,1,4,8.49l.12.1-.12,0c-.31,4.75-.67,9.49-1,13.83,2.24,1.66,4.13,3,6,4.4-2.84-3.09-7.3-5.91-3.67-9.8.14-.2-.36-.9-.26-1.22.36-1.18.87-2.25,1.26-3.36l3.45,2.13c-.07-.81-.15-1.6-.23-2.39,0-.09-.06-.19-.08-.27s0-.09,0-.13c-2.4,1.34-2.71-1-3.25-2.16a3.64,3.64,0,0,1,.37-2.6c.23-.54.92-.79,1.4-1.16.46.56,1.25,1.19,1.34,1.73a36.05,36.05,0,0,1,.14,4.19h0c0,.14,0,.27,0,.41a21.8,21.8,0,0,1,1.1,4.51c.17,5,.14,10,.17,15,.24.06.5.15.74.19.54-1.46,1.08-3,1.91-5.23.13,3,.2,5.22.31,7.41a5.44,5.44,0,0,1,.74.22c.64-4.37,1.25-8.76,1.8-13.19.49.15,1,.26,1.45.36.07,7.16.13,14.3.22,21.41a1.28,1.28,0,0,0,.38.07q2.16-22.16,4.35-44.33c.46,0,.94.08,1.4.14.26,1.78,1,3.73.76,5.4-.47,3.55-1.74,6.91-2.13,10.49-.54,5.49-.84,11.1-.87,16.69-.07,5.29.2,10.68.53,16a30.89,30.89,0,0,0,1.35,5.33c-.93.24-2.49.21-2.67.74a45.58,45.58,0,0,0-1.41,6.5c.41.19.83.42,1.21.59.56-1.08,1.11-2.17,1.61-3.26.89.94,1.77,1.86,2.88,3.09-1,4-2.18,8.36-3.27,12.77l.33.08c1-2.4,2-4.79,3-7.19.55.24,1.11.52,1.64.78-1.08,4.5-2.17,9-3.28,13.51,2.73-6,4.69-12.25,7.07-18.29,1-2.61.31-4.49-2.54-6.21,1.69.32,3.36.68,4.37.88,1.43,1.63,2.72,3.21,4,4.75-1.2-.49-2.36-1-3.92-1.69-1,4.41-2.08,8.37-2.79,12.47-1,6.15-1.86,12.42-2.77,18.63,0-.86.07-1.7.09-3-2.71,5.44-5.15,10.35-7.68,15.43.94-.84,1.81-1.55,2.62-2.3.37.22.76.43,1.16.63-.85,3.57-1.71,7.16-2.55,10.74a69,69,0,0,0,4.55-11.5,39.06,39.06,0,0,0,1-6.33c1.83,1.91,3,1.89,3.5-.28,1-4.22,2-8.48,3-12.68a37,37,0,0,1,1.66-4.29,3.29,3.29,0,0,1,.65.26c.07,2.52.16,5.07.24,7.62a4.24,4.24,0,0,0,.57.11c.38-6.64.78-13.28,1.18-20,.33.07.6.12.93.21.74,4.06,1.55,8.06,2.3,12.08a31.28,31.28,0,0,0-.05-9.93c-.36-1.72-1.66-3.48-2.5-5.27.7-.63,1.74-1.2,2-2.06.34-1.14,0-2.54,0-4.66,1.94,4.19,3.47,7.4,5,10.66a9.19,9.19,0,0,1,1-.14c-1-2.7-2-5.4-2.93-8.05s-1.76-5.26-2.44-7.93c-.7-2.5-1.16-5.07-1.7-7.56a2.76,2.76,0,0,0,.35.07c3.68,7.21,7.34,14.43,11,21.61l.69-.14c-4-9-8.09-17.94-12.1-27l.44,0c4,6,7.86,12,11.79,18-3.21-6.9-7.07-13.67-10.67-20.43-1.55-2.84-2.7-5.73-4-8.62l.71-.11q8.2,9.92,16.43,19.79c.23-.12.46-.26.69-.4-6.64-9-13.22-18-19.83-27l.3,0,21.64,20.69c-7.38-9.78-16.86-18.12-24.28-27.58,8.28,5.76,16.59,11.57,24.87,17.34.23-.25.46-.54.66-.81-8.58-6.34-17.12-12.65-25.58-19.11-1.3-1-2.07-2.63-3.1-4,.36-.24.67-.43,1-.67,9.09,8.33,20.16,12.95,30.95,18.07-10.38-6.7-21-13.25-31.5-19.8a23.29,23.29,0,0,1-2.65-2.12,9.59,9.59,0,0,1,.69-.94c10,8.14,21.77,11.65,33.18,16.23-8.1-4.26-16.19-8.54-24.27-12.76-3.28-1.7-6.65-3.07-9.88-4.85-1.13-.58-1.87-2-2.8-3,.2-.18.42-.34.62-.51,3.1,1.58,6.1,3.51,9.31,4.71,7.68,2.85,15.46,5.34,23.17,8,1.31.48,2.64,1.18,4,1.75-2.72.32-.33,2-.21,3.08a27.8,27.8,0,0,0,.86,3.88l-.74-.29.77.4v-.1c1.07.56,2.13,1.15,3,1.58.5,1.69.9,3.1,1.36,4.51,1.94,5.87,4.34,11.67,5.81,17.56,3.07,11.81.91,23.56,7.17,35.29-1.27-7.85-2.63-15.92-3.94-24a7.43,7.43,0,0,1,.86,0c2.48,6.27,5,12.6,7.51,18.87h.29c-2.85-8.19-5.71-16.38-8.51-24.63l.89-.18c1.8,3.21,3.63,6.39,5.45,9.59l.39-.07c-2-4.2-3.92-8.33-5.86-12.46a2.31,2.31,0,0,1,.6-.14c.79,1.26,1.59,2.49,2.39,3.78a.74.74,0,0,1,.28-.08c-.58-1.52-1.16-3.07-1.7-4.6a14,14,0,0,1,1.41-.11c-3.76-6.15-7.45-12.19-11.12-18.21l1.23-.52c3.54,4.9,7.06,9.78,10.62,14.73a5.78,5.78,0,0,0-1-3.63c-1.17-1.75-2.63-3.36-3.88-5.12-3.08-4.31-6.09-8.68-9.09-13a7.28,7.28,0,0,0,.7-.41c3.45,3.34,6.92,6.64,10.38,10-5.66-5-7.43-13.29-16-15.74.94.07,1.94.1,3.07.11-.69-1.18-1.27-2.1-2.24-3.69,7,4,10.06,11.47,17.93,13.24-5.67-5-11.52-9.83-16.9-15-2.82-2.68-5.66-3.14-9.16-3.66,1.16,2,2.11,3.62,3.5,5.91-1.76-.56-2.76-.76-3.73-1.17-9-3.58-17.93-7.34-27-10.86-2.92-1.09-5.21-2.51-6.42-5.28l.13.13.11,0-.18-.08c-1.21-1.8-2.41-3.61-3.64-5.43l.1.08h.08l-.14-.05c-1.16-1.27-2.33-2.58-3.51-3.86h0l-2.35-3.61c3.9.43,7.57,1,11.19,1.27,2.77.24,5.48-.1,8.19.25,1.63.2,3.28,1.17,4.94,1.78,0,.39,0,.78,0,1.15l-16.06-1.73a21.84,21.84,0,0,0-3.77-.51c-.84.1-1.4.89-2.1,1.4l0,0c4.23,1,8.44,2,12.66,2.77,5.28.89,10.53,1.52,15.78,2.25l-.08.1h.15l0,0a31.75,31.75,0,0,1,5.29-.66c1.43.05,2.88.18,4.32.27a23.39,23.39,0,0,1,3.23,1.78c.82.61,1.55,1.32,2.34,2-4.93-2.51-9.84-4.07-15.17-3.33.5.71,1,1.45,2,2.87-5.81-1-11.11-1.84-16.32-2.77-2.77-.49-5.51-1.15-8.24-1.6a7,7,0,0,0-2.28.31c14.83,6.86,29.58,6.77,44.91,8.59.59.52,1.23,1,1.82,1.51,17.34,15.86,30.94,33.32,37.5,54.07,1.75,5.55,4.54,11,7,16.52a11.31,11.31,0,0,0,1.87,2.09c.19-.13.3-.25.46-.36q-4.5-10.65-9-21.25l.77-.17c1.85,2.72,3.71,5.49,5.55,8.19a6,6,0,0,1,.6-.22c-2.77-4.58-5.54-9.1-8.28-13.66.23-.12.44-.2.66-.31,1.44,1.49,2.9,3,4.3,4.5a1.72,1.72,0,0,0,.4-.25c-1.08-1.54-2.21-3.12-3.31-4.72a4,4,0,0,1,.47-.14c.56.37,1.12.74,1.69,1.14a133.45,133.45,0,0,0-10.66-14.73c-1.43-1.79-3.18-3.34-4.74-5.07a9.92,9.92,0,0,1-1.19-2c.16-.14.39-.2.57-.33,4.07,3.4,8.08,6.8,12.15,10.18l.51-.42c-1-.88-1.84-1.75-2.77-2.6-3.77-3.47-7.72-6.8-11.21-10.46-2.52-2.66-4.1-6-6.7-8.62-2.93-2.95-6.08-5.73-9.18-8.55l4.82,2.34a5.3,5.3,0,0,0,2.22,2.55c5.59,2.24,9.42,8,15.94,8.64,1.58.12,3.41,1.72,5.1,2.65a2.44,2.44,0,0,0,.11-.36c-7.67-4.53-15.35-9-23-13.55a1.85,1.85,0,0,0,.09-.22c-2.39-1.25-4.79-2.53-7.19-3.8-1.46-1.33-2.88-2.7-4.33-4-.08-.07,0-.36.14-1.19l18.47,10.57a.72.72,0,0,0,.11-.28c-1.12-.93-2.25-1.85-3.47-2.79a3.45,3.45,0,0,0,.36-.46c4.55,1.69,9.09,3.41,13.66,5.12-4.07-2.14-8.15-4-12.25-5.82s-8.09-3.37-12-5.3c-3.69-1.78-7.25-3.83-10.87-5.75l1.75.11a2.55,2.55,0,0,0,0-.41c10.66,2.82,21.25,5.64,31.87,8.48a8.64,8.64,0,0,0-2.68-1.35C437.92,399.78,425,396,412,391.77a38.5,38.5,0,0,1-8.3-3.49,2.62,2.62,0,0,0,.07-.33c6.65-.64,13.24-1.36,19.9-2.06-5.47-.74-11-3.27-16.39-3.58a2.45,2.45,0,0,0,.62-1.34c-2.16.15-4,.33-5.91.51.13.27.21.55.34.84.79.13,1.3.19,1.87.27a13.71,13.71,0,0,0-1.84.16c3,.75,5.92,1.41,8.92,2.09-4.45,1.55-8.78.38-13.8-2.7,6.05-1,11.54-2.18,17.16-2.87s11.29-.67,14.16-.81l-12.67-1.28.68-.67a22.61,22.61,0,0,0,7.1-2.25,17.72,17.72,0,0,0-4.71-.06l2.18-2.13-.16-.07,3.23-.19a22.93,22.93,0,0,1-1.06,2.07,8.65,8.65,0,0,1,1.23.25l-.49.05c-.07,0-.15,0-.21.08s.22,0,.3,0l.49-.13c3.89.63,5.45,3.51,5.07,9.83l-.15.05c0,.09.11.12.15.22V384c1.59,3,3.16,6,4.8,9l-10.08-2c-4.15-1.52-8.32-2.92-12.56-3.14v.84c-1.35-.28-2.69-.55-4-.84-.09.3-.13.55-.2.87,3.26.81,6.54,1.55,9.83,2.35,0-.19,0-.42,0-.63l2.8.64c0,.14,0,.3,0,.44,3.55.77,7.09,1.36,10.63,2l2.88.66c-.3-.08-.6-.2-.9-.29,5.33.88,10.66,1.57,16,2,3.22.53,6.42,1,9.65,1.6.15-.7.27-1.47.43-2.22a23.52,23.52,0,0,0-4.43-1.54c-4.37-.62-8.78-.82-13.13-1.67-1.39-.3-2.5-2.12-3.71-3.24,1.21-1.14,2.27-3,3.65-3.31,2.88-.56,6,0,8.89-.43,1.39-.19,2.68-1.52,4-2.4l0-.09h0c-4.65-.31-9.34-.27-13.9-1.13-.23,0-.41-.38-.63-.5.42-.05.84-.08,1.26-.13a3,3,0,0,1-.06-.33l-1.72,0a35.2,35.2,0,0,1-3.17-3.62c1.38-1.38,2.64-3.67,4.19-4,6.1-1.29,11.25,2.54,14,9.68h.18l-.12.09c4.52,8.89,9,17.77,13.14,25.94,4.49-.1,8.36-.14,12.23-.27-6.86-1.65-15.45-.61-14.93-12.47,0-.58-1.39-1.08-1.6-1.82-.74-2.54-1.26-5.15-1.89-7.7,2.07-.27,4.2-.52,6.57-.87-.91-1.25-1.8-2.54-2.69-3.8-.17-.17-.37-.34-.54-.51l-.06-.09c-1.65,5.53-4.52,1.79-6.39.42-1.24-.92-1.87-3.27-2.27-5.06-.24-1.25.37-2.71.64-4.05,1.14.43,2.79.46,3.47,1.37a74.74,74.74,0,0,1,4.55,7.32.63.63,0,0,0,.06-.14l.54.75c2.07,2.07,4.44,4,6,6.46,5.44,8.64,10.56,17.5,15.83,26.3a12.09,12.09,0,0,1,1.16-.57c-.89-3.4-1.75-6.84-3.06-11.91,3.31,5.17,5.71,9,8.14,12.75.38-.22.83-.49,1.23-.7-3.81-8.59-7.66-17.17-11.49-25.77.71-.45,1.44-.9,2.16-1.31,7.52,12.59,15.09,25.17,22.6,37.74a5.48,5.48,0,0,0,.66-.35q-16-33.23-32-66.49c1.67.85,3.33,1.71,5,2.56.94,2.58,1.84,5.19,3,7.65,5,10.54,10.49,20.83,16.27,30.9,5.43,9.49,11.42,18.68,17.45,27.76,2,2.93,4.81,5.13,7.27,7.69-.95,1.67-3,3.68-2.66,5,1.27,4.57,3.31,9,5.05,13.41.71-.19,1.46-.34,2.13-.57-.44-2.66-.91-5.33-1.36-8,2.1.48,4.15,1,6.87,1.57,2.87,8.59,6,17.82,9.16,27.06a5.06,5.06,0,0,0,.54-.17q-1.85-8.51-3.7-17c1-.26,1.94-.54,2.94-.84q4.91,14.25,9.9,28.5c-2.83-14.31-6.82-28.12-10.19-42-1.43-6.06-4.26-8.41-9.66-7.63,2.45-1.7,5-3.37,6.5-4.38,3.45,1.06,6.69,2,10,3-2,.7-4,1.42-6.64,2.31,3.31,9.12,6,17.66,9.44,25.91,5.11,12.38,10.62,24.56,15.94,36.86-.87-1.58-1.74-3.14-3.05-5.5,2.28,13.37,4.35,25.39,6.44,37.83.33-2.8.6-5.23.93-7.67l2.08-.39c2.69,7.5,5.31,15,8,22.51a200.13,200.13,0,0,0-6.21-26.55c-1.32-4.4-3.58-8.47-5.42-12.62,4.3,1,5.74-.63,4.13-5.15q-4.73-13.35-9.36-26.64c-1.09-3.21-1.65-6.58-2.5-9.88.44-.14.8-.29,1.2-.42,2.74,4.41,5.51,8.78,8.25,13.19a8.34,8.34,0,0,0,.86-.57q-9.68-18.51-19.28-37.07c.42-.24.89-.55,1.33-.84q7.78,9.17,15.5,18.36A69.85,69.85,0,0,0,562,438.57c-2.14-2.64-5.68-4-8.56-6,.14-2.18.92-4.54.33-6.39-.74-2.51-2.57-4.55-4.82-8.29,6.82,4.77,12.15,8.53,17.45,12.26.32-.54.66-1,1-1.55-4-3.48-8.15-6.86-12.11-10.39s-7.69-7-11.35-10.77c-3.5-3.61-6.71-7.47-10.07-11.29a3.25,3.25,0,0,0,.56-.27q18.24,11.82,36.43,23.6c.24-.39.48-.81.7-1.17-14.47-10.53-28.92-21.07-43.47-31.6.21-.24.39-.48.59-.68,11.22,5.36,22.44,10.79,33.69,16.18-11.3-8-23.14-14.81-34.83-21.91-4.88-3-9.44-6.59-14.09-10l.79-1.14q20.7,6.47,41.42,13c.2-.54.36-1.08.5-1.58Q529.45,370,502.86,359.37l.34-.48,49,7.69c-19.54-7.46-40.21-9.51-59.57-16.39,16.56-.87,33.1-1.82,49.65-2.69,0-.74,0-1.49-.06-2.3-17.43.24-34.86.58-52.23.54-2.73,0-5.38-1.88-8-2.92.14-.82.31-1.64.5-2.47,20.17,2.47,39-4.19,58-9.58-20.25,2.06-40.37,4.73-60.58,7.28a38.21,38.21,0,0,1-5.56-.27c0-.84-.13-1.7-.19-2.55,21.26,1,39.91-8.68,59.1-15.9-14.73,3.33-29.46,6.62-44.16,10.1-5.88,1.38-11.59,3.46-17.5,4.64-2.1.41-4.51-1-6.75-1.62.06-.57.14-1.13.24-1.68,5.59-1.35,11.48-2,16.72-4.22,12.7-5.26,25.12-11.27,37.68-16.91a71,71,0,0,1,6.82-2.3c-3.11,4.3,1.73,4,3,5.78a51.69,51.69,0,0,0,5.14,5.76c-.39.13-.77.3-1.15.45l1.3-.3-.11-.16c2-.48,3.93-.92,5.35-1.26,2.43,2.3,4.38,4.33,6.51,6.25,8.52,7.76,17.6,15,25.64,23.32,16.23,17,25.74,40.69,45.9,53.16-9.83-12.23-20-24.84-30.09-37.37.39-.43.7-.81,1-1.22q14.66,11.77,29.29,23.49a2.92,2.92,0,0,1,.3-.45C606.19,374,594,363.27,581.92,352.5c.32-.51.63-1.09.91-1.56,5.67,3.19,11.29,6.44,16.9,9.67a5.13,5.13,0,0,0,.34-.66c-6.76-4.77-13.61-9.54-20.4-14.33.23-.3.44-.68.63-1,2.31,1.18,4.61,2.31,6.92,3.5.1-.15.19-.33.29-.46-2.3-2-4.62-3.91-7-5.91.59-.7,1.16-1.33,1.76-2.09-11.18-5.85-22.2-11.64-33.15-17.35.35-.89.73-1.73,1.06-2.61,9.6,4,19.17,7.9,28.76,11.88a11.12,11.12,0,0,0-5-5.16c-3.32-1.54-6.89-2.46-10.22-3.84-8.46-3.55-16.8-7.23-25.2-10.86.17-.57.36-1.14.56-1.7q11.69,1.88,23.49,3.74c-12.36-1.17-23.27-13.63-36.68-6.34,1.26-1.27,2.53-2.57,3.93-4-2-1.07-3.78-2-6.67-3.53,13.11-2.18,24.74,6.82,36.57-.65-12.46-1.21-24.82-2-37.07-3.8-6.37-1-10.46,2.13-15.4,5.92,3.55,1.94,6.45,3.51,10.58,5.74-2.79,1.39-4.28,2.33-5.86,2.93-15.17,5.68-30.39,11.1-45.51,17.08-4.85,1.91-9.22,2.46-13.58-.78h.2l.05-.08-.13,0c-3.44-1.57-6.9-3.17-10.4-4.77l.27.06c0-.06.07-.13.11-.19l-.36.13L438,320.29l-.25-.48-.87.19-2.5-.64-.07,0a.19.19,0,0,0,0-.06h0c-1.78-.85-3.61-1.75-6-2.94l2.49-1.19c-1.06.25-2,.62-3.06.91l-.19-.09c4.94-4,9.7-7.76,14.27-11.72,1.36.4,2.72.83,4.08,1.25-1.71,1.44-3.41,2.89-5.13,4.31s-3.94,2.42-5.26,4.17c-1,1.27-.87,3.51-1.19,5.31l.06,0c6.15-3.89,12.41-7.58,18.36-11.81,1.91.54,3.8,1,5.71,1.44l-.76.55c-4,2.86-8.16,5.4-12.06,8.26-1.11.8-1.72,2.33-2.53,3.58A92.44,92.44,0,0,0,466.79,310c1.11,0,2.23.32,3.35.25l-2.69-.68C482,300,494.89,287.48,508.9,276c1.27.13,2.54.21,3.81.37,38.53,4.79,74,17.58,103.92,45.58,8,7.47,17.26,13.47,26.08,20,1.18.93,3,.81,4.57,1.22a11,11,0,0,1,.19-1.22l-33.6-25.66c.27-.46.53-.91.8-1.33,5.21,2.38,10.39,4.7,15.57,7.1.2-.43.33-.81.5-1.25-8.21-4.34-16.48-8.75-24.72-13.12a14.94,14.94,0,0,0,.56-1.42c3.38.76,6.74,1.54,10.12,2.28.09-.34.18-.64.24-.93q-4.56-2-9.09-4c.11-.3.27-.6.4-.91l3.34-.29a190.7,190.7,0,0,0-28.93-11.77c-3.61-1.25-7.49-1.64-11.23-2.58a18.15,18.15,0,0,1-3.58-2c.11-.44.27-.91.41-1.37,8.69.6,17.34,1.21,26,1.77,0-.46.08-1,.13-1.48-2-.3-4.08-.65-6.17-.92-8.36-1.07-16.86-1.66-25.11-3.51-6-1.3-11.49-5.21-17.46-6.33-6.66-1.25-13.38-2.11-20.1-2.91l8.07-2.23c1.88,1.24,3.87,2.09,5.44,1.52,9.45-3.53,20.37,1.64,29.2-6.13,2.17-1.91,6.13-1.48,9.27-2.14-.09-.25-.2-.52-.29-.81l-43.2,6.9-.09-.52q-6.38,1.42-12.73,2.87c-3.35-.39-6.72-.77-10.06-1.22-.21,0-.36-.66-1.07-2.28,11.68-2.12,23.06-4.15,34.41-6.24,0-.21-.09-.42-.11-.64-2.45-.11-4.88-.17-7.34-.3,0-.38-.06-.84-.09-1.25,7.58-3.11,15.1-6.19,22.67-9.31-7.32,1.69-14.45,3.94-21.6,6.2-6.87,2.27-13.73,4.85-20.73,6.77-6.52,1.8-13.17,3-19.75,4.43l2.35-2.2c-.19-.23-.35-.46-.51-.7q24.58-13.88,49.22-27.84a11,11,0,0,0-4.84,1.21c-20.47,10.42-40.81,21.16-61.52,31-4.53,2.16-9.27,4.41-14.21,5-.08-.21-.15-.41-.22-.62q11.52-15.29,23-30.56c-7.71,6.07-17.37,9-24.5,15.76a7.4,7.4,0,0,0-.64-3.24c-2.51,3.2-4.68,6-6.9,8.85.43.31.84.7,1.26,1.06.9-.65,1.41-1.08,2.1-1.61a27.55,27.55,0,0,0-1.56,2.42c4.48-2.82,9-5.59,13.43-8.4-3.94,8.82-10.72,12.49-20.29,13.87,6.64-10.07,12.32-19.48,18.8-28.2,6.34-8.53,13.5-16.42,17-20.64l-20.22,17.2c4.06-5.62,7.72-11.3,9.65-18.19-5.52,3.74-13.47,16-13.83,21.75l-5,4.27a4.82,4.82,0,0,0-.17-.84l-1.62,2.36-12.43,10.58c3.78-5.88,7.24-12,10.45-18.21,9-10.71,18.27-21.86,27.55-33-7.5,8.12-16.66,14.73-23,23.47a211.62,211.62,0,0,0,8.63-21.71q-6.39,11.4-12.78,22.78L439.5,253.39c2.63-5.92,5.22-11.85,7.83-17.78.45-.65.93-1.28,1.39-1.93,5.34-7.66,10.49-15.49,15.7-23.28l-12.71,15.24c4.42-10.08,8.88-20.15,13.31-30.25-.47-.22-.94-.49-1.38-.7a9.1,9.1,0,0,0-1.07,1.55q-8.56,18.4-17.06,36.83c-5.05,6.06-10.07,12.07-14.9,17.85l6.63-18.13q4.38-11.7,8.76-23.39c-1.08-.51-2.14-1-3.2-1.43-2.14,5.16-4.11,10.37-6,15.63q-5.58,8-10.71,16.33a13.5,13.5,0,0,0-.51-3.61l.11,0q3.33-9.25,6.62-18.55,2.41-4.82,4.8-9.62l9.16-2.9c.86-4.76,1.61-8.82,2.36-12.85-2.5,5.8-3.58,13.29-10.41,13.53l2.05-4.12c-.76,1.43-1.62,2.81-2.48,4.18a14.16,14.16,0,0,1-3.65-.58c-.53-.12-1.28,1.24-2,1.3-2.45.25-4.91.25-7.42.37.21-2.25.43-4.52.68-7.11-1.42.71-2.76,1.4-4.12,2.1-.18.13-.36.29-.54.42l-.12.06c4.69,2.86.69,5.09-.92,6.76-1.13,1.15-3.34,1.28-5.08,1.32-1.2,0-2.36-1-3.6-1.45.66-1.16,1-2.87,2-3.44a63.37,63.37,0,0,1,7.6-3.19s-.06-.06-.11-.09l.76-.39c2.33-1.78,4.57-3.88,7.17-5,9-4,18.15-7.46,27.26-11.15a12.89,12.89,0,0,1-.31-1.32c-3.28.2-6.54.4-11.48.67l13.32-5.85c-.12-.49-.23-1-.37-1.4L431,184.58c-.24-.81-.47-1.69-.71-2.55q19.55-7.91,39.05-15.77c-.07-.27-.13-.48-.18-.73q-42.8,12.48-85.61,25c-.34-.74-.68-1.54-1-2.33,3.06-1.79,5.91-4.26,9.17-5.12,7-1.79,14.33-2.2,21.27-4.19,10.63-3,21.15-6.61,31.5-10.56,9.78-3.71,19.37-8.05,28.9-12.47,3.07-1.46,5.67-4,8.55-6,1.28,1.39,2.67,4,3.9,3.85,4.42-.33,8.83-1.55,13.26-2.45-.06-.76-.06-1.55-.09-2.35-2.46-.1-5-.19-7.48-.28.86-2.12,1.73-4.18,2.84-6.91,8.38-1.21,17.47-2.52,26.52-3.86,0-.21,0-.45,0-.62l-16.16.25c-.06-1.07-.09-2.11-.1-3.19,9.28-1.44,18.61-2.95,27.88-4.42-13.5-.07-26.89,1.25-40.3,1.79-5.77.24-8.51,2.66-8.95,8.57-1-3-2-6-2.58-7.73l4.85-9.91c.24,2.3.44,4.57.73,7.52,8.93-1.56,17.29-2.63,25.48-4.44,12.36-2.74,24.57-6,36.83-9-1.6.55-3.21,1.17-5.59,2l35.64,1.3c-2.45-.94-4.58-1.77-6.74-2.61,0-.74.06-1.49.12-2.25q11-1.86,22.08-3.65a161.66,161.66,0,0,0-25.41.88c-4.27.47-8.38,2-12.56,3.07,1.8-4.34.65-6.22-3.85-5.49-8.69,1.45-17.4,3-26.17,4.24-3.14.44-6.31.38-9.49.54,0-.48-.05-.91-.08-1.33,4.56-2,9.15-3.94,13.75-5.9a10.43,10.43,0,0,1-.37-1q-18.89,6.28-37.73,12.48c-.17-.54-.36-1.08-.53-1.62,6.68-4.14,13.3-8.27,20-12.44a63.45,63.45,0,0,0-18.13,7.31c-2.84,1.73-4.88,5.14-7.26,7.77-1.91-.6-3.92-1.92-5.75-1.73-2.41.3-4.64,1.73-8.48,3.34,5.75-6.16,10.25-11,14.79-15.76-.41-.46-.8-.94-1.22-1.41-4,3.52-7.92,7.12-11.95,10.53s-8,6.61-12.18,9.69c-4.05,2.9-8.21,5.48-12.38,8.22a3.59,3.59,0,0,0-.16-.71Q463.4,115.4,478,98.75c-.31-.33-.64-.63-.94-1q-18.88,19.55-37.84,39c-.19-.24-.37-.47-.53-.71l21.83-32c-9.68,10.19-18.33,21.22-27.27,32-3.74,4.51-8,8.49-12,12.68-.3-.35-.6-.67-.9-1.06q10.3-20.43,20.6-40.85c-.47-.32-.88-.59-1.32-.86Q424.28,131.8,409,157.56a3.74,3.74,0,0,0-.37-.46c5.77-16.66,11.59-33.29,17.3-49.92-10.86,19-17.12,40.29-27.44,59.23,2.67-17.64,5.37-35.22,8.05-52.85-.68-.17-1.37-.27-2.11-.41-3.5,18.4-6.85,36.81-10.58,55.11-.57,2.82-2.84,5.25-4.34,7.85-.71-.36-1.46-.73-2.16-1,6.52-20.75,4.48-42,3.6-63.15-2.43,21.75-4.24,43.53-6.2,65.29a45.92,45.92,0,0,1-1.43,5.84c-.8-.14-1.6-.24-2.39-.36,5.39-22.19.57-43.9-1.89-65.67-.07,16.25-.24,32.47-.2,48.71,0,6.46.7,13,.52,19.45-.09,2.3-1.89,4.48-2.91,6.7-.49-.18-1-.36-1.49-.55,0-6.19.57-12.49-.25-18.52-2.08-14.5-4.94-28.85-7.41-43.25-.38-2.52-.38-5.11-.6-7.66,3.24,4.22,4-.95,5.87-1.89a49.35,49.35,0,0,0,6.33-4.2c0,.41.1.81.14,1.21,0-.44,0-.88,0-1.31l-.15.06c0-2.15,0-4.31,0-5.9,2.55-2,4.84-3.67,7-5.5,8.88-7.36,17.34-15.37,26.67-22,18.83-13.49,42.38-18.45,58-37.06C457.4,53,443.83,61,430.27,69c-.3-.41-.59-.87-.89-1.33,9.16-8.58,18.37-17.21,27.54-25.8l-.36-.41q-18.5,15.74-37,31.5c-.4-.48-.85-.91-1.27-1.34,4.14-5.23,8.26-10.5,12.41-15.72a5.16,5.16,0,0,1-.5-.51c-5.83,6.17-11.58,12.27-17.33,18.4-.26-.28-.51-.58-.82-.88,1.57-2.18,3.13-4.32,4.68-6.51a2.12,2.12,0,0,0-.4-.4c-2.24,2-4.52,4-6.78,6-.5-.75-1-1.46-1.53-2.24-7.7,10.51-15.24,20.83-22.84,31.17-.69-.6-1.36-1.11-2.1-1.68q8.43-13.85,16.84-27.74a10.72,10.72,0,0,0-5.74,4.14c-2.1,3.14-3.65,6.74-5.62,10-5,8.11-10.17,16.1-15.23,24.18-.47-.3-1-.58-1.44-.94,2.8-8,5.63-16,8.41-23.95-3.67,12.74-17.27,21.6-13.53,37.27-.89-1.59-1.78-3.22-2.77-5-1.41,2-2.67,3.6-4.64,6.28.76-14.2,11.39-24.57,7.14-38.6-3.73,12.82-7.05,25.71-11.32,38.21-2.18,6.47-.24,11.43,2.13,17.45,2.52-3.31,4.57-6.05,7.47-9.92a67.49,67.49,0,0,1,1.38,6.78c2,17.18,3.66,34.37,5.84,51.53.73,5.55.34,10.22-3.56,14.16l.06-.24-.07-.07a1.18,1.18,0,0,0,0,.17c-2.16,3.3-4.35,6.61-6.54,9.92l.1-.31c0-.05-.11-.1-.15-.15,0,.13,0,.26,0,.39-1.21,2.8-2.48,5.6-3.7,8.38h0c-1.29-4.25-2.54-8.53-3.85-12.8.81-2.1,1.62-4.19,2.43-6.3.76,2.32,1.52,4.64,2.36,6.93.49,1.34,1.77,2.3,2.72,3.38-1.64-30.59-17.58-55.33-29-83.18-1.84,15.82-2.09,30,7.53,42.17.86-1.32,1.72-2.67,3.42-5.24,3.75,10.13,7.14,19.26,10.46,28.45.73,2,1.42,4.09,2.1,6.15-.85,1.93-1.73,3.86-2.58,5.79-.83-2.63-1.64-5.26-2.58-7.84-3.36-9.19-7.24-18.09-10.92-27.16l.27.06c-.07-.07-.1-.15-.17-.23v0c-2.12-2.68-4.51-5.09-6.13-8.06-4.11-7.49-7.77-15.14-11.61-22.75-.33.19-.64.36-.9.52.91,11.6,1.85,23.17,2.78,34.78l-.45.06c-.07-.8-.14-1.6-.22-2.4a13.38,13.38,0,0,0-1,2.1c-7.49-10.06-15-20.18-22.5-30.25,4.94,12,4.59,26.21,14,36,.29,1.77.59,3.54.88,5.3l-4.45-5.16c-1.62-3.56-3.24-7.12-4.81-10.66-1.11-2.47-1.76-5.07-3-7.51a7.68,7.68,0,0,0-4-3.67c2.36,5.46,4.69,10.9,7,16.32-3.16-3.7-6.25-7.38-9.13-11.19l-.13-.19-4-7.31-.78.65c-4.32-6.25-8-12.13-10.22-15.52,1.63,3.58,3.39,7.47,5.22,11.49l-.34-.37c-.12,0-.23.16-.34.2.91,1.7,1.83,3.36,2.7,5.08-.29.19-.53.31-.79.48-3.65-5-7.32-9.94-11-14.92a4.86,4.86,0,0,1-.47.27c2.51,4.12,5,8.25,7.45,12.38l-1.21.68q-12.4-13.28-24.79-26.58a2.63,2.63,0,0,1-.36.24l18,21.39c-.29.24-.63.49-.94.73l-3.38-2.58-3.73-5.56c.89,1.48,1.64,3.06,2.45,4.59-8.07-6.16-16.18-12.33-24.06-18.32,6.35,9.82,16.49,16.12,26.4,22.71,5.48,10.92,10.45,22.11,20.34,28.5-5.88-8.74-12-17.91-18.13-27a105.81,105.81,0,0,1,12.19,9.25c3.29,3,6.32,6.16,9.32,9.4,3.4,7.47,6.88,15.15,10.43,22.92L306,199l-6.92-6.78c.15-1.37.37-2.74.52-4.12-.36,1.19-.72,2.38-1.09,3.57l-17-16.61,15.15,22.62c-.53,1.77-1,3.54-1.44,5.32q-3.43-4.44-6.88-8.84c0-2.42,0-4.83.08-7.24-.58,0-1.14,0-1.75,0-.09,1.59-.18,3.18-.27,4.78-1-1.25-1.94-2.54-2.94-3.77-5.82-7.27-11.82-14.35-17.78-21.47Q276,181.92,286.1,196.91c-.14,2.27-.26,4.53-.39,6.79l-8.22-5.92a138.92,138.92,0,0,0-5.42-18c.86,5.35,1.71,10.66,2.57,16l-7.94-5.7L261.26,177c-.43.15-.8.24-1.23.37,1.13,3.45,2.25,6.89,3.38,10.34l-.15-.11.19.25q2.82,8.63,5.64,17.26L261.39,198c-5.43-8.55-10.57-17.21-16.77-25.4q4.71,9.33,9.44,18.66L252.73,190c.54.53,1,1.12,1.56,1.68.94,1.86,1.88,3.72,2.82,5.58l-.57.43Q244.42,181.84,232.32,166l-.94.51q9.1,13.36,18.12,26.64c-.07.18-.16.32-.21.48-2.88-2.43-5.9-4.83-8.66-7.35s-5.58-5.47-8.25-8.29-5.3-5.87-8-8.82c-.41.24-.8.51-1.2.74l9.36,12.8c-2.84-1.67-4.39-3-6.32-3.52-1.44-.36-3.26.2-4.88.3-1.53-2.11-2.64-4.7-4.69-6.3a55.13,55.13,0,0,0-13.42-7.55c4.68,3.77,9.42,7.54,14.1,11.32-.21.31-.44.65-.69,1-9.48-4.61-19-9.28-28.46-13.9-.16.21-.28.42-.47.64q5.08,3,10.18,6c-.11.27-.2.58-.31.85-2.54-.55-5.12-1-7.6-1.76-6.87-2.13-13.66-4.41-20.47-6.68-3.49-1.13-4.75-.06-4,3.11a88.4,88.4,0,0,0-9.68-3.89,158.79,158.79,0,0,0-20.36-4.34c5.74,1.9,11.52,3.77,17.26,5.7-.09.5-.21,1-.32,1.53-1.84.25-3.72.48-5.86.76,9.52,1.42,18.74,2.84,29,4.39-1.8-.92-3-1.57-4.22-2.23,9.45,3.87,18.81,7.84,28.32,11.5,6.37,2.43,12.9,4.38,19.9,6.71.71-1.94,1.26-3.43,1.8-4.93.77,2.39,1.51,4.83,2.32,7.39-.78,1.08-2.05,2.93-3.38,4.75.62-4-1.18-6-5.79-7-10.76-2.34-21.32-5.2-32.3-7.13,7.29,2.37,14.55,4.73,21.85,7-.22.74-.42,1.43-.64,2.18-4.31-.89-8.66-1.72-13-2.57,0,.09-.11.27-.15.39,7.08,2.25,14.24,4.49,20.79,6.55.51,2,.86,3.5,1.22,5-2-.27-4.07-.61-6.12-.87-.14.49-.3,1-.44,1.55a101.76,101.76,0,0,0,10.34,3.57c1,.27,2.5-1.25,3.79-2,2,1.79,3.63,3.87,5.9,5.29,7,4.38,14,8.71,21.33,12.62,5.26,2.86,10.73,5.4,16.16,8,.38,1,.76,2.09,1.15,3.13L227.58,212.6a3.53,3.53,0,0,0-.23.46l23.82,13.43c.64,1.17,1.21,2.35,1.77,3.53l-17.45-7.24c-.13.25-.29.52-.46.8l-.83-.87a11.63,11.63,0,0,0,1.32,4.93,4.46,4.46,0,0,0-.32.64l.89.51c3.11,4.81,9.24,7.22,12.17,13l-4.68-1.74c-.18,1-.33,1.89-.49,2.8a4.87,4.87,0,0,1-.7-.74,10.45,10.45,0,0,0-1.49-3.26c-.42-1.68-.64-3.52-1.07-5.23,0,1.21,0,2.57-.08,3.81-4.06-4.06-11-5.06-15-9.21,3.87,3.41,7.67,6.85,11.43,10.26-.24.35-.47.74-.74,1.11-2.32-1.1-4.64-2.22-7-3.31-.21-.71-.4-1.41-.6-2.12a7.7,7.7,0,0,0-.59-1.18c-.41.06-.83.18-1.24.24.18.72.38,1.45.57,2.17-2.44-1.16-4.87-2.3-7.31-3.48-2.13-1-4.05-2.4-6.24-3.38a7.28,7.28,0,0,0-4.87-.06l18.08,9c-.35.61-.71,1.18-1.06,1.79l-4-1.48-.13-.26-.22.13c-6.18-2.31-12.35-4.63-18.65-7-.18.68-.33,1.27-.5,1.87l-6.09-.69a1.94,1.94,0,0,1-.19.36c1.6.58,3.18,1.24,4.74,1.85a6.83,6.83,0,0,1-.31.81c-5.41-1.18-10.81-2.37-16.22-3.51a2.11,2.11,0,0,0-.2.48c4,1.31,8.12,2.64,12.21,4-.22.42-.4.87-.56,1.25q-16.38-1.54-32.76-3.09c0,.1-.06.3-.1.4q12.46,1.82,24.9,3.64a7.07,7.07,0,0,0-.27,1.11l-33.19,2.64a41.83,41.83,0,0,0,11.49,1.46c4.88,5.51,10.08,10.73,15.5,15.77-.26-.19-.57-.35-.83-.54l2.38,1.91c3.75,3.43,7.49,6.87,11.44,10.14.19-.16.36-.32.55-.49l3,2.4-.73.72c2.55,2,5.1,4,7.64,6-1.09-.23-2.24-.38-3.29-.7-1.66-.49-3.32-1-5-1.49-13.6-8.85-27-18-40.43-27a9.93,9.93,0,0,0-3.65-1.52q17.59,13,35.18,25.93c-1.41-.4-2.88-.72-4.31-1.1.2-.26.4-.52.59-.82q-7.26-3.82-14.46-7.68c-.19.24-.36.41-.51.63l12.51,7.4c-2.06-.53-4.08-1.15-6.19-1.59l6.81,2.86c-2.9-1.09-5.82-2.11-8.65-3.34-5.32-2.31-10.42-5.06-15.66-7.54-5.38-2.63-10.79-5.19-16.43-7.4,5.6,3.21,11.19,6.38,16.79,9.58-.08.3-.19.55-.3.86-1.94-.35-3.92-.59-5.92-.89-.09.13-.14.27-.23.43,8.86,3,17.7,6.08,26.84,9.21-.86,1-1.07,1.43-1.24,1.42-2.35-.17-4.7-.38-7-.57l-2.1-.42-9-3.48c-.06.12-.13.22-.19.33-11.24-3.67-22.54-7.31-33.78-11-.16.15-.24.32-.41.48,2.47.9,5.71,1.21,7.14,2.82,5.91,6.53,15.6,4.63,22.63,8.4,1.19.64,2.94.34,4.67-.23l3.73,1.62-.4-.08c-.12.29-.25.59-.38.91-4.5-.35-9-.64-13.49-.75-5.07-.13-10.17,1.7-15.17,1.7-7,0-13.92-.88-20.9-1.36-1.71-.14-3.41-.2-5.13-.3,0,.32-.07.67-.11,1,7.13.89,14.2,1.75,21.31,2.6,0,.37.06.67.1,1a13.91,13.91,0,0,1-3.2.78c-3.17.15-6.38-.21-9.56.08A187.47,187.47,0,0,0,90,283.59c.91.22,1.78.44,2.67.68a4,4,0,0,1,.2.7c-2.66.38-5.34.82-8,1.28,0,.2.06.41.06.64h8.53c.07.33.17.67.23,1-7.38,1.73-14.74,3.46-22.14,5.17.1.3.13.59.23.9,4.56-.78,9.14-1.63,13.73-2.46.11.34.3.68.44,1C75.5,296.65,65,300.71,54.61,304.82a4.38,4.38,0,0,1-.12.85c1.37,0,2.83.3,3.92-.16" transform="translate(-54.5 -41.42)" style="fill:none"/><path d="M366.6,383.32a.9.9,0,0,1,0,.09h0l.06-.08c-.05,0-.08,0-.12,0" transform="translate(-54.5 -41.42)" style="fill:none"/><path d="M372.63,333.64v0h0Z" transform="translate(-54.5 -41.42)" style="fill:none"/><path d="M341.72,394.54h0c-.36,1-.85,2-1.23,3h0c2.48,1.6,5,3.16,7.48,4.73.24-.1.51-.16.71-.28a18.06,18.06,0,0,0-1.64-2.33c-1.72-1.74-3.56-3.44-5.34-5.13v0l0,0Z" transform="translate(-54.5 -41.42)" style="fill:none"/><path d="M359,394.08h0l0,0,0,0-.07.07" transform="translate(-54.5 -41.42)" style="fill:none"/><path d="M419.71,412c-6.45-7.72-7.81-8.73-11-8.05.93,1.45,1.77,2.82,3.13,5-1.94-.54-3.17-.91-4.36-1.27-7.78-2.28-15.57-4.67-23.36-6.91a6.06,6.06,0,0,0-2.61.29c12,6.43,24.5,8.5,37,11.05a5.44,5.44,0,0,0,1.2-.11" transform="translate(-54.5 -41.42)" style="fill:none"/><path d="M414.4,403.69c-.13.25-.24.52-.37.81,2.7,2.79,7.38,4.1,8.62,8.71,5.43-.18,10.21,3.63,15.37,6.56-6-4.61-12.2-8.79-18.47-13-1.65-1.11-3.41-2.09-5.15-3.09" transform="translate(-54.5 -41.42)" style="fill:none"/><path d="M436,402.94a2.68,2.68,0,0,0,.08-.54c-3.83-1.52-7.62-3.08-11.45-4.63-.06.33-.17.65-.26,1,3.91,1.38,7.77,2.79,11.62,4.18" transform="translate(-54.5 -41.42)" style="fill:none"/><polygon points="318.12 292.25 318.13 292.25 318.13 292.24 318.12 292.25" style="fill:none"/><path d="M349.49,407.81c-.28,3,2,3.68,4,4.57.3-2.35-1.53-3.41-4-4.57" transform="translate(-54.5 -41.42)" style="fill:none"/><path d="M319.13,558c5-72.48,2.63-157.41-3.68-184.05s-14,14.85-14,14.85,11.26,152.68.73,230.1c-7,51.88,11.89,11.55,16.91-60.9" transform="translate(-54.5 -41.42)" style="fill:none"/></g></g></g></g></g></g></svg>