<svg id="Layer_1" data-name="Layer 1" xmlns="http://www.w3.org/2000/svg" viewBox="0 0 360 216"><title>IITC Logo</title><path d="M179.28,120.59c-3.65-.27-7-.42-10.19-.42-2.91,0-6.25.15-10,.42V118h1.69q5,0,5-6V77.09q0-2.27-1.26-3a6.55,6.55,0,0,0-3.28-.59h-2.19V70.69c3.76.28,7.1.42,10,.42q4.72,0,10.19-.42v2.7a14.05,14.05,0,0,1-1.69.07h-1q-4.12.1-4.12,3.8V110a17.38,17.38,0,0,0,.59,5.4,3.93,3.93,0,0,0,4,2.61h2.19Z" style="fill:#006db6"/><path d="M211.51,120.59c-3.65-.27-7-.42-10.18-.42-2.92,0-6.26.15-10,.42V118H193q5.05,0,5-6V77.09c0-1.51-.42-2.52-1.26-3a6.55,6.55,0,0,0-3.28-.59h-2.19V70.69q5.64.42,10,.42,4.71,0,10.18-.42v2.7a14,14,0,0,1-1.68.07h-1c-2.75.07-4.12,1.33-4.12,3.8V110a17.44,17.44,0,0,0,.59,5.4,3.93,3.93,0,0,0,4,2.61h2.19Z" style="fill:#006db6"/><path d="M261.15,70.4l-.58,12.28h-2.19q0-7.24-4.62-7.24h-9.51v35.43c0,3.25.43,5.38,1.31,6.35s2.48,1.47,4.84,1.47v2.19q-5.05-.43-9.93-.43t-10.26.43V118.7c2.29,0,3.9-.5,4.79-1.51q2-2.11,2-8.58V75.45h-9.68c-1.51,0-2.77.93-3.78,2.77a9.6,9.6,0,0,0-1.19,4.46h-2.26l-.51-12.28q11,.42,20.62.42T261.15,70.4Z" style="fill:#006db6"/><path d="M316.52,113.87l-1.68,3.95q-.25.67-5.47,2.28A42.75,42.75,0,0,1,297,122q-20,0-26.51-20.53a35.67,35.67,0,0,1-.59-6.14q0-18.94,17.42-24.74a33.51,33.51,0,0,1,10.35-1.35q7.49,0,18.26,3L314.25,84h-2.18a16.78,16.78,0,0,0,.25-1.92q0-3.59-3.55-6.35A15.19,15.19,0,0,0,299.58,73h-2.2a19.27,19.27,0,0,0-13.66,5.29q-6.24,5.72-6.24,15.21c0,.17,0,.47.08.91a8.93,8.93,0,0,1,.08,1q1.19,11.59,8.27,17.39a22.07,22.07,0,0,0,14.51,4.87,25.62,25.62,0,0,0,15-4.29Z" style="fill:#006db6"/><path d="M74.61,48.2l1.14,1.27-1-1.38Z" style="fill:#6ec829"/><path d="M92.58,43.44c-1.56,2.89-1.66,3.41-.84,4.25l1.21-1.57.37,1.43c.62,2.59,1.22,5.18,1.87,7.76.07.28.38.5.59.74.08-4.34-1.51-8.29-2.93-12.28C92.8,43.66,92.68,43.57,92.58,43.44Z" style="fill:#6ec829"/><path d="M78.07,60.43h0l0,0,0,0Z" style="fill:#6ec829"/><path d="M92.46,42.41c-1.06-1.57-.59-3.46-.5-5.36-.55,2.36-.88,4.72-1.21,7.09-.09.64-.11,1.28-.17,1.92H91C91.45,44.91,91.06,43.38,92.46,42.41Z" style="fill:#6ec829"/><path d="M120.87,64.68a12.24,12.24,0,0,0-3.72,2c.06.1.12.19.18.29l-1.18.72.14.3,2.9-1.62-.13-.21.82-.48.1.15c1.11-.67,2.19-1.39,3.26-2.11l.61-.35-.2.09a59.45,59.45,0,0,0,4.78-3.59Z" style="fill:#6ec829"/><path d="M85.86,48.67q-1.14-3.53-2.3-7.08c.68,2.4.59,5,1.83,7.27Z" style="fill:#6ec829"/><path d="M87,43.79c-.22-1.32-.44-2.64-.67-3.94l-.2,0q.24,2,.48,4Z" style="fill:#6ec829"/><path d="M122.81,57.3,120.23,60l.31.28,2.36-2.87Z" style="fill:#6ec829"/><path d="M89,38.43h-.19q0,1.72,0,3.44h.35C89.09,40.72,89,39.58,89,38.43Z" style="fill:#6ec829"/><path d="M117.54,59.12l-.18.22,0,.06.06,0Z" style="fill:#6ec829"/><path d="M118.94,56.73l-1.4,2.39L119.27,57Z" style="fill:#6ec829"/><path d="M115.5,56.06l-1,1.38,1.13-1.26Z" style="fill:#6ec829"/><path d="M124,72.61c-3.15-.91-3.68-.9-4.33.08l1.8.84-1.34.67c-2.39,1.15-4.8,2.29-7.18,3.47-.26.13-.41.48-.6.74,4.26-.85,7.78-3.24,11.38-5.47A1.6,1.6,0,0,0,124,72.61Z" style="fill:#6ec829"/><path d="M121,71.21l.07.37c1.24.24,2.66-.48,3.9.69,1.31-1.38,3.27-1.31,5.14-1.64-2.43,0-4.81.14-7.2.32C122.24,71,121.61,71.12,121,71.21Z" style="fill:#6ec829"/><path d="M122.43,67.2l3.72-1.48-.07-.18-3.78,1.31C122.34,67,122.38,67.08,122.43,67.2Z" style="fill:#6ec829"/><path d="M105.79,88.38c.54,1.05,1.25.71,1.93.49C107.31,88,106.65,88.15,105.79,88.38Z" style="fill:#6ec829"/><polygon points="78.84 90.92 78.83 90.92 78.83 90.92 78.84 90.92" style="fill:#6ec829"/><path d="M70.4,89.51h0l0,0Z" style="fill:#6ec829"/><path d="M62.9,91.24l-1.08.12,1-1.15c-.7-.32-1.06-.12-3,1.56a.61.61,0,0,0,.26.08c3-.06,6,0,9.17-1.11-.19-.07-.38-.22-.6-.2C66.76,90.76,64.82,91,62.9,91.24Z" style="fill:#6ec829"/><path d="M61.59,90.1a1.76,1.76,0,0,1,0-.23c-.46.19-.92.36-1.37.57-1.68.78-3.34,1.57-5,2.49,1.36-.51,2.68-1.27,3.92-1C59.64,90.82,60.8,90.7,61.59,90.1Z" style="fill:#6ec829"/><polygon points="78.95 91.76 78.95 91.76 78.95 91.77 78.95 91.76" style="fill:#6ec829"/><path d="M76.8,92.53l.14.1,2-.87-.12-.83h0c-.51.36-1,.71-1.53,1.09A3.71,3.71,0,0,0,76.8,92.53Z" style="fill:#6ec829"/><path d="M59.52,87.88l-2.91.65c0,.05,0,.09,0,.14l2.92-.54Z" style="fill:#6ec829"/><path d="M76.29,94c-.65.19-1.13.37-1.19,1C75.62,94.85,76.19,94.79,76.29,94Z" style="fill:#6ec829"/><path d="M75.1,95h0v0Z" style="fill:#6ec829"/><path d="M35.34,74.66a49.24,49.24,0,0,0,4.75-1.73c5.61-2.6,11.61-3.21,17.84-2.77l.62.08.39.38h-.1c-.7,0-1.39-.06-2.06-.12s-1.39-.15-2.08-.21a2,2,0,0,0-.1.23l.35.07c-.74-.15-1.47-.3-2.22-.42a12.35,12.35,0,0,1,3.22,1.22,5,5,0,0,0-.63.55A4.77,4.77,0,0,0,54,71.65a10.78,10.78,0,0,0-1.7.28l-2.53-.26c1.12.85,2.49.74,3.89.79l-3.17.82a6.91,6.91,0,0,1-1.64.08l1.13,0-1.09.28v.12l2-.37H51l0,.12c-.42.21-.83.44-1.26.62l-1.38.21c-.57.08-1.16.09-1.73.19a1.82,1.82,0,0,0-.95.49l2.78-.38-2.41,1a1.62,1.62,0,0,0-.24.12l-.91.19.21.3-1.29.53,0,.07,1.2-.25,0,.07a8.81,8.81,0,0,0-1.12.39l-.3.15L41.48,78a.16.16,0,0,0,0,.08l1.17-.29c-.7.35-1.4.66-2.1,1.07l3.11-1.23.13.23-.08.08-5.92,2.59,0,.06,5.26-2-.08.07.18-.1.12.17L37.4,82.42c3.57-1,5.83-3.61,8.93-5.24,1.53-.8,3.19-1.44,4.79-2.15.39-.18.77-.37,1.22-.59l.53.19c-1.08.53-2.17,1.06-3.24,1.65l3.67-1.47.36.18,0,.06-1.84,1h0l-.32.17a.75.75,0,0,1,0,.08l.45-.18c2.77,1.15,5.48,2.41,8.68,2.64v.32a5.9,5.9,0,0,1-1.36.13c-2.75-.46-5.48-1-8.22-1.46,0,.09-.06.19-.09.28l7.74,1.65c-3.27.32-6.6,0-9.91.4l8,.38,0,.06-9.07,1.17c0,.07,0,.13,0,.2l7-.47.08.16c-.85.29-1.67.61-2.53.84-2.08.55-4.16,1.06-6.2,1.73l5.83-1.07.06.1-7.85,2.68.07.16,6.49-1.9.09.06c-.65.36-1.29.76-2,1.1s-1.41.68-2.14,1-1.49.63-2.23.93l.11.22,3.14-1a6.61,6.61,0,0,0-1,.87c-.14.21-.1.52-.14.79a7.44,7.44,0,0,0-1.55.51,10.14,10.14,0,0,0-2.2,1.85l3-1.82.18.14-4.23,4,.12.08,1.73-1.38.17.08c-.23.37-.43.77-.71,1.13-.76,1-1.54,2-2.33,3-.4.51-.22.75.49.74A14.21,14.21,0,0,0,40,97.76a22,22,0,0,0-1.83,3.06l2-2.52.32.1c0,.31-.07.61-.1,1l2.22-4.42-.66.59c1.23-1.35,2.49-2.69,3.69-4.06.8-.91,1.51-1.88,2.32-2.89l-1-.46L48.6,88l.88.7a1.37,1.37,0,0,0-1.77.67c-1,1.61-2,3.19-2.95,4.84L47.25,91l.43.17-1.12,2,.08,0,2.31-3h1.13c-.16.31-.31.62-.47.93l.33.13a19.11,19.11,0,0,0,1.22-1.5c.09-.15-.16-.45-.26-.67a10.63,10.63,0,0,0,1.39-.74c.84-.64,1.65-1.31,2.46-2l1,.07L54.09,88l-1,.12a2.08,2.08,0,0,0-.7.23l1.47-.13.08.06.09-.07,6.2-.54,0,.11.41.06c-.94.33-1.88.68-2.83,1s-2.05.54-3.07.81-2.11.56-3.16.92L55,89.88a1.19,1.19,0,0,0,0,.13l-1,.56,0,.07L59,88.8c0,.22,0,.29,0,.31l-1.22.83-1.88.64a.38.38,0,0,0,0,.06l-6.06,2.41v.1a4,4,0,0,1,1.33-.45c1.55.16,2.75-1.16,4.18-1.48a1.32,1.32,0,0,0,.65-.55l1.23-.37c-.87.58-1.76,1.15-2.6,1.77s-1.29,1.35-2,1.91c-1,.79-2.12,1.46-3.18,2.18l-.77.54s.06.09.09.14l3.37-2.07.12.11a3.27,3.27,0,0,1-.39.46c-.45.37-1,.69-1.38,1.07a38,38,0,0,0-3.3,3.31l.46-.22.11.06-1,1.06.08.08,1.24-1a.64.64,0,0,0,.14.11L45.42,103l.13.09,1.74-1.85.18.07c-1.09,1.69-2.19,3.38-3.28,5.07l.08.1a2.61,2.61,0,0,0,.56-.46c.87-1.3,1.82-2.59,2.54-3.94,2.67-5,6.8-8.92,11.71-12.2l.51-.31c3.63.24,7,1,10.83-.11a1.4,1.4,0,0,0-.49-.19c-.66,0-1.33,0-2,0-1.27,0-2.53,0-3.94,0l.62-.65a5.48,5.48,0,0,0-3.69.15c.22-.13.43-.28.65-.39a5.27,5.27,0,0,1,.76-.31c.36,0,.74.09,1.1.15a6.73,6.73,0,0,1,1.18.4h0v0c1.25.06,2.5.15,3.77.16,1,0,2.06-.08,3.09-.12h0c-.13-.16-.22-.4-.41-.46a4.79,4.79,0,0,0-.9,0l-3.8-.31c0-.09,0-.19.05-.29a5.37,5.37,0,0,1,1.24-.23c.65,0,1.26.24,1.91.32.86.1,1.74.13,2.66.18l-.74.83h0l-1,.85,0,0-1.17,1.25h0a2.55,2.55,0,0,1-1.76,1.06c-2.29.47-4.56,1-6.85,1.53-.23.06-.48.06-.91.13l1.14-1.36a3.39,3.39,0,0,0-2.33.5c-1.54,1.08-3.15,2.05-4.75,3.07,1.92-.08,3-1.85,4.89-2.57l-.73.85.71.12c-2.12.23-3,2.3-4.59,3.31l3-2.09.15.13-2.84,2.94c-.39.38-.82.73-1.19,1.13a1.65,1.65,0,0,0-.42.89l3.27-3.3.26.19-3.59,4.19.32.09c-.21.37-.43.74-.65,1.1l.06,0,.76-.85.13.05-2,3,.08,0,1.8-2.22.19.1L50,108.69l.06,0,2.8-4.53.19.06-2.26,6c2.11-2.74,2.27-5.86,3.64-8.78.68-1.44,1.56-2.84,2.33-4.26.19-.35.36-.7.57-1.11l.77-.26v0l.17-.06-.16,0a7.94,7.94,0,0,0,.41-1c.09-.26.74-.58.13-.8.34-.09.68-.2,1-.26,1.93-.33,3.86-.61,5.8-1a23.42,23.42,0,0,0,2.42-.78l.11.16a3.52,3.52,0,0,1-.82.65c-.84.31-1.7.5-2.54.79l-6.35,2.16c2.9-.65,5.82-1,8.6-2.64l.1.27a5.85,5.85,0,0,1-.73.43c-2.8,1.2-5.61,2.38-8.4,3.63,2.79-.82,5.6-1.5,8.17-3.21l.18.22a5.23,5.23,0,0,1-.94.88c-2.32,1.26-4.65,2.49-7,3.73,0,.07.07.16.1.24l6.72-3.32c-2.25,2.11-4.9,3.81-7.16,6l6.16-4.33.07,0-6.11,6,.14.13,4.9-4.33.16.07c-.46.68-.9,1.38-1.41,2-1.22,1.58-2.48,3.13-3.61,4.77l3.73-4.1.1,0-4.31,6.39.15.07,3.75-5.06h.09c-.27.63-.52,1.27-.82,1.89s-.66,1.29-1,1.93-.75,1.29-1.13,1.93l.2.09,1.75-2.51a5.87,5.87,0,0,0-.26,1.2c0,.24.23.42.35.64a6.23,6.23,0,0,0-.87,1.24,9.13,9.13,0,0,0-.58,2.55q.61-1.5,1.21-3h.23q-.43,2.61-.85,5.21h.14c.16-.65.32-1.3.48-2l.18,0c0,.39.12.79.13,1.2,0,1.13,0,2.28,0,3.42,0,.59.27.64.79.23a13,13,0,0,0-.15,1.69A20.28,20.28,0,0,0,62,122.6c0-1,0-1.92,0-2.89l.3-.11c.15.24.31.46.48.72-.29-1.43-.59-2.81-.9-4.34-.07.33-.11.55-.16.78.14-1.64.31-3.3.41-4.93.07-1.09,0-2.17.06-3.35l-1,.24,1.19-1,1.06,0a1.27,1.27,0,0,0-.93,1.48c.21,1.68.31,3.39.6,5.06v-3.64l.41-.13c.1.67.2,1.34.3,2l.08,0c0-1.18,0-2.36,0-3.44l.84-.66c.06.3.12.61.19.92l.31-.1a13.1,13.1,0,0,0,0-1.74c0-.15-.37-.21-.58-.31a8.31,8.31,0,0,0,.61-1.32c.38-1.37.75-2.74,1-4.11s.56-2.91.73-4.36c.12-.94,0-1.86.11-2.81a5.85,5.85,0,0,1,.48-1.36l.33,0q-.76,5.83-1.5,11.67h.1c.41-1.84.83-3.68,1.25-5.52l.35,0c-.11,1.17-.22,2.33-.33,3.49l.19,0c.15-.57.3-1.13.5-1.9.06.62.11,1,.15,1.44l.17,0c.29-1.28.56-2.56.88-3.85a6.71,6.71,0,0,1,.51-1.11l0-.11h0a8.16,8.16,0,0,1,.26-1.07c0-.14.26-.26.4-.39.09.12.24.23.26.37a1,1,0,0,1-.06.68c-.19.28-.39.87-.86.41v0l0,.07c-.06.2-.13.4-.19.6l.9-.39c0,.31.1.61.12.92,0,.09-.16.24-.13.31.62,1.19-.57,1.7-1.4,2.36l1.63-.86c.17-1.14.36-2.37.55-3.61h0a2.14,2.14,0,0,1,1.41-2c.22-.08.5.07.75.11-.13.26-.17.62-.37.78-.56.41-1.19.75-1.79,1.12h0a1.87,1.87,0,0,0,.65,0c.41-.16.79-.44,1.2-.59.19-.07.42,0,.64.08-.11.2-.17.47-.35.6-.54.4-1.12.74-1.67,1.12a5.55,5.55,0,0,0-.52.48l.17.2,3-2.13c.07-.45.16-.9.24-1.35-.4-.69-.28-1.13.38-1.51-.1-.06-.29-.12-.28-.17C75.62,92,75,91.08,74.86,90c.45.81.9,1.63,1.37,2.51l-.58.66,1.15.18c-.05-.49-.11-1-.12-1.46s.07-.79.1-1.19l1.51-.6c-.08.79-1.47.52-1.27,1.41l1.83-.58c.07-.33.14-.67.2-1l.19.49,1.2-.79-.25-.29a11.92,11.92,0,0,0,1.93-1.14,7.23,7.23,0,0,0,1.09-1.55,1.88,1.88,0,0,1,.48-2.08,4,4,0,0,1,.54-.29l-.29.92.21.1.45-.39a4.15,4.15,0,0,1,.51-.43,1.06,1.06,0,0,1,.3-.13v0c0,.29-.07.57-.12.86l.29.12.65-.92.21.1a1.11,1.11,0,0,1,.25.3,1.06,1.06,0,0,0,.1-.14l.79.37-.06.18L86,84.75a20,20,0,0,1,1.76,1.07,1.12,1.12,0,0,1,0,1.47,4.57,4.57,0,0,0,.61,1.19,9,9,0,0,0,1.36,1l-.26.16.84.69.23-.29c0,.23,0,.46,0,.7l1.38.64c.31-.57-.86-.58-.78-1.13l1.11.61a6.14,6.14,0,0,1-.13.8c-.09.33-.23.64-.34,1l1,0-.37-.52,1.54-1.49c-.12-.74-.06-.81.73-.86l-.73.85c-.3.72-1,1.28-.84,2.19,0,0-.16.05-.25.07.47.34.49.65,0,1.06h0s0,0,0,0v0c0,.31,0,.63,0,.94l2,1.83a1.16,1.16,0,0,0,.17-.12,3,3,0,0,0-.33-.38c-.38-.33-.79-.64-1.15-1-.11-.11-.11-.3-.17-.44a1.39,1.39,0,0,1,.53,0c.3.16.57.4.87.57a1.67,1.67,0,0,0,.5.11h0c-.42-.33-.87-.64-1.25-1-.14-.13-.11-.38-.16-.57a1.65,1.65,0,0,1,.63,0,1.34,1.34,0,0,1,.78,1.54l0,0h0c-.06.86-.13,1.72-.19,2.5l1.17.8c-.55-.56-1.42-1.07-.71-1.77,0,0-.07-.16-.05-.22.07-.21.17-.41.25-.61l.67.39c0-.15,0-.29,0-.43l0,0v0c-.47.24-.53-.18-.63-.39a.62.62,0,0,1,.07-.47c0-.1.18-.14.27-.21.09.1.24.22.26.31a6.08,6.08,0,0,1,0,.76h0v.08a3.72,3.72,0,0,1,.21.82c0,.91,0,1.8,0,2.71l.14,0,.37-.95c0,.55,0,.94.06,1.34l.14,0c.13-.79.24-1.59.35-2.39l.28.06c0,1.3,0,2.59,0,3.88h.07q.42-4,.85-8l.27,0a3.82,3.82,0,0,1,.15,1c-.09.64-.34,1.25-.41,1.9a30.12,30.12,0,0,0-.17,3c0,1,0,1.93.1,2.9a5.27,5.27,0,0,0,.26,1c-.18,0-.48,0-.52.13a7.75,7.75,0,0,0-.27,1.18l.24.11c.11-.19.22-.39.31-.59l.56.56c-.2.72-.43,1.51-.64,2.31h.06l.59-1.3.32.14q-.32,1.22-.64,2.45c.53-1.08.91-2.22,1.38-3.31.2-.47.06-.81-.5-1.12l.85.16.79.86-.76-.31c-.19.8-.41,1.51-.54,2.26-.2,1.11-.36,2.25-.54,3.37,0-.16,0-.31,0-.54l-1.5,2.79.51-.42.23.11-.5,1.95a12,12,0,0,0,.89-2.08,6.6,6.6,0,0,0,.19-1.15c.36.35.58.34.68-.05.2-.76.39-1.54.59-2.3a6.4,6.4,0,0,1,.32-.78l.13,0c0,.46,0,.92,0,1.38l.11,0c.07-1.2.15-2.4.23-3.61l.18,0c.14.73.3,1.46.45,2.19a5.27,5.27,0,0,0,0-1.8,4.92,4.92,0,0,0-.49-1c.14-.11.34-.22.39-.37a3,3,0,0,0,0-.84l1,1.93.19,0c-.19-.49-.4-1-.57-1.46s-.34-1-.48-1.44-.23-.92-.33-1.37h.07l2.14,3.91.13,0c-.79-1.63-1.58-3.25-2.36-4.88h.09l2.3,3.26c-.63-1.25-1.38-2.47-2.08-3.7-.3-.51-.53-1-.78-1.56l.14,0,3.2,3.58.13-.07-3.87-4.88h.06l4.22,3.75c-1.44-1.77-3.29-3.28-4.73-5l4.85,3.14.13-.15c-1.67-1.15-3.34-2.29-5-3.46a3.48,3.48,0,0,1-.6-.72l.19-.12a23.62,23.62,0,0,0,6,3.27c-2-1.21-4.09-2.4-6.14-3.58a4.53,4.53,0,0,1-.52-.38,1.74,1.74,0,0,1,.13-.17c2,1.47,4.24,2.11,6.47,2.94l-4.73-2.31c-.64-.31-1.3-.56-1.93-.88-.22-.11-.36-.36-.55-.55L99.2,93a18.73,18.73,0,0,0,1.81.85c1.5.52,3,1,4.52,1.45.26.09.51.21.77.32-.53.06-.06.37,0,.56a4.74,4.74,0,0,0,.17.7l-.14-.05.15.07v0l.58.29c.1.31.18.56.26.82.38,1.06.85,2.11,1.13,3.18.6,2.14.18,4.27,1.4,6.39-.25-1.42-.51-2.88-.77-4.35h.17l1.46,3.42h.06c-.56-1.48-1.11-3-1.66-4.46l.17,0,1.06,1.74h.08l-1.14-2.26.12,0,.47.69h.06c-.11-.28-.23-.56-.33-.83l.28,0-2.17-3.3.24-.09,2.07,2.67a1,1,0,0,0-.19-.66c-.23-.32-.51-.61-.76-.93-.6-.78-1.19-1.57-1.77-2.36l.14-.07,2,1.81c-1.1-.9-1.45-2.41-3.12-2.85l.6,0-.44-.67c1.36.73,2,2.08,3.5,2.4-1.1-.91-2.25-1.78-3.3-2.71a3,3,0,0,0-1.79-.66l.68,1.07c-.34-.1-.54-.14-.73-.21-1.75-.65-3.5-1.33-5.26-2a1.94,1.94,0,0,1-1.25-1l0,0h0l-.71-1h0l-.68-.7h0l-.46-.65c.76.08,1.48.17,2.18.23.54,0,1.07,0,1.6,0a5,5,0,0,1,1,.32c0,.07,0,.14,0,.21l-3.13-.31a4.55,4.55,0,0,0-.73-.09c-.16,0-.27.16-.41.25h0c.82.17,1.65.37,2.47.5,1,.16,2.05.28,3.08.41l0,0h0a6.64,6.64,0,0,1,1-.12l.84,0a4.66,4.66,0,0,1,.63.32c.16.11.3.24.46.35a5.24,5.24,0,0,0-3-.6l.39.52-3.18-.5c-.54-.09-1.07-.21-1.61-.29a1.46,1.46,0,0,0-.45.06c2.89,1.24,5.77,1.23,8.76,1.56l.36.27c3.38,2.87,6,6,7.31,9.79a29.36,29.36,0,0,0,1.36,3,2.11,2.11,0,0,0,.36.38l.09-.06-1.76-3.85.15,0,1.08,1.48.12,0L113.84,101l.13-.06.84.81.08,0-.65-.85.09,0,.33.21a24.31,24.31,0,0,0-2.08-2.67c-.28-.32-.62-.61-.92-.92a1.79,1.79,0,0,1-.23-.36l.11-.06,2.37,1.84.1-.08-.54-.47c-.73-.63-1.51-1.23-2.19-1.89-.49-.48-.8-1.09-1.31-1.56s-1.19-1-1.79-1.55l.94.42a1,1,0,0,0,.43.46c1.09.41,1.84,1.46,3.11,1.56a3.34,3.34,0,0,1,1,.48.42.42,0,0,0,0-.07l-4.48-2.45,0,0-1.4-.69-.84-.73s0-.06,0-.22L110.6,94a.13.13,0,0,0,0-.05l-.68-.51.07-.08,2.66.93c-.79-.39-1.59-.72-2.39-1.05s-1.58-.61-2.34-1-1.41-.69-2.12-1l.34,0a.44.44,0,0,0,0-.07l6.21,1.54a1.74,1.74,0,0,0-.52-.24c-2.52-.71-5-1.4-7.57-2.16a7.83,7.83,0,0,1-1.62-.63v-.06l3.88-.37c-1.07-.13-2.15-.59-3.2-.65a.43.43,0,0,0,.12-.24l-1.15.09.07.15.36,0a2.88,2.88,0,0,0-.36,0l1.74.38a3.24,3.24,0,0,1-2.69-.49c1.18-.18,2.25-.39,3.35-.52s2.2-.12,2.76-.15l-2.47-.23.13-.12a4.66,4.66,0,0,0,1.38-.41,3.71,3.71,0,0,0-.92,0l.43-.39h0l.63,0a4.08,4.08,0,0,1-.21.38,1.81,1.81,0,0,1,.24,0h-.08l.1,0c.76.11,1.06.64,1,1.78h0l0,0v0l.94,1.63-2-.35a9.11,9.11,0,0,0-2.45-.57v.15l-.79-.15c0,.05,0,.1,0,.16l1.92.43s0-.08,0-.11l.55.12s0,.05,0,.08c.69.14,1.38.25,2.07.36l.56.12-.18-.05c1,.16,2.08.28,3.11.36l1.88.29c0-.13.05-.27.08-.4a4.83,4.83,0,0,0-.86-.28c-.85-.11-1.71-.15-2.56-.3-.27-.05-.49-.38-.72-.59.24-.21.44-.54.71-.6.56-.1,1.16,0,1.73-.08a2.29,2.29,0,0,0,.78-.43v0h0a24.55,24.55,0,0,1-2.71-.2s-.08-.07-.12-.09l.25,0a.51.51,0,0,1,0-.06h-.34a6.55,6.55,0,0,1-.62-.66c.27-.25.51-.66.82-.73a2.45,2.45,0,0,1,2.73,1.75h0l0,0,2.56,4.7,2.38,0c-1.34-.3-3-.11-2.91-2.26,0-.11-.27-.19-.31-.33-.14-.46-.25-.93-.37-1.39l1.28-.16-.52-.69-.1-.09v0c-.32,1-.88.32-1.25.08a1.63,1.63,0,0,1-.44-.92,2,2,0,0,1,.13-.73c.22.08.54.08.68.25a13.4,13.4,0,0,1,.89,1.32v0l.1.14a7.68,7.68,0,0,1,1.17,1.17c1.06,1.56,2.06,3.17,3.09,4.76l.23-.1-.6-2.16,1.59,2.31.24-.13-2.24-4.67.42-.24,4.41,6.83.13-.06-6.25-12,1,.46c.18.47.36.94.59,1.38,1,1.91,2,3.77,3.17,5.6s2.23,3.38,3.4,5A11.27,11.27,0,0,0,126.38,98c-.18.3-.58.67-.52.9a24.58,24.58,0,0,0,1,2.43l.41-.1c-.09-.48-.18-1-.26-1.44l1.34.28c.56,1.55,1.17,3.23,1.79,4.9l.11,0-.72-3.07.57-.15q1,2.58,1.93,5.16c-.55-2.59-1.33-5.09-2-7.61-.28-1.1-.83-1.52-1.88-1.38l1.27-.79,1.94.55-1.29.42c.65,1.65,1.18,3.2,1.84,4.69,1,2.24,2.07,4.45,3.11,6.67l-.6-1c.45,2.42.85,4.6,1.26,6.85.06-.51.12-.95.18-1.39l.41-.07c.52,1.36,1,2.71,1.56,4.08a34.1,34.1,0,0,0-1.21-4.81,18.85,18.85,0,0,0-1.06-2.29c.84.18,1.12-.11.8-.93q-.92-2.42-1.83-4.82c-.21-.58-.32-1.19-.49-1.79l.23-.08,1.61,2.39.17-.1q-1.89-3.35-3.76-6.71l.26-.15,3,3.32a12.5,12.5,0,0,0-2-3.17,7.31,7.31,0,0,0-1.67-1.09,3.2,3.2,0,0,0,.06-1.16A7.86,7.86,0,0,0,131,95l3.4,2.22c.06-.1.13-.19.2-.28-.79-.63-1.59-1.24-2.36-1.88s-1.5-1.28-2.21-2-1.31-1.35-2-2l.11,0,7.1,4.27.14-.21-8.48-5.72.11-.12,6.57,2.93c-2.2-1.46-4.51-2.68-6.79-4-1-.54-1.84-1.19-2.75-1.81l.15-.21,8.08,2.36c0-.1.07-.19.1-.29L122,84.41l.07-.09,9.55,1.39c-3.81-1.35-7.84-1.72-11.61-3l9.68-.49c0-.13,0-.27,0-.42-3.4,0-6.8.11-10.18.1a5.23,5.23,0,0,1-1.57-.53c0-.15.06-.3.1-.45,3.93.45,7.6-.76,11.31-1.73-3.95.37-7.87.86-11.81,1.32a8,8,0,0,1-1.08,0c0-.15,0-.31,0-.46,4.14.18,7.78-1.57,11.52-2.88-2.87.6-5.74,1.2-8.61,1.83-1.15.25-2.26.63-3.41.84a3.58,3.58,0,0,1-1.32-.29c0-.1,0-.2,0-.3a22.86,22.86,0,0,0,3.26-.76c2.48-1,4.9-2,7.35-3.06.43-.18.89-.28,1.33-.42-.61.78.34.73.58,1a9.61,9.61,0,0,0,1,1l-.22.08.25-.05,0,0,1-.23c.47.42.85.78,1.27,1.13,1.66,1.41,3.43,2.71,5,4.22,3.16,3.07,5,7.37,9,9.63l-5.87-6.77.2-.22,5.71,4.25.06-.08-7.1-5.85.18-.28c1.11.58,2.2,1.17,3.3,1.75a.91.91,0,0,0,.07-.12l-4-2.6.12-.18,1.35.63.06-.08-1.35-1.07.34-.38L131,77.7c.07-.16.14-.31.21-.47l5.61,2.15a2.09,2.09,0,0,0-1-.94c-.65-.28-1.34-.45-2-.69-1.65-.64-3.28-1.31-4.91-2l.11-.31,4.58.68c-2.41-.21-4.54-2.47-7.15-1.15l.77-.73-1.3-.64c2.56-.4,4.82,1.23,7.13-.12-2.43-.22-4.84-.36-7.23-.69a3.92,3.92,0,0,0-3,1.07l2.06,1c-.54.25-.83.42-1.14.53-3,1-5.93,2-8.87,3.09a2.67,2.67,0,0,1-2.65-.14h0l-2-.86h.05l0,0-.07,0-.93-.22,0-.09-.17,0-.49-.12h0l-1.17-.53.49-.22c-.21,0-.4.11-.6.16l0,0c1-.73,1.89-1.41,2.78-2.12l.79.23-1,.78a6.25,6.25,0,0,0-1,.75c-.19.23-.17.63-.23,1h0c1.2-.7,2.42-1.37,3.58-2.14.37.1.74.19,1.11.26l-.15.1c-.78.52-1.59,1-2.35,1.5a2.3,2.3,0,0,0-.49.65A18.66,18.66,0,0,0,115,75.47c.22,0,.43.06.65,0l-.52-.12c2.83-1.73,5.35-4,8.08-6.07l.74.07c7.51.87,14.42,3.18,20.26,8.25a54.82,54.82,0,0,0,5.08,3.62,2.65,2.65,0,0,0,.89.22,1.86,1.86,0,0,1,0-.22l-6.55-4.65.16-.24,3,1.29c0-.08.06-.15.1-.23l-4.82-2.38a2.58,2.58,0,0,0,.11-.26l2,.41c0-.06,0-.12,0-.17l-1.77-.72.08-.17.65-.05A38.87,38.87,0,0,0,137.55,72c-.7-.23-1.46-.3-2.19-.47a3.64,3.64,0,0,1-.7-.36c0-.08.05-.17.08-.25l5.07.32c0-.08,0-.18,0-.27l-1.2-.17c-1.63-.19-3.29-.3-4.9-.63-1.16-.23-2.24-.94-3.4-1.15s-2.61-.38-3.92-.53l1.57-.4a1.37,1.37,0,0,0,1.06.28c1.84-.64,4,.3,5.69-1.11.42-.35,1.19-.27,1.81-.39l-.06-.15L128.07,68l0-.09-2.48.52-2-.22s-.07-.12-.21-.41l6.71-1.13s0-.08,0-.12l-1.43-.05c0-.07,0-.15,0-.23l4.42-1.69c-1.43.31-2.82.71-4.21,1.12s-2.68.88-4,1.23-2.57.55-3.85.8l.46-.4-.1-.13,9.6-5a2.28,2.28,0,0,0-.94.22c-4,1.89-8,3.83-12,5.62a9.82,9.82,0,0,1-2.77.91l0-.11,4.48-5.53c-1.5,1.1-3.39,1.63-4.78,2.85a1.25,1.25,0,0,0-.12-.59l-1.34,1.6.25.19.41-.29a5,5,0,0,0-.3.44l2.62-1.52a4.56,4.56,0,0,1-4,2.51c1.29-1.82,2.4-3.53,3.67-5.11s2.63-3,3.32-3.74l-3.94,3.11a10.19,10.19,0,0,0,1.88-3.29,7.51,7.51,0,0,0-2.7,3.94l-1,.77a.83.83,0,0,0,0-.15l-.32.43-2.42,1.92c.74-1.06,1.41-2.17,2-3.3l5.37-6c-1.46,1.47-3.25,2.67-4.48,4.25a36.76,36.76,0,0,0,1.68-3.93L113,61.47l-3.37,3.75L111.16,62l.27-.35c1-1.39,2-2.8,3.06-4.22L112,60.19l2.6-5.48-.27-.13a1.66,1.66,0,0,0-.21.28l-3.33,6.67-2.91,3.23,1.29-3.28,1.71-4.23-.62-.26c-.42.93-.8,1.88-1.18,2.83q-1.09,1.46-2.09,3a2.28,2.28,0,0,0-.1-.65h0l1.29-3.36.94-1.74L111,56.5c.17-.86.31-1.6.46-2.33-.49,1.05-.7,2.41-2,2.45l.4-.75c-.15.26-.32.51-.48.76a3,3,0,0,1-.71-.11c-.1,0-.25.22-.39.24-.48,0-1,0-1.45.07,0-.41.08-.82.13-1.29l-.8.38L106,56h0c.91.52.13.92-.18,1.22a1.58,1.58,0,0,1-1,.24,2.19,2.19,0,0,1-.7-.26c.13-.21.2-.52.39-.62A12.91,12.91,0,0,1,106,56l0,0,.15-.07a7,7,0,0,1,1.4-.9c1.75-.72,3.54-1.35,5.32-2a2.2,2.2,0,0,1-.06-.24l-2.24.12,2.6-1.06c0-.09,0-.18-.07-.25l-5,1.19c0-.15-.09-.31-.14-.46l7.61-2.86,0-.13L98.73,53.83l-.2-.42a8.1,8.1,0,0,1,1.79-.93c1.36-.32,2.79-.4,4.15-.76,2.07-.54,4.12-1.2,6.14-1.91s3.78-1.46,5.64-2.26a12,12,0,0,0,1.67-1.09c.25.25.52.72.76.7a22.76,22.76,0,0,0,2.59-.44c0-.14,0-.28,0-.42l-1.46-.05.55-1.25,5.17-.7s0-.08,0-.11l-3.15,0c0-.19,0-.38,0-.58l5.44-.8c-2.63,0-5.24.23-7.86.32-1.12,0-1.66.48-1.75,1.55l-.5-1.4.95-1.79c0,.42.09.83.14,1.36,1.74-.28,3.37-.48,5-.8,2.41-.5,4.79-1.09,7.18-1.62l-1.09.36,6.95.23-1.31-.47c0-.13,0-.27,0-.41l4.31-.66a34,34,0,0,0-5,.16,19.65,19.65,0,0,0-2.45.56c.35-.79.13-1.13-.75-1-1.69.26-3.39.54-5.1.77-.61.08-1.23.07-1.85.1l0-.24,2.68-1.07a1.78,1.78,0,0,1-.07-.19l-7.36,2.26-.1-.29,3.9-2.25a12.93,12.93,0,0,0-3.54,1.32A7.48,7.48,0,0,0,118.74,41a3.38,3.38,0,0,0-1.12-.31,7.92,7.92,0,0,0-1.65.61c1.12-1.12,2-2,2.88-2.85l-.24-.26c-.78.64-1.54,1.29-2.33,1.91s-1.56,1.2-2.37,1.75-1.6,1-2.41,1.49a.61.61,0,0,0,0-.13l5.68-6L117,37l-7.38,7.07-.1-.13,4.26-5.79C111.85,40,110.16,42,108.42,44c-.73.82-1.56,1.54-2.34,2.3l-.17-.19,4-7.4-.26-.16-6,9.34-.07-.08c1.12-3,2.26-6,3.37-9-2.12,3.44-3.34,7.29-5.35,10.72.52-3.19,1-6.38,1.57-9.57l-.41-.07c-.68,3.33-1.34,6.66-2.06,10a5.24,5.24,0,0,1-.85,1.42L99.48,51c1.27-3.76.87-7.6.7-11.44-.47,3.94-.83,7.88-1.21,11.82a7.82,7.82,0,0,1-.28,1.06l-.46-.07c1.05-4,.11-7.95-.37-11.89,0,2.94,0,5.88,0,8.82,0,1.17.14,2.35.1,3.52a3.51,3.51,0,0,1-.57,1.21l-.29-.1a24.41,24.41,0,0,0,0-3.35c-.41-2.63-1-5.22-1.44-7.83-.07-.46-.07-.93-.12-1.39.63.76.79-.17,1.14-.34a9.71,9.71,0,0,0,1.23-.76l0,.22c0-.08,0-.16,0-.24h0c0-.39,0-.78,0-1.07.5-.36.94-.66,1.36-1,1.73-1.33,3.38-2.78,5.2-4,3.67-2.44,8.26-3.34,11.3-6.71l-7.86,4.29-.17-.24L113,26.91l-.07-.07-7.22,5.7c-.08-.09-.17-.16-.25-.24l2.42-2.85-.1-.09-3.38,3.33-.16-.16.91-1.18a.4.4,0,0,0-.08-.07l-1.32,1.09-.3-.41L99,37.62l-.41-.31,3.28-5a2.09,2.09,0,0,0-1.12.75c-.41.57-.71,1.22-1.1,1.81-1,1.47-2,2.92-3,4.38l-.28-.17c.55-1.44,1.1-2.89,1.64-4.34-.72,2.31-3.37,3.91-2.64,6.75l-.54-.91L94,41.69c.15-2.57,2.22-4.45,1.39-7C94.68,37,94,39.36,93.2,41.62a4,4,0,0,0,.42,3.16L95.07,43a11.47,11.47,0,0,1,.27,1.23c.38,3.11.71,6.22,1.14,9.33a2.66,2.66,0,0,1-.69,2.56v0h0a.21.21,0,0,0,0,0l-1.28,1.8,0-.06,0,0s0,0,0,.07l-.72,1.52h0c-.25-.77-.5-1.54-.75-2.32l.47-1.14c.15.42.3.84.46,1.26a2.22,2.22,0,0,0,.53.61c-.32-5.54-3.43-10-5.66-15.06-.36,2.86-.41,5.43,1.47,7.64l.67-.95c.73,1.83,1.39,3.49,2,5.15.14.37.28.74.41,1.11l-.5,1c-.16-.48-.32-1-.5-1.42C91.76,53.65,91,52,90.28,50.4h.05l0,0h0a11.11,11.11,0,0,1-1.2-1.46c-.8-1.36-1.51-2.74-2.26-4.12l-.17.09c.18,2.1.36,4.2.54,6.3h-.09c0-.14,0-.29,0-.44a2.35,2.35,0,0,0-.2.38l-4.39-5.48c1,2.16.89,4.75,2.72,6.51l.17,1-.87-.93-.94-1.93c-.22-.45-.34-.92-.58-1.36a1.46,1.46,0,0,0-.77-.66l1.37,3c-.62-.67-1.22-1.34-1.78-2l0,0L81,47.82l-.15.12c-.84-1.13-1.55-2.2-2-2.81l1,2.08-.07-.07-.07,0c.18.31.36.61.53.92l-.15.09L78,45.48l-.09,0c.49.75,1,1.49,1.45,2.24l-.24.12-4.83-4.81-.07,0L77.72,47l-.18.13-.66-.47-.73-1c.17.27.32.55.48.83l-4.69-3.32c1.24,1.78,3.22,2.92,5.15,4.11,1.07,2,2,4,4,5.16l-3.54-4.89a20.56,20.56,0,0,1,2.38,1.67c.64.54,1.23,1.11,1.82,1.7l2,4.15-.13.3-1.35-1.23c0-.25.07-.5.1-.75l-.21.65-3.31-3,3,4.1c-.1.32-.19.64-.28,1l-1.34-1.6c0-.44,0-.87,0-1.31h-.34l-.05.86-.57-.68c-1.13-1.32-2.3-2.6-3.47-3.89l4,5.52c0,.41-.05.82-.08,1.23L78,55.15A23.85,23.85,0,0,0,77,51.89l.5,2.9-1.55-1-1.06-2.37-.24.07.66,1.87,0,0,0,0,1.1,3.13-1.5-1.28c-1.06-1.55-2.06-3.12-3.27-4.6L73.48,54l-.26-.22.3.3.55,1-.11.08-4.72-5.75-.18.09,3.53,4.82,0,.09c-.56-.44-1.15-.87-1.69-1.33s-1.09-1-1.61-1.5-1-1.06-1.55-1.6l-.23.13,1.83,2.32a6.16,6.16,0,0,0-1.23-.64,3.74,3.74,0,0,0-1,.05,5.27,5.27,0,0,0-.91-1.14,11,11,0,0,0-2.62-1.37l2.75,2-.13.18L60.65,49l-.09.12,2,1.08-.06.15c-.5-.1-1-.18-1.48-.32-1.34-.39-2.66-.8-4-1.21-.68-.21-.93,0-.78.56a18,18,0,0,0-1.89-.7,33,33,0,0,0-4-.79l3.36,1c0,.09,0,.19-.06.28l-1.14.14,5.66.79-.82-.4c1.84.7,3.67,1.42,5.52,2.08,1.24.44,2.52.79,3.88,1.21l.35-.89c.15.43.29.88.45,1.34l-.66.86c.12-.72-.23-1.08-1.13-1.27-2.1-.42-4.16-.94-6.3-1.29l4.26,1.28-.13.39L61.08,53l0,.07,4.05,1.19c.1.36.17.63.24.9L64.15,55l-.09.28a20.9,20.9,0,0,0,2,.65c.19,0,.49-.23.74-.36a8.25,8.25,0,0,0,1.15,1c1.36.79,2.74,1.58,4.16,2.29,1,.52,2.09,1,3.15,1.45l.22.57-7.19-3,0,.08,4.64,2.43c.12.21.24.43.35.64l-3.4-1.31-.09.15-.16-.16a2,2,0,0,0,.26.89.8.8,0,0,0-.06.12l.17.09c.61.87,1.8,1.31,2.37,2.36l-.91-.32-.1.51-.14-.13a1.83,1.83,0,0,0-.29-.59c-.08-.3-.12-.64-.21-.95,0,.22,0,.46,0,.69-.79-.73-2.14-.92-2.92-1.67.75.62,1.49,1.24,2.23,1.86l-.15.2-1.36-.6-.12-.38a1.34,1.34,0,0,0-.11-.21l-.24,0,.11.39-1.42-.63c-.41-.18-.79-.43-1.22-.61a1.52,1.52,0,0,0-.95,0l3.53,1.63-.21.32-.77-.27,0,0,0,0-3.64-1.26-.1.34-1.19-.13,0,.07.92.34a1.2,1.2,0,0,1-.06.15l-3.16-.63a.38.38,0,0,0,0,.09l2.38.72c0,.08-.08.16-.11.23l-6.39-.56s0,.06,0,.07l4.85.66a1.19,1.19,0,0,0-.05.2l-6.47.48a8.75,8.75,0,0,0,2.24.26c1,1,2,1.94,3,2.86l-.16-.1.46.35c.73.62,1.46,1.24,2.23,1.84l.11-.09.58.43-.14.13,1.49,1.08c-.21,0-.44-.07-.64-.13l-1-.27c-2.65-1.6-5.26-3.25-7.88-4.9a2,2,0,0,0-.71-.28L60.41,69l-.84-.2.12-.15-2.82-1.39-.1.11,2.44,1.34c-.4-.1-.8-.21-1.21-.29l1.33.52c-.57-.2-1.13-.38-1.69-.6-1-.42-2-.92-3.05-1.37s-2.1-.94-3.2-1.34l3.27,1.73c0,.05,0,.1-.06.16-.38-.06-.77-.11-1.16-.16l0,.08,5.23,1.67c-.17.18-.21.26-.24.26L57,69.27l-.41-.08-1.76-.63,0,.06-6.59-2-.08.09c.48.16,1.11.22,1.39.51,1.15,1.18,3,.84,4.41,1.52a1.32,1.32,0,0,0,.91,0l.73.29H55.5l-.07.16c-.88-.06-1.75-.12-2.63-.14s-2,.31-3,.31c-1.36,0-2.71-.16-4.07-.25l-1-.05,0,.18,4.15.47c0,.07,0,.12,0,.18a2.88,2.88,0,0,1-.62.14c-.62,0-1.24,0-1.86,0a39.23,39.23,0,0,0-4.93.67l.52.12a.69.69,0,0,1,0,.13l-1.56.23s0,.07,0,.12h1.66c0,.06,0,.12,0,.18l-4.32.94c0,.05,0,.11,0,.16l2.68-.45c0,.06.06.12.09.18l-6.11,2.22a.74.74,0,0,1,0,.15A2.53,2.53,0,0,0,35.34,74.66ZM63.11,88.71a2.33,2.33,0,0,1-2.36.61l2.31-.83A1.76,1.76,0,0,0,63.11,88.71Zm-1,17.75c-.07-.68-.15-1.36-.23-2l.4-.14c.05.7.09,1.39.14,2.1Zm2.52-8.31c0,1,.07,1.84.09,2.71A1.8,1.8,0,0,1,64.59,98.14ZM63,105.42c-.06-1.18-1-2.12-.21-3.53l.24,0c.08,1.17.15,2.34.22,3.51Zm.74-5.37c.06.88.12,1.75.17,2.63C63.1,101.46,63,100.82,63.72,100Zm2.47-1.5c-.75-2-.54-3.09.66-3.87C66.63,96,66.41,97.28,66.19,98.55Zm2.57-3.21-.21,0a25.21,25.21,0,0,1-.11-2.73c0-.3.4-.66.61-1l.24.09Zm.55-4.6h0Zm.8,2.45c-.77-1.35-.55-2.4.56-3C70.48,91.21,70.29,92.2,70.11,93.18Zm1.1-1.95c-.07-.7-.42-1.34.33-2.1C71.82,90.17,71.74,90.79,71.21,91.24Zm30.19,12.26-.24-.1.48-1.38.3.14C101.76,102.59,101.57,103,101.4,103.49Zm.23-3.16c.41,1.06-.54,1.55-.79,2.34l-.2-.08q.4-1.16.8-2.33Zm-1,.38.61-1.74C101.6,99.57,101.43,100,100.58,100.71Zm.23-3.14c.49.68.31,1.25-.55,1.81ZM99.6,94.93c.85.68.8,1.46-.14,2.69C99.5,96.73,99.55,95.86,99.6,94.93Zm-1.44-2.32.21,0c.11.25.35.55.31.75a16.26,16.26,0,0,1-.57,1.82l-.17,0C98,94.28,98.08,93.45,98.15,92.61Zm-.84-1.23c.8.56.79,1.29-.08,2.09C97.26,92.79,97.28,92.11,97.31,91.38Zm6.37,0a1,1,0,0,1,.08-.14l1.72.87A2,2,0,0,1,103.68,91.43ZM101.81,90l.08-.25.27.11c.22.16.44.33.67.48a7.43,7.43,0,0,0,.81.42A5.86,5.86,0,0,1,101.81,90Zm13.84-46.88c0,.14,0,.28,0,.42l-3.19.28c0-.18,0-.37,0-.55Zm-1.09,1.43c0,.12,0,.23,0,.35l-5.36.47c0-.1,0-.21-.06-.32C110.88,43.66,112.77,44.74,114.56,44.55Zm-3.64,1.8-4,.35C107.72,45.65,108.7,45.57,110.92,46.35Zm-2.34,1.45-4.09.48C105.36,47,106.65,46.89,108.58,47.8Zm-2.68,2.48L100.45,52C101,50.24,102.58,49.73,105.9,50.28ZM89.63,48.39l-.36,0c0-1,0-2,.08-3.21C90.46,46.42,90,47.41,89.63,48.39Zm-29.44,22c.22,0,.44,0,.66.08,0,0,0,0,0,0h-.33Zm4.44-1.58.27.2-.23-.11S64.64,68.88,64.63,68.85Zm2,.64.24.48-.07,0-.42-.65Zm4.72-5.94a6.9,6.9,0,0,1,.25.77c.1.5.21,1,.31,1.49l-.37-.19c-.12-.62-.21-1.25-.36-1.87a.58.58,0,0,0,.14-.21Zm6.74-3.1a1.27,1.27,0,0,0-.29.22l-.06,0-.11-.4a5,5,0,0,0,.48.19l1,0a1.94,1.94,0,0,1,.46.35q0,.36,0,.72L79,61.26Zm-1.39-.59a5.82,5.82,0,0,0,.67.29l.08.37-1.58-.73C76.16,59.79,76.39,59.83,76.66,59.86Zm4.21-.22a8.76,8.76,0,0,0,0,1.48h-.44a5.66,5.66,0,0,1-.27-.65h.47l-.55-.27s0,0,0,0c0-.49,0-1,0-1.48l0,.05A6.91,6.91,0,0,1,80.87,59.64Zm.74-.77.19-.19.36.33c-.05.17-.1.34-.15.51l-.42-.58Zm2-6,.69.63c0,.18-.11.43-.17.68A8.44,8.44,0,0,1,83.62,52.83Zm1.37,2c.22.14.25.62.69.45l.09.16a4.51,4.51,0,0,1-.26.68v0a8.92,8.92,0,0,1-1.3-1.94A6,6,0,0,0,85,54.87Zm12.49,3.6a1.38,1.38,0,0,1-.18.23l.06-.23Zm.31,2.1.62-.41h0l-.57.44Zm8.73,4.56.27.17-1.71,2.94c.29-.8.55-1.6.81-2.41Zm5.88,7.2a6.14,6.14,0,0,1,1.57-.63l.22.37-2.55,2-1-.1.47-.44h.15a.31.31,0,0,1,0-.07h0A12.37,12.37,0,0,1,112.41,72.34Zm3.77-2.44a8.61,8.61,0,0,0,1.49-.27,7.43,7.43,0,0,1-3.15.94l-.19-.53.5-.16C115.28,69.89,115.74,69.92,116.18,69.9ZM105.61,76l.48.17a1.54,1.54,0,0,1-.49-.16Zm-.54.4c0,.25,0,.5.06.75l-.74-.4a.55.55,0,0,0,.64-.37l-.21-.13.48-.36h0c-.09.17-.17.33-.27.5V76.3l0,0Zm5.33,2.31a2,2,0,0,1,1.36.55l-1.06,0-.31-.53Zm1.95,1.43-.33,0-.87-.11-.31-.53,1.11,0A2.45,2.45,0,0,1,112.34,80.09Zm1.37,1.36,1,.22c.05.15.11.29.16.44l-1.07-.44Zm-7.44,4.33-1.2.28,0-.5.81-.12-.81,0,0-.39.79-.27a5.43,5.43,0,0,0,.15.59l-.16,0h.17C106.13,85.55,106.22,85.66,106.28,85.78Zm-2.16.8h0l.35-.13,0,.1ZM95.46,89c.2.3.41.51.38.59a2.43,2.43,0,0,1-.51.54l-.25-.19C95.2,89.68,95.31,89.42,95.46,89Zm.35-.18h0l0,0Zm-.37-.06-.2.28L95,88.61a.39.39,0,0,0,.45.14c-.11-.21-.23-.42-.31-.57l.15-.06.46.58ZM80.26,84.34l.2-.29,1.52.77-.15.21C80.74,85.22,80.63,85.16,80.26,84.34Zm.39,1.34-.32.48-1.08-.53.27-.4ZM73.7,86.85v0l-.33-.17.74-.71.15.13-.54.74a.42.42,0,0,0,.56-.07l-.43.53-.15-.45v0Zm-.46,0s-.05,0-.08.06l.06-.06ZM60,81.46l.5.17-1.52,1.53L58.41,83c.35-.33.72-.64,1.06-1C59.65,81.86,59.8,81.66,60,81.46Zm1.5-1.81a1.89,1.89,0,0,1,.26-.2l.64.17-.57-.23c.27-.2.58-.37.88-.55l.32.22-.57.58h-.05l0,0-.45.46L61.7,80l.23.18L61,81l-.64-.1C60.75,80.5,61.08,80.06,61.47,79.65Zm-6.22-4.9.7.5-.55.32-1.14-.41Zm-.4-1.18c-.09-.06-.19-.09-.28-.14l.12,0Zm5.25-2.68.09,0,.11.25-.18.08A1.92,1.92,0,0,1,59.9,71Zm6.8-.16-.21.09-.49-.22A1.71,1.71,0,0,1,66.89,70.73Zm4.61-5.06.4.3c.06.29.12.58.18.87-.18-.35-.36-.7-.56-1.05Zm.58-.63c0-.2-.06-.41-.13-.8l.22.07.29.84.2,1.05-.29-.15ZM83,61.11v0h-.74l0-.15A2,2,0,0,0,83,61.11Zm7.78.21-.59,1.54-.52-.34a2.73,2.73,0,0,1,.6-1.25A.38.38,0,0,1,90.82,61.32Zm5.38-1.13a9.45,9.45,0,0,1-.11.94,5.72,5.72,0,0,1-1.3-.13,10,10,0,0,1,.59-.82C95.65,60.18,95.92,60.18,96.2,60.19Zm14.11,20.4a1.45,1.45,0,0,1-.75-.5l.74.49Zm-.17-.77-.87-.17c0-.05,0-.12-.06-.17l.84,0C110.07,79.58,110.11,79.7,110.14,79.82Zm-.55,2.77a3.83,3.83,0,0,1-1.11.22l-.41-.18a.82.82,0,0,1-.14-.44s0-.1.05-.16c.52.17,1,.36,1.58.52Zm-4.49-1.26a4.16,4.16,0,0,1-.34-.48l.59.24c0,.12,0,.24,0,.35Zm.45,1.32-.25-.16.23.08Zm.07.4c.07.52.16,1,.27,1.56l-.73.23q0-.77.09-1.52l.1-.07-.1,0,0-.36Zm-5.76,3.48-.41,0-.1-.27,1.86-.22v0Zm1.43-.13v.05h-.21ZM64.39,84.7l-.23,0-.41-.05h0l0,0H63.7l0,0,0,0h0a2.81,2.81,0,0,1,.53-.49l1.72.71h0l-.39,0,.06-.1-1.32-.41A.65.65,0,0,0,64.39,84.7Zm-2.54,1.76,1.65-.11,1.35.05a8.88,8.88,0,0,1-2.11.5l-1.57.21Zm1.49-.5A2.47,2.47,0,0,0,63,86l0-.09c-.18,0-.37,0-.56,0l.29-.28,1.19.39ZM56.65,73.79a1.12,1.12,0,0,0-.11-.14l.11,0C56.65,73.68,56.65,73.73,56.65,73.79ZM59.86,72l.09-.16.15-.1.25.26-.56.25-.5,0L59.7,72Zm16.63-5.27.29.19a3.79,3.79,0,0,1-.07.5,3.61,3.61,0,0,1-.22-.63S76.48,66.77,76.48,66.75Zm17-3.89.2,0-.11.64-1.67,1a.88.88,0,0,1,.19-.56A4.3,4.3,0,0,0,93.51,62.86ZM105.3,79.37c0,.12,0,.24,0,.36l-.29-.17.2-.26ZM88.43,84c0-.09,0-.19,0-.28l.21-.05a.63.63,0,0,1-.16.41Zm-1.36-.64c.13.28,0,.37-.18.42l0-.39.06-.09S87.06,83.36,87.07,83.38Zm-19.94-.05-1.67-.14a3.66,3.66,0,0,1,.54-.4C66.37,83,66.74,83.17,67.13,83.33Zm-1.44-6-.21.09a.5.5,0,0,0-.13-.16l-1.56-1,1-.21a15.32,15.32,0,0,0,1.52.91c-.06,0-.12,0-.15,0a2.87,2.87,0,0,1-.44.32c-.18-.08-.37-.14-.54-.23Zm-.88.11a1.4,1.4,0,0,1-.28-.12ZM61.91,75l1.31-.27.52.43-1.05.33Zm.47-1,.51.45-1.28.37-.82-.52C61.31,74.21,61.84,74.12,62.37,74Zm5.4,1.65.12,0v0l.47-.09.57.55a1.23,1.23,0,0,1-.55.16l-.17-.14-.37-.37s0-.06.06-.11h-.11Zm17.38-13-.25-.19.2-.34Zm17.34,21.81-.95.14a.73.73,0,0,1-.16-.2l1.86-.27Zm-34.95-8-.64.32-1.14-.92.79-.16c.32.26.65.5,1,.75Zm1.84.14.69.67-.56.11a5.11,5.11,0,0,0-.59-.33.45.45,0,0,0,0-.23,1,1,0,0,0-.1-.11A2.68,2.68,0,0,1,69.39,76.57Zm19,6.19s0,0,0,0h.05l0,.1ZM97.14,78a2.21,2.21,0,0,1-.56.16l.62-1.94c.18.09.46.17.61.26Zm-2,1h0l-.51.07.26-.43a3.62,3.62,0,0,0,.25.36h0c.15-.45.28-.89.42-1.34l.19,0,.22.14c0,.15,0,.24,0,.36s0,.11,0,.17a.42.42,0,0,0,0,.19,2.33,2.33,0,0,1,0,.25Zm-.56,1.66c0,.4-.28.47-.66.32v0l.46-.35h.11l-.07,0,0,0Zm-.22-1a1.79,1.79,0,0,1,.25.25l-.12.05-.07,0h0l-.22-.13.08-.14S94.37,79.66,94.38,79.67ZM70.77,79l-.11,0,0-.14a1.78,1.78,0,0,1,.3-.16h0Zm7-6.81h-.07a1.29,1.29,0,0,1,0-.36Zm14.06-1.82a2.74,2.74,0,0,1-.05-.32,1,1,0,0,1,.21.26Zm-8,9.66.05-.08.07,0,0,0-.09,0Zm8.78-10.59-.15-.05.16-.08ZM71.36,78.94l.75.47,0,.12a.87.87,0,0,1-.83-.32Zm7-9c0-.06-.06-.12-.1-.18l.11.1Zm-9.09,9.44.14.08a1.47,1.47,0,0,1-.15.19l-.42-.17Zm2.13.82-.36.1.29.25-.25.17a1.61,1.61,0,0,0-.2-.12l.21-.74a1.07,1.07,0,0,0,.22,0,3.08,3.08,0,0,0-.13-.31l.07-.25a3.54,3.54,0,0,1,.29.49l-.25-.14Zm23.56,0,.07.07-.21.15-.08,0Zm1.88.8,0-.12.12-.09.28.05Zm-.26,1.66.16-.18.24.18-.35,0Zm1.28-1-.09-.24h.11l0,.19Zm-.65-1.78,0,0h0l.05,0Zm-1.59.38a4.47,4.47,0,0,1-.37-.3l.32-.24h0A3.12,3.12,0,0,1,95.6,80.32ZM95,79.76c-.09-.1-.18-.17-.28-.28a1.6,1.6,0,0,1,.58.14ZM81.31,65.31c0-.07,0-.15-.06-.22s0-.09,0-.14a3.4,3.4,0,0,1,.42.11l-.16.39Zm-.06-.2c0,.06,0,.11,0,.17l-.05,0ZM72,76l.65.55-.76-.35Zm-2.86,2.43c0,.11,0,.22-.06.34L69,78.68A2.59,2.59,0,0,1,69.16,78.41Zm-.39,1.09h0a1.22,1.22,0,0,0,.1.41h0l-.49-.2c.08-.12.16-.24.22-.36Zm1.79,1.83.12.11-.06.31-.21-.11C70.45,81.54,70.51,81.44,70.56,81.34Zm12.91.47-.07.11a.53.53,0,0,1-.07-.17Zm11.19-1.07.2.2L94.7,81A2.71,2.71,0,0,1,94.66,80.74Zm1.19,3-.08.06h0Zm.32-.15.26-.12.36.17-.34.18.09-.1A.52.52,0,0,0,96.17,83.6Zm.43-3.84s0,.12,0,.17l-.09,0,.1-.15-.07-.1h0l.1-.14.43.29A1.6,1.6,0,0,1,96.6,79.76Zm-1-.41-.1-.07a1.08,1.08,0,0,1,.18,0Zm1.74-.82-.08,0,0,0ZM82.31,65.92l-.46-.28.08-.51a1.54,1.54,0,0,1,.35.25A3.59,3.59,0,0,1,82.31,65.92Zm-1.37-.84-.35-.21h.34Zm-6.15,4.4c.12-.38.17-.69,0-.94l.15-.28a1.76,1.76,0,0,1,.35.06c.12.35.23.7.34,1.05,0,.16,0,.32,0,.48l-.41.38.47.11c0,.32.08.63.15.94l0,.12-.15,0-.79-2-.07.13A.68.68,0,0,1,74.79,69.48Zm-3.23,7v0a2.36,2.36,0,0,1,.23.29l-.16-.13A1.42,1.42,0,0,0,71.55,76.48Zm-3.15,1.89c-.14-.07-.27-.17-.42-.23a1.78,1.78,0,0,1,.65-.22C68.56,78.09,68.48,78.22,68.41,78.37Zm-.85.14.5.41a1.69,1.69,0,0,1-.54.46l-.4-.16A4.8,4.8,0,0,1,67.56,78.51Zm.91,2.59a.42.42,0,0,1-.14.14l-1.09-.29.61-.34Zm-.94.49.18.06,0,.07-.21-.13ZM88.4,83.31l.12,0,.25.23h-.36Zm9-3.76-.68-.26.19-.26a1.37,1.37,0,0,1,.75.11Zm1.26-2.61c0,.06.06.1.11.16l-.16.25ZM95.12,63.72c0,.36-.23.59-.65.71v0Zm-1.69.81-.08.11-.82.13.95-.91.06,0ZM74.32,72.94l-.39-.18v-.1a2.15,2.15,0,0,1,.3-.09Zm-.45-.86,0,.07v-.08Zm-2.72,4.58c.06.08.11.16.16.24l-.23,0v0L71,76.91a2.54,2.54,0,0,1-.36-.59l.16,0ZM64.66,74.9l-.41-.35.85-.17.31.29Zm-.84-.71-.44-.38.85-.22.4.36Zm.15,1.4-.67.33L63,75.75Zm2.91,1.6c.2.09.38.2.58.29a3.07,3.07,0,0,0-.22-.39l.77-.21.53.59-1,0-.05,0v0h0l-.48.08-.31-.17-.15.18c-.16-.06-.3-.13-.46-.2Zm.34,1-.73.66-.55-.44a2,2,0,0,1,1.27-.22Zm-1.1,1-.95.86-.27-.18a2.79,2.79,0,0,1,.61-1.16Zm-1.31,1.06h0ZM67,81.76l.74.5-1.27-.34Zm22.57,2.57,0,0a2.55,2.55,0,0,1-.58.05Zm1.26-1.92.06,0-.06.08A.58.58,0,0,1,90.81,82.41Zm0-.22a1.22,1.22,0,0,1,.09-.16.41.41,0,0,1,0,.21Zm7.73-2.94-.13-.06,0-.39a.77.77,0,0,1,.33.05l.28.16A2.76,2.76,0,0,1,98.56,79.26Zm0-.83h0l0-.26.54-.61a3.34,3.34,0,0,1,.25.46l-.16.19C99,78.33,98.75,78.35,98.53,78.42ZM103,76.65a.52.52,0,0,1,.19-.16l.43.2-.48.32Zm-3.18-9.22.17-.49a3.37,3.37,0,0,1-.07.44Zm-1.23-3.58L98,63.7l0-.13.61,0Zm1.13-.2.2,0-.2.13Zm-2.57-.17-.29.22c0-.1,0-.19,0-.29l.32.06Zm-1.64.06-.08-.1.19-.2Zm-1.28-.39-.05-.23.35,0Zm-18.57,4.1-.2.15a3.34,3.34,0,0,0-.28-.19,4,4,0,0,0-.35-1.63l.93.62C75.67,66.57,75.64,66.92,75.61,67.27Zm-2.22.55.34,1a3.53,3.53,0,0,0,.08-.78h0a13.74,13.74,0,0,0,.47,2.4v0l-.42.79h0c.48-.81-.1-1.43-.53-2.06.22-.53-.12-1-.38-1.56Zm-.67,1.86,0,0a10.71,10.71,0,0,0,.44,1c0,.21.06.43.08.64l0,0-.16-.09-.61-1.55Zm-7.06,4-.35-.34.48-.12c.18.08.35.18.52.27Zm3.84-1.42-.12-.13.13,0A.67.67,0,0,1,69.51,72.23Zm-5.14-.64.37.06-.51.22-.1,0Zm-5.68,3.09,1.21-.22.83.61-1,.3s0,.06,0,.09l1.22-.25c.32.23.66.44,1,.66v.06H62l.56.34-.15.07a.9.9,0,0,0,0,.16l.37-.07c.38.22.78.42,1.18.62l.6.76.7-.19c.14.05.26.13.41.18,0-.08-.08-.17-.12-.26l.36-.1.43.26-.64.11h0a2.34,2.34,0,0,1-.47.11l-.1-.08-.1.1a3,3,0,0,1-1.5-.39c-1.89-1-3.81-1.9-5.72-2.84A4.21,4.21,0,0,0,58.69,74.69Zm6.22,3.73.14.24-.84.82-.63-.4.15-.19C64,78.63,64.51,78.57,64.91,78.42ZM64,79.72,63.7,80,63,79.81l.36-.48Zm-.39.39-.55.54-.42-.22.39-.55Zm-.75.74-.39.38-.34,0,.4-.59Zm-.76,3.38.11-.08v0l.71-.57c.26.09.51.2.76.3a1,1,0,0,1-.49.5c-.33.11-.9.49-1-.23h0l-.11.05-.55.39.53.15c-.37,0-.73.05-1.1.06A7.51,7.51,0,0,1,62.06,84.22Zm2.9-.07c0-.08.06-.15.09-.23a2.56,2.56,0,0,1,.38-.07,2.74,2.74,0,0,0,1.15.26c.07.1.14.21.21.3Zm3,.41a1,1,0,0,1,.65-.18.69.69,0,0,1,.29.31Zm5.18.65h0l-.12.11Zm9.38-2.51.06.15-.15-.11Zm3.44.25.1.32-.16.13c0-.15,0-.3,0-.45ZM89,84.74l.06,0-.14.06Zm2.15-3,.08-.08a3.51,3.51,0,0,1,.48.19.91.91,0,0,1-.24.28Zm5.68,4.14L98,85.46v0l0,0h0l.27-.54.32-.14h.09c0,.08,0,.14-.05.22a.79.79,0,0,0-.62.47h.24L97.17,86ZM99,85.42l.61.06,0,0L97.94,86Zm1.83.09.11.18-.61,0Zm2.73-.18c-.15-.6-.55-.61-1-.55l1-.41c.14.28.27.56.4.84Zm.49.1,0,.09-.35,0ZM99.28,78.8c0-.07,0-.15,0-.22l.09,0a.64.64,0,0,1-.13.2Zm9.25,1.6-1.13-.68c0-.1,0-.2-.06-.31a2.7,2.7,0,0,1,1.06.48C108.42,80.07,108.48,80.23,108.52,80.4Zm-3.79-1-.9-.52v0a1.69,1.69,0,0,1,1.27.35A1.56,1.56,0,0,1,104.74,79.4Zm-1.5-2,.7-.52,1,.48c-.51.18-1,.37-1.52.53Zm.76-1.68.11-.3.89.32-.45.31ZM100.79,66a.75.75,0,0,0-.58.18l.18-.5c.22-.05.43-.11.65-.15l-.23.78C100.8,66.22,100.79,66.13,100.79,66Zm-1.12-1.85V63.9l.29-.22h.2c-.13.17-.24.35-.39.52Zm-1.53-3.29L98,60.72l.43-.45Zm-1.62-.69a4.86,4.86,0,0,0,.84,0,.93.93,0,0,1-.77.91ZM95,61.85c0,.18-.07.36-.11.53l-.91,0,0-.14c.14-.2.28-.41.41-.62Zm-1.66.31-.21.3-.36,0A3.81,3.81,0,0,1,93.37,62.16Zm-.44.63-.63.9a.61.61,0,0,0,0-.85l.12-.12Zm-8.26-1.5c-.14.23-.26.47-.39.7l-.65-.5.35-.83Zm-2.25,1.85-.06.26-.07.09-.15,0-.09-.05c-.09-.28-.27-.57-.21-.83Zm-1.14-.89c0-.05,0-.1,0-.15l.18.16Zm-1.35-.63s0,0,0,.07h0ZM80,62a3.33,3.33,0,0,1,.75.47l0,.13h0c-.24-.19-.47-.39-.7-.58Zm-6.3,2.84c0,.63,0,1.26.07,1.88l-.21-.11A8.41,8.41,0,0,0,73,65.37c0-.13,0-.27-.06-.4a2.4,2.4,0,0,0-.18-.47l.7.23a.26.26,0,0,1,0,0Zm-1.27-.45,0,0,.07,0Zm.3,2.1.2,1.08h0a1.33,1.33,0,0,0-.08.17c-.14-.48-.27-1-.4-1.43ZM69.11,71a3,3,0,0,1,.33.65l-.38.1-.5-.55A3.85,3.85,0,0,1,69.11,71ZM63,71.19l.5.16-.17.08A2.68,2.68,0,0,1,63,71.2Zm-.36.45.05.08-.17.08s-.06-.09-.1-.12l.14-.12ZM61,71.71a2,2,0,0,1-.54-.21l.5-.32.69.24Zm-1.25-.3-.4.18-.43-.12.6-.3Zm-1,.44-.74.33C58,72.12,58,72,58,72l.38-.19Zm-1.86,3.5c.14-.07.21-.32.29-.54,1.32.76,2.63,1.54,4,2.25a20.4,20.4,0,0,0,2.5,1c0,.07,0,.14,0,.21a3.57,3.57,0,0,1-1.11,0c-.89-.31-1.73-.71-2.61-1L55.9,75.75C56.24,75.63,56.6,75.52,56.93,75.36Zm4,5.79-.43.44-.44-.23.3-.35ZM59,84.54l-1.5,1.61-1,0,2.21-1.85Zm1.72.42,1.43.47c-.07.11-.13.23-.21.34a.43.43,0,0,1-.18.1,14.71,14.71,0,0,0-1.86.25h-.59C59.82,85.74,60.28,85.35,60.76,85Zm.08,1.5,0-.12.68,0c-.44,1-1.61.75-2.63.77l1.08.2-2.42.33,1.36-1.13C59.57,86.47,60.2,86.49,60.83,86.46Zm2.48-1.31,1.27-.06a8.89,8.89,0,0,1,1.09.23s.07.06.11.09A2.86,2.86,0,0,1,63.31,85.15Zm9.38.61.14.12.54-.49.56.46-.72.78a1.87,1.87,0,0,0-.32-.17C72.44,86.33,72.25,86.17,72.69,85.76Zm9.81-2.51s0-.08.09-.16l.13.06.28.67Zm2.77.05a.74.74,0,0,0,0,.11,1.62,1.62,0,0,1,.17-.16,1.25,1.25,0,0,1,0,.16s0,.09,0,.14l-.23,0C85.14,83.43,85.14,83.36,85.27,83.3Zm-.15.32-.27,0,.09-.17Zm2.52.33.09,0,0,.05.1.17-.19-.08ZM88.8,85l.1,0c0,.07.07.12.06.12l-.51.32Zm1.67.93c0,.07.07.14.11.22-.43.5-.54.52-1.39.24l-.08-.17Zm5,2.1.54-.24.34.4.14-.06c.29.34.11.42-.28.44a1.75,1.75,0,0,0-.29.07Zm.8-.24-.07-.08h0Zm5.22-.6,0,.09-.36,0Zm2.4-.86-.42,0c-.45-.08-.92-.14-1.38-.21l.77-.26.23,0,1.16-.17v0c.06.17.1.34.15.51Zm1.6-4.1-.14-.07,0-.37,0,0C105.41,82,105.43,82.09,105.46,82.23Zm3.37,1.06,1.33.83-.34.67-1.49-.57C108.5,83.9,108.66,83.6,108.83,83.29Zm3.8-1-.17-.07-.39-.67.54-.15s0,.09,0,.14l-.23.34.25.13C112.62,82.09,112.63,82.17,112.63,82.27Zm0-1.43a.59.59,0,0,0-.1-.1,5.73,5.73,0,0,0-1-.36h.95A3.09,3.09,0,0,1,112.59,80.84ZM110,79.19h-.89c0-.1-.07-.2-.09-.31l.78-.11A2.52,2.52,0,0,1,110,79.19Zm-1.72,0h-.71a.3.3,0,0,1,0-.08l.69-.1Zm-1-.46c0-.21,0-.47,0-.71l.44-.12a2.6,2.6,0,0,1,.41.78Zm-.76,0h-.6l-.08-.32.73-.2C106.53,78.36,106.52,78.53,106.5,78.71Zm-1.23,0h-.1l0-.13.11,0Zm-1.64-.29,0-.07,1.57-.7,0,.44Zm2-3,0,0-.26.18-1.06-.46.41-1.09.9.29.1-.29c.74.23.6.61.14,1.14A2.85,2.85,0,0,0,105.61,75.4Zm-3.69-14.83a4.28,4.28,0,0,1,.24-1.12c0-.06.13-.1.23-.15C102.26,59.73,102.09,60.15,101.92,60.57Zm-.43-.73-.72,1.09.47-1.29Zm-1.35.93-.33-.29.6-.62A5.65,5.65,0,0,0,100.14,60.78Zm-3.73-1.9h0l.18.33-.15.06,0-.39-.19-.09s-.07.06-.06.09,0,.29,0,.44a6.28,6.28,0,0,1-1.65,0c.65-1,1.56-.9,2.49-.89a2.65,2.65,0,0,1-.58.41v0Zm-2.72,1.89a2.3,2.3,0,0,1,1.4-.54l-.94.64C94,60.83,93.87,60.82,93.69,60.77ZM91,63l-.2-.06.43-1.17a4.29,4.29,0,0,0,.65.63Zm1-.91-.47-1,.44-1.18A1.82,1.82,0,0,1,92,62.1Zm-1-2.16-.39-.82c0-.14.09-.27.13-.4a4.09,4.09,0,0,1,.85.66Zm-5.12-3.45.06-.12.2.33A2.45,2.45,0,0,1,85.83,56.49Zm-2.2,2.14-.51-.6.2-.77.74,1Zm-.24,1.48-.17.62-.13.26-.54-.75.19-.72Zm-1.59.55c0,.15,0,.31,0,.46h-.45c0-.26.07-.51.11-.77A2.92,2.92,0,0,0,81.8,60.66ZM79.46,59.3c0,.17,0,.34,0,.51-.08-.2-.13-.4-.2-.6Zm-2.11-.68-1-.28-1.42-.69C76.14,57.55,76.94,57.84,77.36,58.63ZM71.47,70.48l-.8-1.29-.19-.62c.44.75.86,1.5,1.3,2.25A1.62,1.62,0,0,1,71.47,70.48Zm-4.09-2.23-.19-.35s0,.09,0,.13l-.73-.73a1.69,1.69,0,0,0-.1-.8L68.18,69Zm-.12.9s0,0,0,.07L66.9,69A2.52,2.52,0,0,1,67.26,69.15Zm-1.9.86h0Zm-.79.85c-.15-.06-.28-.13-.42-.2a1.53,1.53,0,0,1,.69.08Zm-2.74-.09.36.4-.31.14a5.52,5.52,0,0,0-.5-.34,3.4,3.4,0,0,1,.43-.21Zm-4.55.28h-.07l-1.28-.29Zm-1.68,1.14h-.07v0ZM54.49,72v.06l-.45,0Zm.3,1.51.15.07-.11.06S54.82,73.61,54.79,73.55ZM53.3,74.82l.25-.1.08.22ZM52,76.07l2.08-.85,1,.52-.14.08.1.24.39-.15a20.77,20.77,0,0,0,6.36,2.34l.28.19c0,.06,0,.13-.07.19a7.85,7.85,0,0,1-.89-.12C58.09,77.69,55.07,76.85,52,76.07Zm9,3.53-1.31,1.22h0l-.24.23-.29-.15-.17.25.27.09-1.42,1.32C58.62,80.31,59.55,79.47,61.05,79.61Zm-4.19,1.51-1.77,2.43C55.08,82.09,55.63,81.33,56.86,81.11Zm-7.41,5.71-.3-.13,1.2-1.95.41.15C50.33,85.54,49.89,86.17,49.45,86.82Zm1.4-.31-.25-.11c.75-1.08.59-2.56,2.23-3.24l.22.12Zm4-4.32-1.64,2.43C53.38,83,53.77,82.41,54.85,82.19Zm0,4c.34-.28.7-.54,1-.83.8-.69,1.54-1.42,2.3-2.15l.5.16-2.78,2.8Zm1.37.22c.33,0,.66.06,1,.07l-.83.89.18.11,1.26-1h.22l-.65,1,.14.09-3.2.4Zm9.53.7a6.74,6.74,0,0,1-2.38.63,8.42,8.42,0,0,0,1.07-.4c.31-.15.61-.33.91-.5l.4-.1Zm4.62-.46,2.61.19-.2.22.08.06A1.9,1.9,0,0,1,70.39,86.66Zm2.07,1.62c.77,1.41.74,2.17,0,2.47C72.42,89.91,71.88,89.2,72.47,88.28Zm-.25,3.83c.22-.5.38-.84.54-1.18.16.11.43.18.49.34C73.42,91.76,73,91.9,72.22,92.1Zm1.27.46c-.28.3-.58.59-.87.88l-.4-.25c.22-.32.47-.65.69-1ZM73,94.31a5.42,5.42,0,0,1-.79.35c.1-.35.09-.61.21-.69a4.37,4.37,0,0,1,1-.53c.07,0,.2.16.3.25C73.46,93.9,73.25,94.12,73,94.31Zm.38-5.45A3.47,3.47,0,0,1,73,88c0-.13.31-.38.63-.76.07.63.12,1,.16,1.44ZM74.88,90c-.21-.46-.4-.94-.6-1.41C75.2,88.85,75.26,89,74.88,90Zm.33-2.4c0,.65-.24,1-1,.91l-.32-1L75,86.3c.07,0,.13-.06.21,0C75.21,86.72,75.18,87.16,75.2,87.61Zm3-2.76L79,86.1C78,86.35,77.81,86.1,78.19,84.85Zm.45-.49c0-.08.2-.27.35-.42l.05,0,.9.85C79,85.15,78.78,84.79,78.65,84.36Zm2.75,3.76a8.3,8.3,0,0,1-1.17.51c-.14-.74-.28-1.4-.45-2.26l1.37.07-.05.25-1,.45c0,.07,0,.13,0,.2a3,3,0,0,1,1-.24,4,4,0,0,1,1.07.39A5.73,5.73,0,0,1,81.4,88.12Zm1.15-2.49c-1.14.42-1.34.39-1.49-.34l1.56.11C82.6,85.49,82.57,85.56,82.55,85.64Zm.64-1.6,0,0c0-.29,0-.56.05-.81l.22-.11.31.32A4.47,4.47,0,0,1,83.19,84Zm1-.25c0-.09,0-.18,0-.28l.3-.09-.11.34Zm1.21,0h0l-1,.82-.06,0,.29-.53.7-.31.08.06h0l0-.07.1,0v.08l0,0Zm.4.47h.11v0Zm.4.12,0,0h0Zm.72.1s.06-.06.09-.06l0,.07Zm1,.53.33-.16.15.1c0,.17-.07.36-.11.55l0,0A3,3,0,0,1,87.93,85Zm1.84,1.65c-.26.46-.42.46-1.26,0,0,0,0-.1,0-.16ZM89.85,89a8.89,8.89,0,0,1-.86-.5A4.65,4.65,0,0,1,88.5,88a4.2,4.2,0,0,1,.92-.12,2.87,2.87,0,0,1,.75.3l.05-.13-.72-.44c0-.05,0-.11,0-.17l1.12.13C90.33,88.14,90.11,88.56,89.85,89Zm.35-1.66c-.05-.12-.11-.25-.18-.37l1-.16.16.31Zm.55-.89.9-.46c.09.13.27.31.24.36C91.69,86.67,91.44,86.87,90.75,86.49Zm.54,1,.87-.73C92.25,87.67,92.07,87.82,91.29,87.51ZM94.09,89c.09-.29.14-.6.22-.9.07,0,.11,0,.16,0l.67,1-.43.61C94.13,89.73,94,89.47,94.09,89Zm.61,4.8a6.75,6.75,0,0,1-.46-.51c.1,0,.25-.15.29-.13a3.42,3.42,0,0,1,.7.49c.08.07,0,.24,0,.49A3.93,3.93,0,0,1,94.7,93.84Zm.45-.53-.54-.71.52-.15c.13.25.26.5.39.75ZM95,91.76c.08-.1.3-.11.46-.16.06.25.12.5.22.87C95.13,92.23,94.8,92.08,95,91.76Zm.76-.23c-.58-.31-.46-.82.4-1.67C96.5,90.56,95.94,91,95.79,91.53Zm1-1c.47.62.08,1-.1,1.45C96.33,91.65,96.38,91.22,96.78,90.57ZM96.05,89l.07,0L96,88.84l2.15.22A1.83,1.83,0,0,1,96.05,89Zm3.65-1.1c.18-.26,1-.33,1.82-.27l-.32,0a2.2,2.2,0,0,0,1.44.14l.3.1c0,.06,0,.11,0,.18Zm5.07-.34-.16,0,.15,0Zm-.09-.32a1.36,1.36,0,0,0-.54.26l-.8-.08s.06,0,.06-.07l-.32,0-1.6-.15,2.8-.31a1.74,1.74,0,0,0,.1-.19h.16Zm.38-1.05h0c.4-.15.83-.25,1.21-.43a3.94,3.94,0,0,0,.43.78l-1,0Zm4.76.08a8.69,8.69,0,0,1-1.14-.33c.07-.21.13-.58.23-.59a4.78,4.78,0,0,1,1.43,0c.18,0,.3.4.61.82A4.47,4.47,0,0,1,109.83,86.31Zm5.53-1.79-.27-.5.51.28,0,.08Zm.2-.38-.62-.41-.37-.7.47.25.3.14Zm1.48-.61c-.27-.15-.53-.33-.79-.51l-.08-.16v0l1,.35c.07.19.16.37.23.56ZM120,85.68l-.17-.08.14-.07Zm-1-.5h0Zm.23.4.79.58c0,.29.06.59.07.92Zm3.85,3.59-.66-1.92.83.45A6.38,6.38,0,0,1,123.1,89.17ZM128.35,92c.27,1,.54,2,.8,3.06l-.39.11c-.32-1-.64-2-1-3.05Zm-2.45-2.86c1.72,1.37,1.07,3.44,1.64,5.15l-.33.1c-.53-1.71-1.07-3.42-1.6-5.13Zm-.89,2c-.4-1.28-.79-2.57-1.19-3.85C125,87.87,125.29,88.82,125,91.15Zm-1.73-3.49c-.29-.21-.59-.4-.89-.59l-.61-1.79A2.38,2.38,0,0,1,123.27,87.65Zm-3.4-2.56-.13-.09-1.21-.66-1.27-2.23C118.68,82.25,119.5,83.14,119.87,85.09Zm-4.39-4.55a8.55,8.55,0,0,1,1.29,1.54c.15.31.26.63.38.94L116,82.56l-.36-.7.53.11c-.19-.09-.39-.12-.58-.2l-.49-.94Zm-1.18-.11c.14.33.24.67.36,1-.2-.06-.4-.17-.6-.21a2,2,0,0,0-.48,0l-.44-.82h.63c0-.06,0-.11,0-.17l-.71-.06-.19-.35.23-.3C113.49,79.8,114.12,80,114.3,80.43Zm-4.64-1.86-.72,0c0-.23-.1-.45-.13-.72A1.77,1.77,0,0,1,109.66,78.57Zm-2.4-.91c0-.11,0-.18,0-.29a1.88,1.88,0,0,1,.22.25Zm-.74-.33a2.37,2.37,0,0,1,0,.48l-.83.17-.14-.52.73-.33C106.41,77.2,106.5,77.26,106.52,77.33Zm-1-.17-.11-.43c.22.11.41.19.59.26Zm.65-1c0-.07.05-.15.08-.21l-.35-.15L108.17,74l.48.11A2.67,2.67,0,0,1,106.13,76.13Zm4.34-1.82a1.26,1.26,0,0,1,0-.14l1,.05-.31.24Zm8-3.53-.06-.35,3.17-.61C120.6,71.17,119.54,70.92,118.5,70.78Zm1.65-1.61c.33,0,.66,0,1,0a7.2,7.2,0,0,0-4.43,2.65l1.06.45c-1.45,1-2.78,1.88-4.1,2.76l-1.12-.26.66-.48,1.29.07a.33.33,0,0,0,0-.06l-1.15-.11c1.11-.79,2.22-1.59,3.32-2.39v.05l0,0h0a11.19,11.19,0,0,1,1.17-1.49c.39-.35.8-.69,1.2-1A5.7,5.7,0,0,1,120.15,69.17Zm-8.61-2.39-.35.47a3.3,3.3,0,0,0,2-1.58,3,3,0,0,1,.48-.19l.23.27-4.37,3.79C109.48,68.86,110.45,67.7,111.54,66.79Zm-2-2.69-1.38,2.78-.49.55-.44-.34Zm-2.65-2c-.48.68-1.07,1.34-1,2.15-.73.82-1.63,1.56-1.25,2.9l.29-.32c-.28.79-.56,1.58-.83,2.37l-.52.17,1-2.19,0,0s0,0,0-.07h0l-.27-1.32.32-.88-.47.13-.18-.88-.65,1.11h0l-.92,1.59-.16-.08c0-.39.08-.77.12-1.16h0c0-.1.07-.19.11-.29l.85-.06-.45-.8c.32-.65.66-1.3,1-1.94a1.75,1.75,0,0,1,.44,0l.09.43a1.81,1.81,0,0,0-.34,1.5,1.53,1.53,0,0,0,.58-.28l.06.32.15-.62a1.17,1.17,0,0,0,.13-.51l.19-.79.5-.16a6.3,6.3,0,0,0-.15,1.14l.71-1.31Zm2.1-5.06-.47.64-.28-.13a4.61,4.61,0,0,0-.45.78c-.07.18-.12.37-.18.55a11.89,11.89,0,0,0-1.45,2.38c-.16-.25-.38-.49-.37-.73,0-.06,0-.12,0-.19l.63-2.56Zm-3.19.95v0l.09,0-.07.09,0-.07h0l-.06.22a8,8,0,0,0-1.3,2.83,4,4,0,0,0-.4.2c-.19-.32-.54-.64-.53-1A2.44,2.44,0,0,1,105.79,58ZM103,60.15a5.56,5.56,0,0,1-.47.9,14.11,14.11,0,0,1,.28-1.9l.31-.11A5.55,5.55,0,0,1,103,60.15Zm-4.79-5.61c1.36-.26,2.75-.32,4.14-.46,0,.1,0,.19.08.29l-5.16,1.47L97,55.56C97.39,55.2,97.74,54.62,98.18,54.53Zm1.66,2.07-2.19.72.21-.83a6.59,6.59,0,0,0-.4.9L95.61,58C96,56.4,97.43,55.89,99.84,56.6ZM90,52.87l1.22,2.54-.32,1,.28.05.19-.76,1,2.07,0,0L92.3,58l.17.06a3.09,3.09,0,0,0,.42.89c.18.23.58.3.88.44l0,.07-.81,1.1c-.23-.5-.46-1-.68-1.44l.12-.32-.12-.09-.13.13c-.26-.57-.52-1.17-.81-1.71-.43-.84-1-1.6-1.42-2.44A6.29,6.29,0,0,1,89.58,53Zm-1.4-.63-.56.07c-.14-1.46-.27-2.92-.42-4.38C88.94,49.22,88.62,50.75,88.59,52.24Zm-4.16-2.8A4.37,4.37,0,0,1,86,53.3a15.83,15.83,0,0,1-1.14-2.9l.2,1.14Zm-.67,2.38.16.29-.3.12L83.47,52Zm.14,3.59-.13.11.06-.24Zm-1.83.12L83,56.8c-.1.24-.2.48-.3.72l-.77-.92C82,56.24,82,55.88,82.07,55.52Zm-1.92.06,1.07,1.49,0,.18-1-.7C80.15,56.23,80.15,55.91,80.16,55.58Zm-.62,2.49-.06,1-.4-.35c-.19-.57-.36-1.13-.52-1.71Zm-3.28-3.62c.49.58,1,1.16,1.47,1.72L78,57.85l-.4-.34Zm-7-.8,2.53.53c0,.12-.06.24-.1.37l-2.53-.62C69.16,53.83,69.2,53.74,69.23,53.65ZM69.78,55a1.71,1.71,0,0,0,.08-.22c1.43.37,3.14-.09,4.27,1.08L74,56Zm5.9,2.26-3.19-.78C74.42,56.25,75.2,56.43,75.68,57.24Zm-1.43.49.06.07-.19-.05Zm1.31,2.67c.4.18.79.38,1.19.55s.55.19.83.28l.1.46.28-.11-.07-.24.1,0c.2.18.37.37.23.61l-2.4-1Zm-2.41.07.77.41,0,.07a3.39,3.39,0,0,0-.35-.07l.29.16-.09.13h0C73.52,60.92,73.33,60.7,73.15,60.47Zm-1.71.31,0,.07-.75-.16-.83-.81Zm.22.88c.65.34,1.3.67,1.94,1a1.91,1.91,0,0,1,0,.26,1.46,1.46,0,0,1,.56.14c.19.16.39.31.57.47l.1.06h0l.07,0a3.8,3.8,0,0,0,.68.81l.26-.15-.13-.22.21.12,0,0,0,.41-.73-.16a6.34,6.34,0,0,0-.75-.54c0-.12.07-.24.41-.34h0l-.06-.06-.59-.37-.08.56-.28-.17a1,1,0,0,0-.09.29s0,.09,0,.14l-.27-.06a1.52,1.52,0,0,0-.53-1.17C72.46,62.42,72.07,62,71.67,61.66Zm-2.56,1.48.28.6h0l.06.13,0-.13a6.86,6.86,0,0,0,1,0,.52.52,0,0,1,.24,0l-.09,0,.58,2.83.37,1.88c-.7-1.55-1.41-3.08-2.11-4.61.33,1.16.59,2.35,1,3.49l-.48-.69-1.09-3.55Zm-1.18-.05.53,0c.23.84.47,1.67.71,2.51L67.63,63.4c.57,1.09,1.14,2.18,1.75,3.26l.16.27.21.75c-.71-1.16-1.4-2.33-2.14-3.46.42,1.07.8,2.17,1.29,3.2l-.78-1.13-1.28-3.07a20.94,20.94,0,0,0,.67,2.86,27.8,27.8,0,0,0-2.7-3.26l2.56.21.26.37-.2-.37Zm-6.67-.21,1,1.61.31-.15-1.12-1.48a17,17,0,0,1,1.91-.11c.24,0,.48,0,.72,0l.81,1.37-.54-1.35.42,0,3.16,4.57c.12.32.26.64.39,1l-2.46-3-.06,0a4,4,0,0,0-.81-1,6,6,0,0,0,.94,2.46L63.3,64.18c.42.61,1.3,1.75,2,3,.22.37.42.77.62,1.15a24.5,24.5,0,0,0-3.23-2l3.19,2.68a.57.57,0,0,0-.1.24c-.91-1-2.34-1.63-3.36-2.58l1.12,1.82-2.71-1.29h0l-4.65-3.74A48.57,48.57,0,0,0,61.26,62.87Zm2.41,6.59.21-.17a5.48,5.48,0,0,0-.54-.47l.77.45.48.77-.21,0Z" style="fill:#6ec829"/><path d="M65,64.34s0,0,0,0l-.09-.16.06.16Z" style="fill:#6ec829"/><path d="M95.42,88.75v0h0Z" style="fill:#6ec829"/><polygon points="96.6 79.75 96.6 79.75 96.6 79.76 96.6 79.75" style="fill:#6ec829"/><path d="M90.57,90.78h0c-.07.19-.17.37-.24.54h0l1.46.86.14-.05a3.27,3.27,0,0,0-.32-.42c-.34-.31-.69-.62-1-.93h0Z" style="fill:#6ec829"/><path d="M93.94,90.69h0Z" style="fill:#6ec829"/><path d="M105.78,93.94c-1.26-1.4-1.52-1.58-2.14-1.46l.61.9-.85-.23c-1.52-.41-3-.84-4.56-1.25a1.27,1.27,0,0,0-.51.05,26.64,26.64,0,0,0,7.21,2A1.14,1.14,0,0,0,105.78,93.94Z" style="fill:#6ec829"/><path d="M104.74,92.43l-.07.15c.53.51,1.44.74,1.68,1.58a6.49,6.49,0,0,1,3,1.19c-1.17-.83-2.38-1.59-3.6-2.35C105.43,92.79,105.08,92.61,104.74,92.43Z" style="fill:#6ec829"/><path d="M109,92.3a.46.46,0,0,0,0-.1l-2.23-.84c0,.06,0,.12-.05.18Z" style="fill:#6ec829"/><polygon points="96.6 79.76 96.6 79.76 96.6 79.75 96.6 79.76" style="fill:#6ec829"/><path d="M92.09,93.18c-.05.55.39.67.79.83C92.94,93.58,92.58,93.39,92.09,93.18Z" style="fill:#6ec829"/><path d="M264.8,132.83c-56.74-1.82-96.35,28.07-154.42,25.73a139.78,139.78,0,0,1-19.17-2.12c-.18-.69-.39-1.43-.69-2.27a77.59,77.59,0,0,1-4.35-33.8c1-13.12.51-28.5-.72-33.33s-2.72,2.69-2.72,2.69,2.2,27.64.14,41.66a68.63,68.63,0,0,0,.34,23.36C50.67,146.92,31.48,130,31.48,130s26.79,36.73,70.77,39.93,82.32-9.69,106.88-17.69,86.18-22.94,120.67,9.5C329.8,161.73,321.54,134.67,264.8,132.83Z" style="fill:#6ec829"/><path d="M105.36,177.45c62.49,3.76,109.61-33.1,170.68-30s60.41,32.19,60.41,32.19c-35.91-37.84-97.23-21.09-124-12.38s-68.54,22.57-115.81,18.08-74.14-46.19-74.14-46.19S52.87,174.29,105.36,177.45Z" style="fill:#006db6"/><path d="M188.38,95.51a4.26,4.26,0,0,1-4.27,4.26h0a4.26,4.26,0,0,1-4.25-4.26h0a4.26,4.26,0,0,1,4.25-4.27h0a4.27,4.27,0,0,1,4.27,4.27Z" style="fill:#6ec829"/><path d="M222.25,95.51A4.26,4.26,0,0,1,218,99.77h0a4.26,4.26,0,0,1-4.26-4.26h0A4.27,4.27,0,0,1,218,91.25h0a4.27,4.27,0,0,1,4.26,4.27Z" style="fill:#6ec829"/><path d="M264.2,95.51a4.26,4.26,0,0,1-4.26,4.26h0a4.26,4.26,0,0,1-4.26-4.26h0a4.26,4.26,0,0,1,4.26-4.27h0a4.26,4.26,0,0,1,4.26,4.27Z" style="fill:#6ec829"/></svg>