<svg id="Layer_1" data-name="Layer 1" xmlns="http://www.w3.org/2000/svg" xmlns:xlink="http://www.w3.org/1999/xlink" viewBox="0 0 1404.74 170.16"><defs><linearGradient id="linear-gradient" x1="48.52" y1="768.77" x2="49.53" y2="768.77" gradientTransform="matrix(-485.87, 748.17, 748.17, 485.87, -550629.43, -409797.93)" gradientUnits="userSpaceOnUse"><stop offset="0" stop-color="#fff"/><stop offset="0.58" stop-color="#fff"/><stop offset="0.64" stop-color="#c9c9c9"/><stop offset="0.71" stop-color="#8d8d8d"/><stop offset="0.78" stop-color="#5a5a5a"/><stop offset="0.85" stop-color="#333"/><stop offset="0.91" stop-color="#171717"/><stop offset="0.96" stop-color="#060606"/><stop offset="1"/></linearGradient><clipPath id="clip-path" transform="translate(-23.5 -296.84)"><rect x="8.78" y="315.94" width="1440" height="152.06" style="fill:none"/></clipPath><clipPath id="clip-path-2" transform="translate(-23.5 -296.84)"><rect x="47.78" y="315.94" width="1366.83" height="152.06" style="fill:none"/></clipPath><filter id="luminosity-noclip" x="-44.25" y="-342.81" width="1540.25" height="1467.56" filterUnits="userSpaceOnUse" color-interpolation-filters="sRGB"><feFlood flood-color="#fff" result="bg"/><feBlend in="SourceGraphic" in2="bg"/></filter><mask id="mask" x="-67.76" y="-639.65" width="1540.25" height="1467.56" maskUnits="userSpaceOnUse"><g style="filter:url(#luminosity-noclip)"><g transform="translate(-23.5 -296.84)"><polygon points="1496 360.05 1011.55 1124.75 -44.25 421.89 440.19 -342.81 1496 360.05" style="fill:url(#linear-gradient)"/></g></g></mask><clipPath id="clip-path-3" transform="translate(-23.5 -296.84)"><rect x="14.72" y="331" width="1422.3" height="137" style="fill:none"/></clipPath><clipPath id="clip-path-4" transform="translate(-23.5 -296.84)"><rect x="877.28" y="279.94" width="570.78" height="118.12" style="fill:none"/></clipPath></defs><title>nav-background-3</title><g style="clip-path:url(#clip-path)"><g style="clip-path:url(#clip-path-2)"><g style="mask:url(#mask)"><g style="clip-path:url(#clip-path-3)"><rect y="41.16" width="1404.74" height="129" style="fill:#006db6"/></g></g><g style="opacity:0.10000599920749664"><g style="clip-path:url(#clip-path-4)"><path d="M1037.83,381.13c105.26,6.68,184.62-58.74,287.49-53.15s101.75,57.12,101.75,57.12c-60.48-67.15-163.77-37.43-208.87-22s-115.44,40-195.07,32.08-124.88-82-124.88-82,51.17,62.29,139.58,67.88" transform="translate(-23.5 -296.84)" style="fill:#fff"/><path d="M913.39,296.84s52.88,69.69,137,71.75c70.4,1.72,93-10.16,130.36-21.63,37.1-11.39,155.17-63.92,235.1,6.21,0,0-19.05-58.06-126.84-51.27-103.58,6.52-124.4,42.2-224.62,45.78,0,0-87.65,3.13-151-50.84" transform="translate(-23.5 -296.84)" style="fill:#fff"/></g></g></g></g></svg>