<svg id="Layer_1" data-name="Layer 1" xmlns="http://www.w3.org/2000/svg" xmlns:xlink="http://www.w3.org/1999/xlink" viewBox="0 0 166.39 84.48"><defs><clipPath id="clip-path" transform="translate(-512 -330.52)"><rect x="512" y="330.51" width="166.39" height="84.49" style="fill:none"/></clipPath></defs><title>logo</title><g style="clip-path:url(#clip-path)"><path d="M595.09,380.2c-1.93-.14-3.73-.22-5.4-.22s-3.31.08-5.31.22v-1.38h.89q2.67,0,2.68-3.16V357.14a1.72,1.72,0,0,0-.67-1.6,3.47,3.47,0,0,0-1.74-.31h-1.16v-1.47c2,.15,3.76.22,5.31.22s3.47-.08,5.4-.22v1.43a7.57,7.57,0,0,1-.89,0h-.53c-1.46,0-2.18.7-2.18,2v17.33a9.21,9.21,0,0,0,.31,2.86,2.08,2.08,0,0,0,2.14,1.39h1.16Z" transform="translate(-512 -330.52)" style="fill:#006db6"/><path d="M612.17,380.2c-1.93-.14-3.73-.22-5.4-.22s-3.32.08-5.31.22v-1.38h.89q2.68,0,2.68-3.16V357.14a1.73,1.73,0,0,0-.67-1.6,3.48,3.48,0,0,0-1.74-.31h-1.16v-1.47q3,.22,5.31.22,2.5,0,5.4-.22v1.43a7.55,7.55,0,0,1-.89,0h-.54c-1.45,0-2.19.7-2.19,2v17.33a9.22,9.22,0,0,0,.31,2.86,2.08,2.08,0,0,0,2.14,1.39h1.16Z" transform="translate(-512 -330.52)" style="fill:#006db6"/><path d="M638.48,353.6l-.31,6.51H637q0-3.84-2.45-3.83h-5v18.77c0,1.72.23,2.85.69,3.37a3.33,3.33,0,0,0,2.56.78v1.16q-2.68-.23-5.26-.23t-5.44.23V379.2a3.29,3.29,0,0,0,2.54-.8q1.07-1.12,1.07-4.55V356.28h-5.13a2.33,2.33,0,0,0-2,1.47,5.09,5.09,0,0,0-.63,2.37h-1.2l-.27-6.51q5.85.22,10.93.22t11.1-.22" transform="translate(-512 -330.52)" style="fill:#006db6"/><path d="M667.82,376.64l-.89,2.09c-.09.24-1.06.64-2.9,1.21a22.65,22.65,0,0,1-6.56,1q-10.62,0-14-10.88a18.9,18.9,0,0,1-.31-3.25q0-10,9.23-13.11a17.78,17.78,0,0,1,5.49-.72,36.83,36.83,0,0,1,9.68,1.61l-.89,6.2h-1.16a9.09,9.09,0,0,0,.13-1,4.22,4.22,0,0,0-1.88-3.36,8,8,0,0,0-4.87-1.46h-1.16a10.22,10.22,0,0,0-7.24,2.8,10.4,10.4,0,0,0-3.31,8.06c0,.09,0,.25,0,.49a4.83,4.83,0,0,1,0,.54q.63,6.14,4.38,9.21a11.7,11.7,0,0,0,7.69,2.58,13.57,13.57,0,0,0,8-2.28Z" transform="translate(-512 -330.52)" style="fill:#006db6"/><path d="M539.62,341.84l.6.68-.53-.73-.07.06" transform="translate(-512 -330.52)" style="fill:#6ec829"/><path d="M549.15,339.31c-.83,1.53-.88,1.81-.44,2.25l.64-.83.19.76c.33,1.37.65,2.74,1,4.11,0,.15.2.26.31.39a18.43,18.43,0,0,0-1.56-6.51c0-.06-.09-.11-.14-.18" transform="translate(-512 -330.52)" style="fill:#6ec829"/><path d="M541.45,348.32h0" transform="translate(-512 -330.52)" style="fill:#6ec829"/><path d="M549.08,338.77c-.56-.83-.31-1.84-.27-2.84-.29,1.25-.47,2.5-.64,3.76,0,.34-.06.68-.09,1h.2c.26-.62.05-1.43.8-1.94" transform="translate(-512 -330.52)" style="fill:#6ec829"/><path d="M564.14,350.57a6.48,6.48,0,0,0-2,1.08l.1.15-.62.38.07.16,1.54-.86-.07-.11.44-.26.05.08c.59-.35,1.16-.73,1.73-1.12l.32-.19-.11.05a31.55,31.55,0,0,0,2.53-1.9l-4,2.53" transform="translate(-512 -330.52)" style="fill:#6ec829"/><path d="M545.58,342.09l-1.22-3.75c.36,1.27.31,2.67,1,3.85l.25-.1" transform="translate(-512 -330.52)" style="fill:#6ec829"/><path d="M546.17,339.5l-.35-2.09h-.11l.26,2.11.2,0" transform="translate(-512 -330.52)" style="fill:#6ec829"/><path d="M565.16,346.66l-1.37,1.41.16.15,1.25-1.52,0,0" transform="translate(-512 -330.52)" style="fill:#6ec829"/><path d="M547.25,336.66h-.1q0,.91,0,1.82h.18c0-.61,0-1.22-.07-1.82" transform="translate(-512 -330.52)" style="fill:#6ec829"/><path d="M562.37,347.62l-.09.12v0l0,0,.07-.12" transform="translate(-512 -330.52)" style="fill:#6ec829"/><path d="M563.12,346.36l-.74,1.26.92-1.15-.17-.12" transform="translate(-512 -330.52)" style="fill:#6ec829"/><path d="M561.29,346l-.53.73.6-.67-.07-.06" transform="translate(-512 -330.52)" style="fill:#6ec829"/><path d="M565.77,354.77c-1.67-.48-2-.48-2.3,0l1,.45-.71.35c-1.27.61-2.54,1.22-3.8,1.84-.14.07-.22.26-.32.39a18.49,18.49,0,0,0,6-2.9.88.88,0,0,0,.14-.18" transform="translate(-512 -330.52)" style="fill:#6ec829"/><path d="M564.19,354l0,.2c.66.13,1.41-.25,2.06.37.69-.73,1.73-.69,2.72-.87-1.29,0-2.55.08-3.81.17-.34,0-.67.09-1,.13" transform="translate(-512 -330.52)" style="fill:#6ec829"/><path d="M565,351.9l2-.79,0-.1-2,.69.07.19" transform="translate(-512 -330.52)" style="fill:#6ec829"/><path d="M556.15,363.13c.29.56.66.38,1,.26-.21-.44-.57-.38-1-.26" transform="translate(-512 -330.52)" style="fill:#6ec829"/><polygon points="29.86 33.96 29.86 33.96 29.86 33.96 29.86 33.96" style="fill:#6ec829"/><path d="M537.39,363.73h0" transform="translate(-512 -330.52)" style="fill:#6ec829"/><path d="M533.42,364.64l-.57.06.53-.61c-.37-.17-.56-.06-1.57.83a.34.34,0,0,0,.14,0,15,15,0,0,0,4.86-.59c-.1,0-.2-.12-.32-.11l-3.07.37" transform="translate(-512 -330.52)" style="fill:#6ec829"/><path d="M532.72,364a.83.83,0,0,1,0-.12c-.24.1-.49.19-.73.3-.89.41-1.77.83-2.65,1.32a3.91,3.91,0,0,1,2.08-.52c.29-.6.9-.66,1.32-1" transform="translate(-512 -330.52)" style="fill:#6ec829"/><polygon points="29.92 34.41 29.92 34.41 29.92 34.41 29.92 34.41" style="fill:#6ec829"/><path d="M540.78,365.33l.07.06,1.06-.46-.06-.44h0c-.27.19-.55.38-.81.57a2,2,0,0,0-.27.28" transform="translate(-512 -330.52)" style="fill:#6ec829"/><path d="M531.62,362.86l-1.54.35s0,0,0,.07l1.55-.29Z" transform="translate(-512 -330.52)" style="fill:#6ec829"/><path d="M540.51,366.1c-.34.1-.6.19-.63.53.27-.07.58-.1.63-.53" transform="translate(-512 -330.52)" style="fill:#6ec829"/><path d="M539.88,366.63h0" transform="translate(-512 -330.52)" style="fill:#6ec829"/><path d="M518.81,355.86a26.2,26.2,0,0,0,2.51-.92,18.87,18.87,0,0,1,9.45-1.47l.33,0,.21.2h-.05c-.37,0-.73,0-1.09-.06l-1.1-.11-.05.12.19,0c-.39-.08-.78-.16-1.18-.23a6.57,6.57,0,0,1,1.71.65,2.69,2.69,0,0,0-.33.29,2.57,2.57,0,0,0-.7-.15,5.74,5.74,0,0,0-.9.15l-1.34-.13a3.43,3.43,0,0,0,2.06.42l-1.68.44a3.69,3.69,0,0,1-.87,0l.6,0-.58.15v.07l1.05-.19h.06l0,.06c-.22.11-.44.23-.67.33l-.73.11c-.3,0-.61,0-.92.1a1,1,0,0,0-.5.26l1.47-.2-1.28.51-.12.07-.48.1.11.16-.68.28,0,0,.64-.13,0,0a4.87,4.87,0,0,0-.59.21l-.16.08-1.18.38a.08.08,0,0,0,0,0l.62-.15c-.37.18-.74.35-1.11.57l1.65-.65.07.12,0,0L520.12,359l0,0,2.79-1.08,0,0,.1-.06.07.09-3.15,2c1.89-.52,3.09-1.91,4.73-2.78.81-.42,1.69-.76,2.54-1.14l.64-.31.28.1c-.57.28-1.15.56-1.72.88l1.95-.78.19.1v0l-1,.51h0l-.17.09v0l.24-.1a14.61,14.61,0,0,0,4.6,1.4v.17a3.1,3.1,0,0,1-.72.07c-1.46-.24-2.9-.51-4.36-.77,0,0,0,.1,0,.15l4.1.88c-1.73.17-3.5,0-5.25.21l4.22.2,0,0-4.81.62s0,.07,0,.1l3.68-.25,0,.08c-.45.15-.89.32-1.34.45-1.1.29-2.2.56-3.28.92l3.09-.57,0,.06-4.16,1.42,0,.09,3.44-1,0,0c-.35.19-.68.4-1,.58s-.75.36-1.13.53-.79.33-1.18.49l.06.11,1.66-.54a3.65,3.65,0,0,0-.54.46,1.09,1.09,0,0,0-.08.42,3.93,3.93,0,0,0-.82.27,5.37,5.37,0,0,0-1.17,1l1.61-1,.1.07-2.24,2.12.06,0,.91-.73.09,0c-.12.2-.23.41-.38.6-.4.53-.82,1.06-1.23,1.58-.21.27-.11.4.26.39a7.63,7.63,0,0,0-.67.74,11.72,11.72,0,0,0-1,1.62l1-1.33.17.05c0,.16,0,.32-.05.51l1.18-2.35-.35.31c.65-.71,1.32-1.42,2-2.15.42-.48.8-1,1.23-1.53L525,363l.89-.06.47.37a.73.73,0,0,0-.94.35c-.51.85-1.08,1.69-1.56,2.57l1.31-1.69.23.09-.59,1,0,0,1.22-1.61h.6l-.25.49.17.07c.22-.26.46-.52.64-.79,0-.08-.09-.24-.14-.36a5.55,5.55,0,0,0,.74-.39c.44-.34.87-.69,1.3-1l.53,0-.87.88-.52.07a1.08,1.08,0,0,0-.37.12l.78-.07,0,0,0,0,3.28-.29,0,.06.22,0c-.5.17-1,.36-1.5.51s-1.09.29-1.63.43-1.12.3-1.67.49l1.83-.36,0,.07-.51.3v0l2.58-1c0,.12,0,.16,0,.17l-.65.44-1,.34a.21.21,0,0,0,0,0l-3.21,1.28v.06a2.12,2.12,0,0,1,.7-.24c.82.09,1.46-.62,2.21-.79a.7.7,0,0,0,.34-.29l.65-.2c-.46.31-.93.61-1.38.94s-.68.72-1.07,1-1.12.78-1.69,1.16l-.41.28,0,.08,1.79-1.1.06.06a1.82,1.82,0,0,1-.2.25c-.24.19-.5.36-.73.57a20.08,20.08,0,0,0-1.75,1.75l.24-.11.06,0-.55.56,0,0,.66-.51.07.06-1.42,1.67.07,0,.92-1,.1,0-1.74,2.69,0,.05a1.41,1.41,0,0,0,.29-.24c.46-.69,1-1.37,1.34-2.09a18.17,18.17,0,0,1,6.2-6.47l.27-.16c1.93.13,3.72.51,5.74-.06a.73.73,0,0,0-.26-.1c-.35,0-.71,0-1.05,0l-2.09,0,.33-.34a2.91,2.91,0,0,0-2,.08l.35-.21a2.69,2.69,0,0,1,.4-.16l.58.08a3.63,3.63,0,0,1,.63.21h0c.66,0,1.33.08,2,.08s1.09,0,1.64-.06h0c-.07-.09-.12-.21-.22-.25a2.58,2.58,0,0,0-.48,0l-2-.16,0-.15a2.87,2.87,0,0,1,.66-.12c.34,0,.67.13,1,.17s.92.07,1.41.1l-.39.44h0l-.56.45h0l-.62.66h0a1.35,1.35,0,0,1-.94.56c-1.21.25-2.42.54-3.63.81-.12,0-.25,0-.48.07l.6-.72a1.79,1.79,0,0,0-1.23.27c-.82.57-1.67,1.09-2.52,1.63,1,0,1.62-1,2.59-1.36l-.39.45.38.07c-1.13.12-1.59,1.22-2.43,1.75l1.57-1.11.08.07-1.51,1.56c-.2.2-.43.38-.63.6a.87.87,0,0,0-.22.47l1.74-1.75.13.1-1.9,2.22.17,0-.34.59,0,0,.4-.45.07,0-1.08,1.56,0,0,1-1.17.1.05-1.77,3.15,0,0,1.48-2.4.1,0-1.2,3.19c1.12-1.45,1.2-3.1,1.93-4.65.36-.77.83-1.51,1.23-2.26.1-.18.19-.37.3-.59l.41-.14h0l.09,0-.09,0a4.15,4.15,0,0,0,.22-.51c0-.14.39-.31.07-.42.18,0,.36-.11.53-.14,1-.18,2-.32,3.08-.52a12.49,12.49,0,0,0,1.28-.41l.06.09a1.84,1.84,0,0,1-.44.34c-.44.16-.9.27-1.35.42L531,367.07a14.67,14.67,0,0,0,4.56-1.4l.05.14a3.1,3.1,0,0,1-.39.23c-1.48.64-3,1.26-4.45,1.93a15,15,0,0,0,4.33-1.7l.1.12a2.77,2.77,0,0,1-.5.47c-1.23.67-2.46,1.32-3.7,2l.05.13,3.56-1.76c-1.19,1.12-2.6,2-3.79,3.17l3.26-2.29h0l-3.24,3.19.08.07,2.6-2.3.08,0c-.25.36-.48.73-.75,1.08-.65.84-1.31,1.66-1.91,2.53l2-2.17.05,0-2.28,3.39.08,0,2-2.68h0c-.14.33-.27.67-.43,1s-.35.68-.53,1-.4.68-.6,1l.11,0,.93-1.33a3.12,3.12,0,0,0-.14.63c0,.13.12.22.19.34a3.31,3.31,0,0,0-.46.66,4.83,4.83,0,0,0-.31,1.35l.64-1.6h.12c-.15.92-.3,1.84-.45,2.76H532l.25-1,.1,0c0,.21.06.42.07.63,0,.6,0,1.21,0,1.81,0,.31.14.34.42.12a6.8,6.8,0,0,0-.08.89,10.65,10.65,0,0,0,.22,1.68c0-.51,0-1,0-1.53l.16-.06.26.38c-.16-.76-.31-1.49-.48-2.3l-.08.41c.07-.87.16-1.75.22-2.62,0-.58,0-1.15,0-1.77l-.52.13.63-.55h.56a.67.67,0,0,0-.49.78c.11.89.17,1.8.32,2.68v-1.93l.22-.07.16,1.06h0c0-.62,0-1.25,0-1.83l.44-.35.1.49.16-.05a7,7,0,0,0,0-.92c0-.08-.2-.11-.31-.17a4.39,4.39,0,0,0,.33-.7c.2-.72.39-1.45.54-2.18s.3-1.54.39-2.31c.06-.5,0-1,.06-1.49a3.09,3.09,0,0,1,.25-.72h.18q-.4,3.09-.79,6.18h.06c.22-1,.44-2,.66-2.92h.19c-.06.62-.12,1.23-.18,1.85h.1l.26-1c0,.33.06.55.08.76h.09c.15-.68.3-1.36.47-2a3.5,3.5,0,0,1,.27-.59l0-.06h0a4.31,4.31,0,0,1,.14-.57c0-.07.14-.14.21-.21s.13.12.14.2a.53.53,0,0,1,0,.36c-.1.15-.21.46-.46.22h0l0,0c0,.11-.07.21-.1.32l.48-.2c0,.16.05.32.06.49s-.09.13-.07.16c.33.63-.3.9-.74,1.25l.86-.46c.09-.6.19-1.26.29-1.91h0a1.14,1.14,0,0,1,.75-1.06c.12,0,.26,0,.4.06-.07.14-.09.33-.2.42-.3.22-.63.4-.95.59h0a1,1,0,0,0,.34,0c.22-.09.42-.24.64-.31s.22,0,.34,0c-.06.11-.09.25-.18.32-.28.21-.59.39-.89.59a3,3,0,0,0-.27.25l.09.11,1.57-1.13c0-.24.08-.48.13-.71-.21-.37-.15-.6.2-.8-.05,0-.15-.06-.15-.09.23-.67-.1-1.18-.17-1.76l.72,1.33-.31.35.61.1c0-.26-.06-.51-.07-.77s0-.42.05-.63l.8-.32c0,.42-.78.27-.67.75l1-.31.11-.53.1.26.64-.42-.14-.15a6.23,6.23,0,0,0,1-.6,3.84,3.84,0,0,0,.58-.82,1,1,0,0,1,.26-1.1,2.11,2.11,0,0,1,.28-.15l-.15.49.11.05.24-.21a2.19,2.19,0,0,1,.27-.23.55.55,0,0,1,.16-.07v0c0,.15,0,.3-.06.46l.15.06.34-.49.11.05a.62.62,0,0,1,.13.16l.05-.08.42.19,0,.09-.78-.26a10.66,10.66,0,0,1,.93.57.6.6,0,0,1,0,.78,2.41,2.41,0,0,0,.32.63,4.76,4.76,0,0,0,.72.54l-.14.09.44.37.12-.16c0,.12,0,.25,0,.37l.73.34c.17-.3-.46-.31-.42-.6l.59.33a3.21,3.21,0,0,1-.07.43c0,.17-.12.34-.18.51l.51,0-.19-.28.82-.79c-.06-.39,0-.43.39-.46l-.38.45c-.16.38-.51.68-.45,1.16,0,0-.09,0-.13,0,.25.18.26.34,0,.56h0s0,0,0,0h0c0,.17,0,.33,0,.5l1.07,1,.09-.06a1.6,1.6,0,0,0-.18-.2c-.2-.18-.42-.34-.61-.52s-.06-.16-.09-.24a.73.73,0,0,1,.28,0c.16.09.3.21.46.3a.87.87,0,0,0,.27.06h0c-.22-.17-.46-.34-.66-.53s-.06-.2-.09-.3a.88.88,0,0,1,.33,0,.71.71,0,0,1,.41.82h0c0,.46-.07.91-.1,1.33l.62.42c-.29-.3-.75-.57-.38-.94,0,0,0-.09,0-.12s.09-.22.13-.32l.36.2,0-.23v0h0c-.25.13-.28-.1-.34-.21a.33.33,0,0,1,0-.25c0-.05.1-.08.15-.11s.13.11.14.17a3,3,0,0,1,0,.4h0v0a2,2,0,0,1,.11.43c0,.48,0,1,0,1.44l.08,0,.2-.5c0,.29,0,.5,0,.71l.08,0c.07-.42.13-.84.19-1.27l.15,0c0,.69,0,1.37,0,2.06h0q.22-2.13.45-4.25h.14a2,2,0,0,1,.08.52c0,.34-.18.66-.22,1-.06.53-.09,1.06-.09,1.6s0,1,.05,1.54a2.86,2.86,0,0,0,.14.51c-.1,0-.26,0-.28.07a4,4,0,0,0-.15.62l.13.06.17-.31.3.3c-.11.38-.23.8-.34,1.23h0l.31-.69.17.08-.34,1.3c.28-.57.49-1.18.73-1.76.11-.25,0-.43-.26-.6l.45.08.42.46-.4-.16c-.1.42-.22.8-.29,1.2-.11.59-.19,1.19-.29,1.79,0-.08,0-.16,0-.29L552.2,376l.27-.22.12.06-.26,1a6.32,6.32,0,0,0,.47-1.1,3.57,3.57,0,0,0,.1-.61c.19.18.31.18.36,0,.1-.4.21-.81.31-1.22a3.36,3.36,0,0,1,.17-.41l.07,0c0,.24,0,.49,0,.73h.06c0-.64.08-1.27.12-1.92l.09,0c.08.39.16.77.24,1.16a2.82,2.82,0,0,0,0-1,2.58,2.58,0,0,0-.26-.51c.07-.06.18-.11.21-.2a1.64,1.64,0,0,0,0-.45l.52,1h.1c-.1-.26-.21-.52-.3-.77s-.18-.51-.25-.76-.12-.49-.18-.72h0l1.13,2.07h.07l-1.25-2.59h0l1.22,1.73c-.33-.66-.73-1.31-1.1-2-.16-.27-.28-.55-.42-.83H554l1.7,1.9.07,0-2-2.59h0l2.24,2c-.76-.94-1.74-1.74-2.51-2.65l2.57,1.66.07-.08c-.89-.61-1.77-1.21-2.64-1.83a1.83,1.83,0,0,1-.32-.38l.1-.06a12.49,12.49,0,0,0,3.2,1.73c-1.07-.64-2.17-1.27-3.26-1.9a2.36,2.36,0,0,1-.27-.2l.07-.09a12.82,12.82,0,0,0,3.43,1.56l-2.51-1.22c-.34-.16-.69-.3-1-.47-.12-.06-.19-.19-.29-.29l.06,0a9.76,9.76,0,0,0,1,.45c.79.27,1.6.51,2.39.77l.41.17c-.28,0,0,.2,0,.3a2.54,2.54,0,0,0,.09.37l-.08,0,.08,0h0l.31.15c.05.16.09.3.14.43.2.56.45,1.12.6,1.69.32,1.13.09,2.26.74,3.39-.13-.75-.27-1.53-.41-2.3H558l.77,1.81h0c-.3-.79-.59-1.57-.88-2.36l.09,0,.56.92h0l-.61-1.2H558l.25.36h0l-.17-.44h.15l-1.15-1.75.13,0,1.1,1.41a.53.53,0,0,0-.1-.35c-.12-.17-.27-.32-.4-.49l-.94-1.25.07,0,1.07,1c-.58-.48-.77-1.28-1.66-1.51h.32l-.23-.35c.72.38,1,1.1,1.85,1.27-.58-.48-1.19-.94-1.75-1.44a1.59,1.59,0,0,0-.95-.35l.36.57c-.18-.05-.28-.07-.38-.11-.93-.34-1.85-.7-2.79-1a1,1,0,0,1-.66-.51h0l-.38-.52h0l-.36-.37h0l-.24-.35,1.16.12c.29,0,.57,0,.85,0a2.68,2.68,0,0,1,.51.17s0,.07,0,.11L552,364a2.47,2.47,0,0,0-.39,0c-.09,0-.15.08-.22.13h0c.44.09.87.19,1.31.27s1.09.15,1.63.22h0a3.52,3.52,0,0,1,.55-.06l.45,0a2.44,2.44,0,0,1,.33.17l.24.19a2.78,2.78,0,0,0-1.57-.32l.2.28-1.69-.27-.85-.15a.78.78,0,0,0-.24,0,15.37,15.37,0,0,0,4.64.83l.19.15a12.1,12.1,0,0,1,3.88,5.19,15.56,15.56,0,0,0,.72,1.58,1.14,1.14,0,0,0,.19.2l0,0-.93-2,.08,0,.57.79.06,0-.86-1.31.07,0,.44.43,0,0-.34-.45h0l.17.11a13,13,0,0,0-1.1-1.41c-.15-.17-.33-.32-.49-.49a.93.93,0,0,1-.12-.19l.06,0,1.25,1,.05,0-.29-.25c-.39-.33-.8-.65-1.16-1s-.42-.58-.69-.83-.63-.55-.95-.82l.5.23a.52.52,0,0,0,.23.24c.58.22,1,.77,1.65.83a1.77,1.77,0,0,1,.53.25v0L558,366v0l-.74-.37-.45-.39s0,0,0-.11l1.91,1v0l-.36-.27,0,0,1.41.49c-.42-.21-.84-.38-1.27-.56s-.84-.32-1.24-.51-.75-.37-1.12-.55h.18a.28.28,0,0,0,0,0l3.29.81a.93.93,0,0,0-.28-.13c-1.34-.38-2.67-.74-4-1.15a4.08,4.08,0,0,1-.86-.33v0l2.06-.2c-.57-.07-1.14-.31-1.69-.34a.23.23,0,0,0,.06-.13l-.61,0,0,.08.19,0a1.51,1.51,0,0,0-.19,0l.92.2a1.72,1.72,0,0,1-1.43-.26c.63-.1,1.19-.21,1.77-.28s1.17-.06,1.46-.08l-1.31-.12.07-.06a2.47,2.47,0,0,0,.73-.22,2,2,0,0,0-.49,0l.23-.2h0l.33,0a2.16,2.16,0,0,1-.11.2l.13,0h0c.4.06.56.34.52.94h0l0,0v0l.5.86-1-.19a4.84,4.84,0,0,0-1.3-.3v.08l-.42-.08,0,.08,1,.23V364l.29.06v0c.37.07.73.13,1.1.19l.3.06-.09,0c.55.09,1.1.15,1.65.19l1,.15c0-.07,0-.14,0-.21a2.59,2.59,0,0,0-.46-.15c-.45-.06-.91-.08-1.36-.16-.14,0-.26-.2-.38-.31.13-.11.24-.29.38-.32.3-.05.62,0,.92,0a1.23,1.23,0,0,0,.41-.23h0a12.92,12.92,0,0,1-1.44-.11s0,0-.06,0h.13v0h-.18a3.53,3.53,0,0,1-.33-.35c.14-.13.27-.35.43-.39a1.3,1.3,0,0,1,1.45.93h0l1.36,2.49,1.26,0c-.71-.16-1.6-.06-1.54-1.2,0-.06-.14-.1-.17-.17-.08-.24-.13-.49-.19-.74l.68-.08-.28-.37-.06,0h0c-.17.53-.47.17-.66,0a.86.86,0,0,1-.23-.49,1,1,0,0,1,.07-.39c.12,0,.29,0,.36.13a7.15,7.15,0,0,1,.47.7h0l.06.07a4,4,0,0,1,.62.62c.56.83,1.09,1.68,1.64,2.52l.12-.06-.32-1.14.84,1.22.13-.07-1.19-2.47.22-.13,2.33,3.62.07,0L562,360.88l.52.25a7.92,7.92,0,0,0,.31.73c.51,1,1.08,2,1.68,3s1.18,1.79,1.8,2.66a6,6,0,0,0,.75.74c-.1.16-.31.35-.27.48a13,13,0,0,0,.52,1.29l.22-.05-.14-.76.71.15c.3.82.62,1.71.95,2.6l.06,0-.38-1.63.3-.08,1,2.74c-.29-1.37-.71-2.7-1.05-4-.15-.58-.44-.81-1-.73l.67-.42,1,.29-.69.22c.34.88.63,1.69,1,2.49.53,1.19,1.1,2.36,1.65,3.54l-.32-.53c.24,1.28.45,2.44.67,3.63,0-.27.06-.5.1-.74l.21,0,.83,2.16a18,18,0,0,0-.64-2.55,10,10,0,0,0-.56-1.21c.44.1.59-.06.43-.49q-.49-1.28-1-2.56c-.11-.31-.17-.63-.26-.95l.12,0,.85,1.27.09-.06-2-3.56.14-.08,1.6,1.76a6.63,6.63,0,0,0-1.08-1.68A3.92,3.92,0,0,0,570,368a1.7,1.7,0,0,0,0-.61,4.17,4.17,0,0,0-.5-.79l1.8,1.18.11-.15c-.42-.33-.84-.66-1.25-1s-.8-.68-1.17-1-.69-.72-1-1.08l.06,0,3.76,2.26.07-.11-4.49-3,.06-.06,3.48,1.55c-1.17-.77-2.39-1.42-3.6-2.1-.5-.28-1-.63-1.46-1l.08-.11,4.28,1.25.05-.15-5.51-2,0,0,5.06.74c-2-.72-4.15-.91-6.15-1.57l5.13-.26c0-.07,0-.14,0-.22-1.8,0-3.6.06-5.4.05a2.78,2.78,0,0,1-.83-.28c0-.08,0-.16.05-.24a16.21,16.21,0,0,0,6-.92c-2.09.2-4.17.45-6.26.7a4.31,4.31,0,0,1-.58,0c0-.08,0-.16,0-.24,2.2.09,4.12-.83,6.11-1.53-1.52.32-3,.64-4.56,1-.61.13-1.2.33-1.81.45a1.92,1.92,0,0,1-.7-.15c0-.06,0-.11,0-.16a12.24,12.24,0,0,0,1.73-.4c1.31-.51,2.6-1.08,3.89-1.62.23-.1.47-.15.71-.22-.32.41.18.39.3.55a5.1,5.1,0,0,0,.53.55l-.12,0,.13,0h0l.55-.12c.25.22.45.41.67.6.88.74,1.82,1.44,2.65,2.24,1.68,1.63,2.66,3.9,4.74,5.1l-3.11-3.59.11-.12,3,2.25,0,0-3.76-3.1.09-.15,1.75.93,0-.06-2.11-1.37.07-.09.72.34,0,0-.72-.57.18-.2-3.43-1.67.11-.25,3,1.14a1.11,1.11,0,0,0-.51-.5c-.34-.15-.71-.24-1.06-.37l-2.6-1,.06-.16,2.43.36c-1.28-.11-2.4-1.31-3.79-.61l.41-.39-.69-.34c1.36-.21,2.56.65,3.78-.06-1.29-.12-2.57-.19-3.83-.37a2.08,2.08,0,0,0-1.59.57l1.09.55c-.29.13-.44.22-.61.28-1.57.54-3.14,1.06-4.7,1.64a1.42,1.42,0,0,1-1.4-.08h0l-1.07-.46h0v0h0l-.49-.12,0,0-.09,0-.26-.06h0l-.62-.28.26-.12-.32.09h0c.51-.39,1-.75,1.47-1.13l.42.12-.53.41a3.27,3.27,0,0,0-.54.4c-.1.12-.09.34-.12.51h0c.64-.37,1.28-.73,1.9-1.13l.59.14-.08.05c-.42.27-.84.52-1.25.79a1.21,1.21,0,0,0-.26.34,9.91,9.91,0,0,0,2.45-1.09c.11,0,.23,0,.35,0l-.28-.06c1.5-.92,2.83-2.12,4.28-3.22l.39,0a19.14,19.14,0,0,1,10.74,4.37,29.17,29.17,0,0,0,2.69,1.92,1.4,1.4,0,0,0,.47.12.79.79,0,0,1,0-.12l-3.47-2.46.08-.13,1.61.68.05-.12-2.55-1.26s0-.09.06-.14l1,.22,0-.09-.94-.38,0-.09.35,0a20.54,20.54,0,0,0-3-1.13c-.37-.12-.77-.16-1.16-.25a2,2,0,0,1-.37-.19l0-.13,2.69.17s0-.09,0-.14l-.64-.09c-.86-.1-1.74-.16-2.59-.34-.62-.12-1.19-.5-1.8-.61s-1.38-.2-2.08-.28l.83-.21a.72.72,0,0,0,.56.15c1-.34,2.1.16,3-.59.23-.18.63-.14,1-.21l0-.08-4.46.66v0l-1.32.27-1-.12s0-.06-.11-.22l3.56-.6v-.06l-.76,0s0-.08,0-.12l2.34-.89c-.76.16-1.49.38-2.23.59s-1.42.47-2.14.65-1.36.29-2,.43l.24-.21-.05-.07,5.09-2.67a1.23,1.23,0,0,0-.5.12c-2.12,1-4.22,2-6.36,3a5.21,5.21,0,0,1-1.47.48l0-.06,2.38-2.93c-.8.58-1.79.86-2.53,1.51a.66.66,0,0,0-.07-.31l-.71.85.13.1.22-.15a2.64,2.64,0,0,0-.16.23l1.39-.81a2.42,2.42,0,0,1-2.1,1.33c.69-1,1.27-1.87,1.94-2.71s1.4-1.58,1.76-2l-2.09,1.65a5.39,5.39,0,0,0,1-1.75,4,4,0,0,0-1.43,2.09l-.52.41a.42.42,0,0,0,0-.08l-.17.23-1.28,1a20.53,20.53,0,0,0,1.08-1.75l2.85-3.17a28,28,0,0,0-2.37,2.25,19.49,19.49,0,0,0,.89-2.08L560,348.87l-1.79,2,.81-1.71.14-.18c.55-.74,1.08-1.49,1.62-2.23l-1.31,1.46,1.38-2.9-.14-.07a.89.89,0,0,0-.11.15l-1.76,3.53-1.54,1.71.69-1.74.9-2.24-.33-.14c-.22.49-.43,1-.62,1.5q-.58.77-1.11,1.57a1.24,1.24,0,0,0-.05-.35h0l.68-1.78.5-.92.95-.28.24-1.23c-.26.56-.37,1.28-1.08,1.3l.21-.39c-.08.14-.17.27-.26.4a1.51,1.51,0,0,1-.38-.06c-.06,0-.13.12-.21.13-.25,0-.51,0-.77,0l.07-.68-.43.2-.06,0h0c.49.27.07.49-.09.65a.83.83,0,0,1-.53.13,1.19,1.19,0,0,1-.37-.14c.07-.11.11-.27.21-.33a6.91,6.91,0,0,1,.79-.31h0l.08,0a3.64,3.64,0,0,1,.74-.48c.93-.38,1.88-.72,2.82-1.07a1.24,1.24,0,0,1,0-.13l-1.19.06,1.38-.56,0-.14-2.67.63-.07-.25,4-1.51,0-.07-8.85,2.4-.11-.22a4.26,4.26,0,0,1,.95-.49c.72-.17,1.48-.21,2.2-.4,1.1-.29,2.19-.63,3.26-1s2-.77,3-1.2a6.33,6.33,0,0,0,.88-.58c.13.13.28.38.4.37a12.11,12.11,0,0,0,1.37-.24c0-.07,0-.15,0-.22l-.77,0,.29-.66,2.74-.37s0,0,0-.06l-1.67,0c0-.1,0-.2,0-.31l2.88-.42c-1.4,0-2.78.12-4.16.17-.6,0-.88.25-.92.82l-.27-.74.5-.95c0,.22,0,.44.07.72.92-.15,1.79-.25,2.63-.43,1.28-.26,2.54-.57,3.81-.86l-.58.19,3.68.12-.7-.25q0-.11,0-.22l2.28-.35a18,18,0,0,0-2.63.08,10.47,10.47,0,0,0-1.3.3c.19-.42.07-.6-.4-.53-.9.14-1.8.28-2.7.41-.33,0-.65,0-1,.05v-.13l1.42-.57a1,1,0,0,1,0-.1l-3.9,1.2-.06-.15,2.07-1.19a6.85,6.85,0,0,0-1.87.7,4,4,0,0,0-.75.75,1.78,1.78,0,0,0-.59-.17,4.15,4.15,0,0,0-.88.32l1.53-1.51-.13-.14c-.41.34-.82.68-1.23,1s-.83.64-1.26.93-.85.53-1.28.79a.28.28,0,0,0,0-.07l3-3.2-.1-.09-3.91,3.75-.06-.07,2.26-3.07c-1,1-1.89,2-2.82,3.07-.39.43-.83.81-1.24,1.22l-.09-.1,2.13-3.92-.14-.08L555,341.66l0,0c.6-1.6,1.2-3.19,1.79-4.79-1.12,1.82-1.77,3.86-2.84,5.68.28-1.69.56-3.38.83-5.07l-.22,0c-.36,1.77-.71,3.53-1.09,5.29a2.75,2.75,0,0,1-.45.75l-.22-.1a16.18,16.18,0,0,0,.37-6.06c-.25,2.09-.44,4.18-.64,6.26a4.18,4.18,0,0,1-.15.56l-.25,0c.56-2.13.06-4.21-.2-6.3,0,1.56,0,3.12,0,4.67,0,.62.07,1.25.05,1.87a1.86,1.86,0,0,1-.3.64l-.15-.05a13,13,0,0,0,0-1.78c-.22-1.39-.51-2.77-.77-4.15,0-.24,0-.49-.06-.73.34.4.42-.09.61-.18a5,5,0,0,0,.65-.4v.12s0-.08,0-.13h0c0-.21,0-.41,0-.57.26-.19.5-.35.72-.53.92-.71,1.79-1.47,2.76-2.11,1.94-1.29,4.38-1.77,6-3.56l-4.17,2.27-.09-.13,2.85-2.48,0,0-3.82,3-.13-.13,1.28-1.51-.05,0-1.79,1.77-.08-.08.48-.62,0,0-.7.58-.16-.21-2.36,3-.22-.16,1.74-2.66a1.1,1.1,0,0,0-.59.4c-.22.3-.38.65-.58,1-.52.78-1.05,1.54-1.57,2.32l-.15-.09.87-2.3c-.38,1.22-1.78,2.07-1.4,3.58l-.29-.48-.48.6c.08-1.36,1.18-2.36.74-3.7-.38,1.23-.73,2.47-1.17,3.67a2.1,2.1,0,0,0,.22,1.67l.77-1a6,6,0,0,1,.14.65c.2,1.65.38,3.3.6,4.94a1.41,1.41,0,0,1-.37,1.36v0h0v0l-.68,1v0h0v0l-.38.8-.4-1.23.25-.6c.08.22.16.44.25.66a1.16,1.16,0,0,0,.28.32c-.17-2.94-1.82-5.31-3-8-.19,1.52-.22,2.88.78,4l.35-.5c.39,1,.74,1.85,1.08,2.73.08.19.15.39.22.59l-.27.56c-.09-.25-.17-.5-.27-.75-.35-.88-.75-1.74-1.13-2.61h0l0,0h0a5.84,5.84,0,0,1-.63-.77c-.42-.72-.8-1.45-1.2-2.18l-.09.05c.09,1.11.19,2.22.29,3.34h0l0-.23a1.3,1.3,0,0,0-.11.2l-2.32-2.9c.51,1.15.47,2.52,1.44,3.45l.09.51-.46-.5-.5-1c-.12-.24-.18-.49-.31-.72a.77.77,0,0,0-.41-.35l.73,1.57c-.33-.35-.65-.71-.94-1.07v0l-.42-.7-.08.06c-.45-.6-.82-1.16-1.06-1.49l.54,1.1,0,0,0,0,.28.49-.08,0-1.14-1.43,0,0,.77,1.19-.12.07-2.56-2.55,0,0,1.86,2.05-.1.07-.35-.25-.39-.53c.09.14.17.29.25.44l-2.49-1.76a8.7,8.7,0,0,0,2.73,2.18,6.45,6.45,0,0,0,2.1,2.74l-1.87-2.59a10.8,10.8,0,0,1,1.26.89c.34.28.65.59,1,.9l1.08,2.2-.07.16-.72-.65c0-.13,0-.26.05-.4l-.11.34-1.75-1.6,1.57,2.17c-.05.17-.1.34-.15.51l-.71-.85c0-.23,0-.46,0-.69h-.18c0,.15,0,.31,0,.46l-.3-.36c-.6-.7-1.22-1.38-1.84-2.06l2.11,2.93,0,.65-.85-.57a12.63,12.63,0,0,0-.56-1.73l.26,1.54-.82-.55-.56-1.25-.13,0,.35,1h0l0,0,.58,1.66-.8-.68c-.56-.82-1.09-1.65-1.73-2.44l1,1.79-.14-.12.16.16.29.54-.06,0-2.5-3-.1,0,1.87,2.56,0,0c-.3-.23-.61-.46-.9-.71s-.58-.53-.85-.8-.55-.56-.82-.85l-.12.07,1,1.23a3.29,3.29,0,0,0-.65-.34,2,2,0,0,0-.5,0,2.79,2.79,0,0,0-.48-.6,5.78,5.78,0,0,0-1.39-.72l1.46,1.09-.07.09-2.94-1.33,0,.06,1.05.57,0,.08c-.26-.05-.53-.1-.78-.17-.71-.21-1.41-.42-2.11-.64-.36-.11-.49,0-.41.3a9.52,9.52,0,0,0-1-.37,17.49,17.49,0,0,0-2.1-.42l1.78.55,0,.15-.61.07,3,.42-.44-.21c1,.37,1.94.75,2.93,1.1.66.23,1.33.42,2.06.64l.19-.47.24.71-.35.46c.06-.38-.12-.57-.6-.67-1.11-.22-2.2-.5-3.34-.68l2.26.68-.07.21-1.34-.25,0,0,2.15.63c.05.19.09.34.13.48l-.63-.08,0,.15a11,11,0,0,0,1.07.34c.1,0,.26-.12.39-.19a4.36,4.36,0,0,0,.61.51c.72.42,1.45.84,2.2,1.21.54.28,1.11.52,1.67.77l.12.3-3.81-1.59,0,0,2.46,1.29.18.34-1.8-.69,0,.08-.09-.08a1.05,1.05,0,0,0,.14.47l0,.06.09,0c.32.46,1,.69,1.26,1.25l-.48-.17-.05.27-.07-.07a1,1,0,0,0-.15-.31c0-.16-.07-.34-.11-.5,0,.12,0,.25,0,.37-.42-.39-1.14-.49-1.55-.88l1.18,1-.08.11-.72-.32-.06-.2a.83.83,0,0,0-.06-.11l-.13,0,.06.21-.76-.33c-.22-.1-.42-.23-.64-.32a.8.8,0,0,0-.5,0l1.87.87-.11.17-.41-.14v0h0l-1.93-.67-.05.18-.63-.07,0,0,.49.18,0,.08-1.68-.34,0,0,1.26.38-.06.12-3.39-.3v0l2.57.35a.64.64,0,0,0,0,.11l-3.43.25a4.61,4.61,0,0,0,1.19.14c.5.53,1,1,1.6,1.51l-.09-.05.25.18c.39.33.77.66,1.18,1l.06,0,.31.23-.07.07.79.57-.34-.07-.51-.14c-1.4-.85-2.79-1.73-4.18-2.6a1.1,1.1,0,0,0-.38-.15l3.64,2.49-.45-.11.06-.08-1.49-.74-.05.06,1.29.71-.64-.15.7.27c-.3-.1-.6-.2-.89-.32-.55-.22-1.08-.49-1.62-.72s-1.12-.5-1.7-.71L529,352l0,.08-.61-.09,0,0,2.77.88c-.09.1-.11.14-.13.14l-.73-.06-.22,0-.93-.33,0,0-3.49-1.05,0,0c.26.09.59.12.74.27.61.63,1.61.44,2.34.81a.71.71,0,0,0,.48,0l.39.16h0l0,.09c-.47,0-.93-.06-1.39-.07s-1.05.16-1.57.16c-.72,0-1.44-.09-2.16-.13l-.53,0v.1l2.2.25s0,.06,0,.09a1.52,1.52,0,0,1-.33.08c-.33,0-.66,0-1,0a20.86,20.86,0,0,0-2.61.35l.28.07a.33.33,0,0,1,0,.07l-.83.12a.54.54,0,0,1,0,.06h.88l0,.1-2.29.5,0,.09,1.42-.24,0,.1-3.24,1.18a.38.38,0,0,1,0,.08,1.31,1.31,0,0,0,.41,0m14.72,7.45a1.23,1.23,0,0,1-1.25.32l1.22-.44a.87.87,0,0,0,0,.12m-.55,9.41c0-.36-.08-.72-.12-1.08l.21-.07c0,.37,0,.74.07,1.11l-.16,0m1.34-4.41c0,.52,0,1,.05,1.43a1,1,0,0,1-.05-1.43m-.85,3.86c0-.63-.55-1.12-.11-1.87l.13,0c0,.62.08,1.24.12,1.86l-.14,0m.39-2.85c0,.47.06.93.09,1.39-.42-.64-.45-1-.09-1.39m1.31-.8c-.4-1-.29-1.64.35-2-.12.71-.23,1.38-.35,2m1.36-1.7h-.11a13.68,13.68,0,0,1-.06-1.45c0-.16.21-.35.32-.53l.13,0-.28,1.92m.29-2.44h0m.42,1.3c-.41-.72-.29-1.28.29-1.6-.1.56-.2,1.08-.29,1.6m.58-1c0-.37-.22-.71.17-1.11.15.55.11.87-.17,1.11m16,6.5-.12-.05.25-.73.16.07-.29.71m.12-1.68c.22.56-.29.82-.42,1.24l-.1,0,.42-1.24.1,0m-.56.2.32-.92c.22.32.13.55-.32.92m.12-1.67c.26.36.17.66-.29,1l.29-1m-.65-1.4c.45.36.43.78-.08,1.42,0-.47.05-.93.08-1.42m-.76-1.23h.11c.06.13.19.29.17.4a8.7,8.7,0,0,1-.3,1l-.09,0c0-.44.07-.88.11-1.33m-.45-.65c.42.29.42.68,0,1.11,0-.36,0-.72,0-1.11m3.38,0,0-.08.91.46a1.07,1.07,0,0,1-1-.39m-1-.76,0-.13.14.06.35.25a4,4,0,0,0,.43.22,3.09,3.09,0,0,1-1-.4m7.34-24.84c0,.07,0,.15,0,.22l-1.69.15c0-.1,0-.19,0-.29l1.68-.08m-.58.76c0,.06,0,.12,0,.18l-2.84.25,0-.17c.91-.74,1.91-.17,2.86-.27m-1.93,1-2.13.18c.43-.56,1-.6,2.13-.18m-1.24.77-2.17.25c.46-.65,1.15-.73,2.17-.25m-1.42,1.32-2.89.91c.29-.93,1.13-1.2,2.89-.91m-8.62-1h-.19c0-.52,0-1,0-1.7a1.42,1.42,0,0,1,.15,1.71M532,353.62l.35,0v0h-.18l-.17-.07m2.35-.83.15.11-.12-.06,0,0m1,.34.13.25,0,0-.22-.35.13.11m2.5-3.15a3.63,3.63,0,0,1,.13.41c.05.26.11.52.16.79l-.2-.1c-.07-.33-.11-.66-.19-1a.3.3,0,0,0,.07-.11h0m3.57-1.64a.68.68,0,0,0-.16.12l0,0-.06-.21c.09,0,.16.08.26.1H542a1,1,0,0,1,.24.18c0,.13,0,.25,0,.38l-.28-.13-.52-.43m-.74-.32a3,3,0,0,0,.36.15l0,.2-.83-.39.43,0m2.23-.12a4.67,4.67,0,0,0,0,.78h-.23a2.88,2.88,0,0,1-.15-.34h.25l-.29-.14v0c0-.26,0-.52,0-.78l0,0a3.56,3.56,0,0,1,.37.47m.39-.41.1-.1.19.18-.08.27-.22-.31v0m1.06-3.19.37.33-.09.36a4.64,4.64,0,0,1-.28-.69m.73,1.08c.12.08.13.33.36.24l0,.08a2.47,2.47,0,0,1-.14.36h0a4.69,4.69,0,0,1-.69-1,3.18,3.18,0,0,0,.42.33m6.62,1.91a.8.8,0,0,1-.1.12l0-.12h.06m.17,1.11.33-.22h0l-.3.24,0,0m4.62,2.42.15.09-.91,1.56c.15-.42.29-.85.43-1.28l.33-.37m3.12,3.82a3.26,3.26,0,0,1,.83-.33l.12.19-1.35,1.06-.54-.05.25-.24H559l0,0h0a6.56,6.56,0,0,1,.65-.59m2-1.29a4.55,4.55,0,0,0,.79-.14,3.94,3.94,0,0,1-1.67.5l-.1-.28.27-.08c.24,0,.48,0,.71,0m-5.6,3.21.25.09a.81.81,0,0,1-.26-.09h0m-.29.21c0,.13,0,.26,0,.4l-.39-.21a.29.29,0,0,0,.34-.2l-.11-.07.26-.19h0l-.14.26v0h0m2.82,1.22a1.06,1.06,0,0,1,.72.29h-.56l-.16-.28h0m1,.76h-.18l-.46-.06-.16-.28.59,0a1.29,1.29,0,0,1,.21.37m.73.72.55.12.08.23-.57-.23-.06-.12m-3.94,2.29-.64.15,0-.26.43-.06-.43,0v-.21l.42-.14a3,3,0,0,0,.08.31h0c0,.06.07.12.1.19m-1.15.42h0l.19-.07,0,.05-.19,0m-4.59,1.28c.11.16.22.27.2.31a1.3,1.3,0,0,1-.27.29l-.13-.1c.06-.14.12-.28.2-.5m.18-.1h0l0,0,0,0m-.2,0-.11.15-.14-.23a.21.21,0,0,0,.24.07l-.17-.3.08,0,.25.31-.15,0m-8-2.34.11-.15.81.41-.08.11c-.58.1-.64.07-.83-.37m.2.71-.17.26-.57-.28.15-.22.59.24m-3.68.62v0l-.18-.09.39-.38.08.07-.29.39a.22.22,0,0,0,.3,0l-.23.28-.08-.24h0m-.24,0,0,0,0,0h0m-7-2.86.26.09-.81.81-.28-.06c.18-.18.38-.34.56-.52s.18-.21.26-.31m.8-1a1,1,0,0,1,.14-.1l.34.09-.3-.12c.15-.1.31-.2.47-.29l.17.11-.31.31h0l-.24.24-.14-.07.12.09-.47.47-.34-.05c.18-.23.36-.46.56-.68m-3.3-2.6.37.27-.29.17-.61-.22.53-.21m-.21-.63-.15-.07.06,0,.08.1m2.78-1.42,0,0,.06.13-.1,0a1,1,0,0,1-.11-.14l.1-.05m3.6-.09-.11,0-.26-.12a.9.9,0,0,1,.37.07m2.44-2.68.21.16.09.46-.3-.56v-.06m.31-.33c0-.11,0-.22-.07-.42l.11,0,.15.45.1.56-.15-.08-.15-.54m5.8-2.08v0h-.39l0-.08a1,1,0,0,0,.37.07m4.13.11-.31.81-.27-.18a1.45,1.45,0,0,1,.32-.66.2.2,0,0,1,.27,0m2.85-.6a4.6,4.6,0,0,1-.06.5,3,3,0,0,1-.69-.07,5.15,5.15,0,0,1,.31-.43h.44M558.54,359a.77.77,0,0,1-.4-.27l.39.26h0m-.09-.41-.46-.09,0-.09h.44c0,.06,0,.13.05.19m-.29,1.47a2,2,0,0,1-.59.12l-.22-.1a.44.44,0,0,1-.07-.23s0-.05,0-.08l.83.28,0,0m-2.38-.67a2.29,2.29,0,0,1-.18-.25l.31.13c0,.06,0,.13,0,.19l-.14-.06m.24.7-.13-.08.12,0v0m0,.21c0,.28.08.55.15.83l-.39.12q0-.41,0-.81l.05,0-.05,0c0-.06,0-.13,0-.19l.18.06M553,362.16h-.22l-.06-.14,1-.12v0l-.72.23m.76-.07v0h-.11l.1,0m-19.55-.91h-.12l-.22,0h0l0,0h0l0,0h0a1.47,1.47,0,0,1,.28-.26l.91.38h0l-.21,0,0-.06-.7-.22a.34.34,0,0,0,0,.21m-1.35.93.87-.06.72,0a4.63,4.63,0,0,1-1.12.27l-.83.11.36-.35m.79-.26-.19,0v0a2.9,2.9,0,0,0-.3,0l.15-.15.63.21-.31,0m-3.54-6.45-.06-.07.06,0s0,.06,0,.09m1.7-.94,0-.09.08-.05.14.14-.3.14-.27,0,.22-.12h.08m8.81-2.79.15.1a2.13,2.13,0,0,1,0,.26,1.82,1.82,0,0,1-.12-.33s0,0,0,0m9-2.06h.11l-.06.34-.88.52a.47.47,0,0,1,.1-.29,2.27,2.27,0,0,0,.73-.58m6.25,8.75c0,.06,0,.13,0,.19l-.15-.09.11-.14,0,0m-8.94,2.47v-.15l.11,0a.34.34,0,0,1-.08.22l0,0m-.72-.34c.07.15,0,.2-.09.22l0-.2,0,0,0,0m-10.57,0-.89-.08a2,2,0,0,1,.28-.21c.2.1.39.2.6.29m-.76-3.2-.11,0a.26.26,0,0,0-.07-.08l-.83-.53.55-.11a8,8,0,0,0,.81.48s-.06,0-.08,0a1.6,1.6,0,0,1-.23.17l-.29-.12.24.14m-.46.06-.15-.07.15.07m-1.54-1.26.69-.14.28.23-.56.18-.41-.26m.25-.54.27.24-.68.2-.43-.28.84-.15m2.86.87h.06l.25,0,.3.29a.65.65,0,0,1-.29.08l-.09-.08-.2-.19a.36.36,0,0,1,0-.06H536m9.21-6.9-.14-.1.1-.18,0,.28m9.19,11.56-.5.08a.43.43,0,0,1-.08-.1l1-.14-.4.17m-18.52-4.25-.34.17-.6-.49.42-.08.52.4h0m1,.07.37.35-.3.06-.31-.18a.24.24,0,0,0,0-.12l-.06-.06a1.42,1.42,0,0,1,.32-.06m10.06,3.28v0h0l0,.06-.05,0m4.65-2.52a1.17,1.17,0,0,1-.3.09l.33-1c.09,0,.24.09.32.14l-.36.81m-1,.54h0l-.27,0,.14-.22a1.84,1.84,0,0,0,.13.19h0c.08-.24.15-.47.22-.71l.1,0,.12.07c0,.08,0,.13,0,.19l0,.09s0,.06,0,.1a1.21,1.21,0,0,1,0,.13l-.4.14m-.3.88c0,.21-.15.25-.35.17h0l.24-.18h.06l0,0h0l.06.06m-.12-.54a.94.94,0,0,1,.13.13l-.06,0,0,0h0l-.12-.07,0-.07h0m-12.51-.36h-.06v-.07l.16-.09h0l-.1.16m3.72-3.61h0a.7.7,0,0,1,0-.19l0,.19m7.45-1a1.44,1.44,0,0,1,0-.17.52.52,0,0,1,.11.14l-.08,0m-4.24,5.12,0,0h0v0l0,0,0,0m4.65-5.61-.08,0,.09,0v.07m-11.26,5,.4.25v.06a.46.46,0,0,1-.44-.17l.05-.14m3.7-4.76-.05-.1.06.05v0m-4.82,5,.07,0-.08.1-.22-.09.23-.06m1.13.44-.19.05.15.13-.13.09a.71.71,0,0,0-.1-.07l.11-.39h.12l-.07-.16,0-.13a1.86,1.86,0,0,1,.16.26l-.14-.07.06.3m12.49,0,0,0-.11.08,0,0,.12-.09m1,.42,0-.06.06,0,.15,0-.19.08m-.14.88.08-.09.13.09-.19,0,0,0m.68-.52,0-.13h.06l0,.1,0,0m-.34-.94v0h0l0,0h0m-.84.2-.19-.16.17-.13h0a1.56,1.56,0,0,1,0,.29m-.33-.3-.15-.15a.84.84,0,0,1,.31.07l-.16.08m-7.24-7.66s0-.08,0-.12l0-.07.22.06-.09.21-.13-.08m0-.11s0,.06,0,.09l0,0,0-.07m-4.89,5.77.34.29-.4-.18.06-.11m-1.52,1.29c0,.06,0,.12,0,.18l-.07,0a1.36,1.36,0,0,1,.1-.14m-.2.58h0a.65.65,0,0,0,.05.22h0l-.26-.1a2.14,2.14,0,0,0,.12-.19l.09.08m.95,1,.06.06,0,.17-.11-.06.08-.16m6.84.25,0,.06a.29.29,0,0,1,0-.09l.07,0m5.93-.56.11.1-.09,0a1.47,1.47,0,0,1,0-.15m.63,1.59,0,0h0l.06,0m.17-.08.14-.06.19.09-.18.1,0-.05a.28.28,0,0,0-.19-.07m.23-2v.09h0l.06-.08,0,0h0l.05-.08.23.15a.85.85,0,0,1-.22,0m-.52-.22-.05,0h.09l0,0m.92-.43h0l0,0h0m-8-6.68-.24-.15,0-.27a.86.86,0,0,1,.18.13,1.94,1.94,0,0,1,0,.29m-.73-.44-.18-.11H543v.11m-3.26,2.33c.06-.2.09-.37,0-.49l.08-.15.19,0,.18.56c0,.08,0,.17,0,.25l-.22.2.25.06c0,.17,0,.34.08.5v.07h-.08l-.42-1.07,0,.07v0M538,356.82h0a1.26,1.26,0,0,1,.12.15l-.08-.07,0-.07m-1.67,1-.22-.12a1,1,0,0,1,.34-.12c0,.09-.08.16-.12.24m-.45.08.26.21a.9.9,0,0,1-.28.25l-.21-.08a2.5,2.5,0,0,1,.23-.38m.48,1.37a.22.22,0,0,1-.08.07l-.58-.16L536,359l.33.26m-.5.26.1,0v0l-.11-.07h0m11.06.91.06,0,.13.12h-.19v-.14m4.79-2-.36-.14.1-.14a.73.73,0,0,1,.4.06l-.13.22m.67-1.39.06.09-.08.13,0-.22m-1.9-7c0,.19-.12.31-.35.38h0l.35-.37m-.9.43,0,.06-.43.07.5-.49,0,0-.06.34m-10.13,4.46-.21-.1v-.05l.16,0,.05.2m-.24-.45,0,0v0h0m-1.44,2.43.09.13-.12,0h0l-.06,0a1.35,1.35,0,0,1-.19-.31l.08,0,.21.2m-3.44-.94-.22-.19.45-.09.17.15-.4.13m-.44-.38-.24-.2.45-.12.21.19-.43.12m.08.74-.35.17-.14-.09.49-.09m1.54.85.31.15a1.55,1.55,0,0,0-.11-.2l.41-.11.28.31h-.54l-.25,0-.17-.09-.08.09-.24-.1.41-.11m.18.56-.39.35-.29-.24a1,1,0,0,1,.67-.12h0m-.58.53-.5.45-.15-.09a1.48,1.48,0,0,1,.32-.62l.32.26m-.69.56h0m1.15.78.39.27-.67-.18.28-.08m12,1.36h0a1.44,1.44,0,0,1-.31,0l.3,0m.67-1,0,0,0,0a.3.3,0,0,1,0-.06m0-.12,0-.08a.21.21,0,0,1,0,.11l-.06,0m4.1-1.56-.07,0,0-.21a.41.41,0,0,1,.17,0l.15.08a1.43,1.43,0,0,1-.28.13m0-.44h0l0-.14.29-.32a1.7,1.7,0,0,1,.13.24l-.08.1c-.07.07-.23.08-.35.12m2.35-.94a.28.28,0,0,1,.1-.09l.23.11-.25.17-.07-.19M553,352l.09-.26a1.92,1.92,0,0,1,0,.23l-.06,0m-.65-1.9-.3-.08,0-.07h.32l-.05.14m.6-.11H553l-.11.07Zm-1.36-.09-.15.11c0-.05,0-.1,0-.15l.17,0h0m-.87,0,0-.06.1-.11-.06.16m-.68-.21,0-.12.18,0-.16.1m-9.84,2.17L540,352l-.15-.1a2.13,2.13,0,0,0-.19-.86l.49.33c0,.18,0,.37,0,.55m-1.18.29.18.52a1.87,1.87,0,0,0,0-.41h0a7.34,7.34,0,0,0,.25,1.27v0l-.22.42h0c.25-.43-.05-.76-.28-1.09.12-.28-.07-.56-.2-.83l.22.1m-.35,1h0a5.85,5.85,0,0,0,.23.55c0,.11,0,.23,0,.34h0l-.09,0-.32-.82.13,0m-3.74,2.11-.18-.18.26-.07.28.14-.35.1m2-.75-.06-.07.07,0a.35.35,0,0,1,0,.09m-2.72-.34.19,0-.27.12-.05,0,.13-.13m-3,1.64.64-.12.44.32-.55.16s0,0,0,0l.65-.13.53.35v0h0l.3.18-.08,0a.41.41,0,0,0,0,.08l.19,0c.2.12.41.22.63.33l.32.4.37-.1.22.09-.06-.14.19-.05.23.14-.34.06h0a1.17,1.17,0,0,1-.25.06l-.05,0-.05.05a1.57,1.57,0,0,1-.8-.21c-1-.52-2-1-3-1.5a2.25,2.25,0,0,0,.44,0m3.3,2,.08.13-.44.43-.33-.21.08-.1c.11-.13.41-.16.62-.24m-.5.69-.14.14-.35-.09.19-.25.3.21m-.21.2-.29.29-.22-.11.21-.29.31.12m-.4.39-.21.2-.18,0,.21-.31.17.13m-.4,1.79.06,0h0l.38-.3.4.16a.55.55,0,0,1-.26.27c-.18.06-.48.26-.52-.12h0l-.06,0-.29.21.28.08-.58,0a3.92,3.92,0,0,1,.59-.32m1.54,0,0-.12.2,0a1.46,1.46,0,0,0,.61.13l.11.16-1-.13m1.6.22a.51.51,0,0,1,.34-.1.36.36,0,0,1,.15.16l-.5-.07m2.75.34h0l-.06.06.06-.07m5-1.33,0,.08-.08-.06,0,0m1.82.13.06.17-.08.07,0-.24h0m1.62,1,0,0-.07,0,0-.05m1.14-1.6,0,0,.26.1a.49.49,0,0,1-.13.15l-.17-.21m3,2.2.62-.22v0h0l.14-.29.17-.08h0l0,.11a.42.42,0,0,0-.33.25h.13l-.6.29-.16-.06m1.15-.24.32,0v0l-.92.23.58-.29m1,0,.06.1-.32,0,.27-.11m1.45-.09c-.08-.32-.29-.32-.53-.29L555,361l.21.44-.21.07m.26.05,0,0h-.18l.16-.06m-2.56-3.52,0-.11h.05a.36.36,0,0,1-.07.1h0m4.9.85-.6-.36c0-.05,0-.1,0-.16a1.44,1.44,0,0,1,.56.25c0,.09,0,.18.07.27m-2-.53-.48-.28h0a.89.89,0,0,1,.67.19.86.86,0,0,1-.19.1m-.8-1.06.37-.28.53.25-.81.28-.1-.26m.4-.89.06-.16.47.17-.24.16-.29-.17m-1.7-5.14a.4.4,0,0,0-.31.09l.09-.27.34-.08-.12.41c0-.06,0-.11,0-.16m-.59-1v-.15l.16-.12h.11c-.07.09-.13.19-.21.28h-.06m-.81-1.74-.1-.09.23-.24-.13.33m-.86-.37a2.56,2.56,0,0,0,.45,0,.49.49,0,0,1-.41.48l0-.46m-.79.88c0,.09,0,.19-.06.28l-.48,0,0-.07.22-.33.34.1m-.88.16-.11.16h-.19a2,2,0,0,1,.3-.17m-.23.33L549,350a.32.32,0,0,0,0-.45l.06-.06.27,0m-4.38-.79c-.07.12-.14.25-.2.37l-.34-.26.19-.44.36.33m-1.19,1,0,.14,0,0h-.08l0,0c0-.15-.14-.3-.11-.44l.31.28m-.6-.47s0-.05,0-.08l.09.09h-.09m-.72-.33s0,0,0,0h0v0m0,.22a1.75,1.75,0,0,1,.4.25l0,.07h0l-.37-.31h0m-3.34,1.51c0,.33,0,.67,0,1l-.11-.06a4.54,4.54,0,0,0-.31-.68c0-.07,0-.14,0-.21a1.23,1.23,0,0,0-.1-.25l.37.12v0l.15.1m-.67-.24v0h0m.16,1.11.11.57h0a.81.81,0,0,0,0,.09l-.21-.76.14.09m-1.92,2.37a1.6,1.6,0,0,1,.18.34l-.2,0-.26-.29a1.94,1.94,0,0,1,.29-.1m-3.24.1.26.09-.09,0a1.42,1.42,0,0,1-.18-.12h0m-.19.24,0,0-.09,0-.05-.06.08-.07,0,0m-.86,0a1.11,1.11,0,0,1-.29-.11l.26-.17.36.12-.34.16m-.66-.16-.21.1-.23-.06.32-.16.13.13m-.51.23-.39.18,0-.13.2-.1.23,0m-1,1.86c.07,0,.11-.17.15-.29.7.4,1.39.81,2.11,1.19a10.89,10.89,0,0,0,1.33.5s0,.08,0,.11a1.87,1.87,0,0,1-.59,0c-.47-.16-.92-.38-1.38-.55l-2.15-.78a5.84,5.84,0,0,0,.55-.21m2.12,3.07-.23.23-.24-.12.16-.19.3.08m-1,1.8-.8.85H530l1.17-1,.16.12m.91.22.76.25c0,.06-.07.12-.11.18a.21.21,0,0,1-.09.05,7.89,7.89,0,0,0-1,.13h-.31l.74-.62m0,.79,0-.07.36,0c-.23.54-.85.4-1.4.41l.57.1-1.28.17.72-.6c.33,0,.66,0,1,0m1.31-.7.68,0a4.79,4.79,0,0,1,.58.12s0,0,.06,0a1.52,1.52,0,0,1-1.31-.13m5,.32.08.07.28-.26.3.24-.38.41a1.06,1.06,0,0,0-.17-.09c-.24-.07-.34-.16-.1-.37m5.2-1.33s0,0,.05-.08l.07,0,.15.36-.26-.3m1.47,0,0,.06a1,1,0,0,1,.09-.08.64.64,0,0,1,0,.09s0,0,0,.07l-.12,0c-.06-.09-.06-.12,0-.16m-.08.17-.14,0,0-.09.1.06m1.34.18h0l0,0,.05.09-.1,0,0-.06m.61.57h.06s0,.06,0,.07l-.27.17.19-.22m.88.49.06.12c-.23.26-.29.27-.74.13l0-.09.72-.16m2.63,1.11.29-.12.18.21.07,0c.16.18.06.22-.15.23l-.15,0-.24-.33m.43-.13,0,0h0l0,0m2.77-.32v.05l-.19,0,.18,0m1.27-.46h-.23l-.73-.11.41-.14.12,0,.62-.09h0c0,.09.05.18.08.27l-.27.06m.85-2.17-.08,0c0-.06,0-.13,0-.19h0c0,.07,0,.15,0,.22m1.79.56.71.44-.18.36-.79-.31.26-.49m2-.54-.09,0-.21-.35.28-.08s0,0,0,.07l-.12.18.13.07s0,.09,0,.14m0-.76-.06-.05a3.06,3.06,0,0,0-.53-.19h.5a1.77,1.77,0,0,1,.08.24m-1.39-.87h-.47l0-.16.41-.06a1.26,1.26,0,0,1,.11.23m-.91,0h-.38a.18.18,0,0,1,0,0l.36-.05,0,.1m-.53-.24c0-.11,0-.25,0-.38l.23-.06a1.39,1.39,0,0,1,.22.42l-.45,0m-.4,0h-.32l0-.17.39-.11,0,.28m-.65,0h-.05v-.07l.06,0V358m-.87-.15v0l.83-.37,0,.23-.84.17m1.05-1.6,0,0-.14.09-.56-.24.22-.58.48.15.05-.16c.39.12.32.32.07.61a1.56,1.56,0,0,0-.09.15m-2-7.86a2.27,2.27,0,0,1,.13-.6s.07-.05.12-.08c-.07.23-.16.45-.25.67m-.23-.39-.38.58.25-.69.13.11m-.72.49-.18-.15.32-.33a3,3,0,0,0-.14.48m-2-1h0l.09.18-.08,0,0-.21-.1,0s0,0,0,0,0,.15,0,.23a3.32,3.32,0,0,1-.88,0c.35-.52.83-.48,1.32-.47a1.39,1.39,0,0,1-.31.22h0m-1.44,1a1.22,1.22,0,0,1,.74-.29l-.5.34-.24-.05m-1.42,1.19-.11,0,.23-.62a2.25,2.25,0,0,0,.34.33l-.47.32m.51-.48-.25-.53.23-.62a1,1,0,0,1,0,1.15m-.54-1.14-.21-.43c0-.07,0-.14.07-.21a2.19,2.19,0,0,1,.45.35l-.31.3m-2.72-1.83,0-.06.11.18-.14-.12m-1.16,1.14-.27-.32.1-.41.39.54-.23.19m-.13.79-.09.33-.07.14-.29-.4.1-.38.34.31m-.84.29c0,.08,0,.16,0,.24h-.24l.06-.41a1.48,1.48,0,0,0,.2.17m-1.24-.72,0,.27c0-.1-.07-.21-.11-.32l.12,0m-1.12-.36-.55-.15-.75-.37c.66-.06,1.08.1,1.3.51M538,353.64l-.42-.68-.1-.33.69,1.19a.89.89,0,0,1-.17-.18m-2.17-1.18-.1-.18s0,0,0,.07l-.39-.39a.91.91,0,0,0-.05-.42l1,1.35-.42-.42m-.06.48v0l-.2-.14.19.1m-1,.46h0m-.42.45-.22-.11a.8.8,0,0,1,.37,0l-.14.06m-1.45,0,.19.21-.17.08a3,3,0,0,0-.26-.18,1.83,1.83,0,0,1,.23-.11h0m-2.41.15h0l-.68-.15.72.15m-.89.6h0v0l0,0m-.6-.08v0l-.24,0H529m.16.8.08,0-.06,0s0,0,0-.06m-.79.67.13-.05,0,.11-.17-.06m-.68.67,1.1-.45.53.28-.08,0,.06.13.21-.08a11,11,0,0,0,3.37,1.24l.15.1,0,.1a4.34,4.34,0,0,1-.47-.06c-1.61-.44-3.21-.88-4.83-1.3m4.79,1.87-.7.65h0l-.13.12-.15-.08-.09.13.14,0-.75.7c.39-1.19.88-1.63,1.68-1.56m-2.22.8-.94,1.29c0-.78.29-1.18.94-1.29m-3.93,3-.16-.07.63-1,.22.08-.69,1m.74-.16-.13-.06c.4-.57.31-1.36,1.18-1.72l.12.06L527,362.14m2.12-2.29-.87,1.28c.09-.85.3-1.17.87-1.28m0,2.13c.18-.15.37-.29.55-.44.42-.36.82-.75,1.22-1.14l.27.08L529.73,362h-.56m.72.11.52,0-.44.47.09.06.67-.53h.12l-.35.55.07,0-1.7.21,1-.85m5,.37a3.59,3.59,0,0,1-1.26.33,4.47,4.47,0,0,0,.57-.21c.16-.08.32-.18.48-.27l.21-.05Zm2.45-.24,1.38.1-.11.12,0,0a1,1,0,0,1-1.32-.25m1.1.86c.41.75.39,1.15,0,1.31,0-.44-.28-.82,0-1.31m-.13,2,.29-.62c.09.06.23.09.26.18.09.26-.14.33-.54.44m.67.24-.46.47-.21-.13.37-.51.31.18m-.26.92a2.92,2.92,0,0,1-.42.18c.06-.19,0-.32.11-.36a2.31,2.31,0,0,1,.52-.28s.11.09.16.14c-.12.11-.24.23-.37.33m.2-2.89a1.83,1.83,0,0,1-.23-.47c0-.07.16-.2.33-.4,0,.34.06.55.08.76l-.19.1m.79.61-.32-.75c.49.13.52.2.32.75m.17-1.27c0,.34-.13.52-.51.48l-.17-.52.57-.66s.07,0,.11,0c0,.23,0,.47,0,.71m1.59-1.46.42.66c-.54.13-.63,0-.42-.66m.24-.26s.11-.14.18-.22h0l.48.45c-.49.2-.62,0-.69-.22m1.46,2a4.47,4.47,0,0,1-.62.27c-.08-.39-.15-.74-.24-1.2l.72,0,0,.13-.52.24v.1a1.57,1.57,0,0,1,.52-.13,2.1,2.1,0,0,1,.57.21,3.14,3.14,0,0,1-.4.34m.61-1.32c-.6.22-.71.21-.79-.18l.82.06s0,.08,0,.12m.34-.85,0,0c0-.15,0-.29,0-.43l.12-.06.17.17a2.34,2.34,0,0,1-.29.34m.54-.14s0-.1,0-.15l.16,0-.06.18h-.08m.64,0h0l-.53.44,0,0,.15-.28.37-.16,0,0h0l0,0,.06,0v0l0,0h0m.21.25h0m.21.07h0m.38.06s0,0,0,0l0,0h0m.52.28.17-.09.08.05c0,.09,0,.19-.06.29h0a1.54,1.54,0,0,1-.18-.27m1,.88c-.14.24-.22.24-.67,0v-.08l.68.07m0,1.24a4.58,4.58,0,0,1-.46-.26,2.45,2.45,0,0,1-.26-.28,2.23,2.23,0,0,1,.49-.06,1.54,1.54,0,0,1,.39.16l0-.07-.38-.23s0-.06,0-.09l.59.07-.41.77m.19-.88a1.94,1.94,0,0,0-.09-.19l.52-.08.08.16-.51.11m.29-.47.48-.24c0,.07.14.16.13.19s-.24.25-.6.05m.29.54.46-.38c0,.47,0,.55-.46.38m1.49.81c0-.15.08-.32.12-.47,0,0,.06,0,.08,0l.35.52-.23.32c-.31,0-.41-.17-.33-.4m.32,2.54a3.49,3.49,0,0,1-.25-.27c.05,0,.13-.08.15-.07a1.79,1.79,0,0,1,.37.26s0,.13,0,.26a2,2,0,0,1-.31-.18m.24-.28-.29-.38.28-.08.21.4-.2.06m-.06-.82c0-.05.16-.06.24-.08,0,.13.07.26.12.46-.31-.13-.48-.2-.36-.37m.4-.12c-.31-.17-.25-.44.21-.88.16.37-.13.59-.21.88m.53-.51c.25.33,0,.52-.06.77-.19-.2-.16-.42.06-.77m-.39-.81,0,0-.06-.09,1.14.12a1,1,0,0,1-1.11,0m1.94-.58c.09-.14.54-.18,1-.14l-.17,0a1.16,1.16,0,0,0,.76.07l.16.05V363l-1.74-.1m2.69-.18h0v0m0-.17a.73.73,0,0,0-.28.14l-.42,0s0,0,0,0l-.17,0-.85-.08,1.48-.16.05-.1h.08l.08.27m.2-.56h0c.21-.08.44-.13.64-.23a2.08,2.08,0,0,0,.23.41l-.55,0-.33-.15m2.52,0a4.74,4.74,0,0,1-.6-.18c0-.11.07-.31.12-.31a2.54,2.54,0,0,1,.76,0c.09,0,.16.21.32.43a2.42,2.42,0,0,1-.6.06m2.93-1-.14-.26.27.15v0l-.15.07m.1-.2-.33-.22-.2-.37.25.13.16.08.12.38m.78-.33c-.14-.08-.28-.18-.42-.27l0-.08h0l.55.19.12.3-.22-.12m1.56,1.14-.09,0,.08,0v.08m-.51-.27h0m.12.21.42.31c0,.16,0,.31,0,.49l-.46-.8m2,1.9-.35-1,.44.24a3.33,3.33,0,0,1-.09.78m2.78,1.51.43,1.62-.21.06-.51-1.62.29-.06m-1.3-1.51c.91.73.57,1.82.87,2.73l-.17.05-.85-2.72.15-.07m-.47,1-.63-2c.63.31.78.81.63,2m-.92-1.85-.47-.31-.33-1a1.26,1.26,0,0,1,.8,1.26m-1.8-1.36-.07,0-.64-.35-.68-1.18c.75.07,1.18.54,1.38,1.58M561.28,359a4.56,4.56,0,0,1,.68.81c.08.16.14.33.2.5l-.61-.25-.19-.37.28.06c-.1,0-.2-.07-.31-.11l-.26-.5.2-.15m-.62-.06c.07.17.13.35.19.53-.11,0-.21-.09-.32-.11a1.05,1.05,0,0,0-.26,0l-.23-.43h.33l0-.09-.38,0-.1-.19.12-.16c.23.16.56.28.66.5m-2.46-1h-.38c0-.12-.05-.24-.07-.38a.94.94,0,0,1,.45.37m-1.27-.48c0-.06,0-.1,0-.16a1,1,0,0,1,.12.13l-.12,0m-.39-.18a1.29,1.29,0,0,1,0,.26l-.44.09-.07-.27.39-.17c.06,0,.1.06.11.1m-.54-.09-.06-.23.31.14-.25.09m.34-.55,0-.11-.19-.08,1.22-.94.25.06a1.41,1.41,0,0,1-1.33,1.08m2.3-1a.61.61,0,0,1,0-.07l.53,0-.17.13-.36-.08m4.26-1.87,0-.19,1.68-.32a1.44,1.44,0,0,1-1.65.51m.87-.85h.52a3.82,3.82,0,0,0-2.35,1.41l.56.24-2.17,1.46-.59-.14.35-.25.68,0v0l-.61-.06,1.76-1.27v0l0,0h0a6,6,0,0,1,.62-.79l.63-.55a3.13,3.13,0,0,1,.57-.08m-4.56-1.26-.18.25a1.75,1.75,0,0,0,1.06-.84l.25-.1.12.14-2.31,2c0-.37.48-1,1.06-1.47m-1.06-1.42-.73,1.47-.26.29-.23-.18,1.23-1.58m-1.4-1c-.25.36-.57.71-.51,1.14-.38.43-.86.83-.66,1.54l.15-.17-.44,1.26-.28.09.55-1.16,0,0s0,0,0,0h0l-.14-.7.17-.47-.25.07-.1-.47-.34.59h0l-.49.84-.09,0c0-.21,0-.41.06-.62h0l.06-.15.45,0-.24-.42c.17-.35.35-.69.53-1a1,1,0,0,1,.24,0l0,.23c-.19.17-.2.45-.18.79a.82.82,0,0,0,.31-.15l0,.17.08-.33a.62.62,0,0,0,.07-.27l.1-.42.27-.09a3.4,3.4,0,0,0-.08.6l.37-.7.3-.1m1.11-2.68-.25.34-.15-.07a2.4,2.4,0,0,0-.24.41c0,.1-.07.19-.1.29a6.27,6.27,0,0,0-.77,1.26c-.08-.13-.2-.26-.2-.39s0-.07,0-.1l.33-1.36,1.35-.4m-1.69.5v0h.06l0,0v0h0l0,.12a4.22,4.22,0,0,0-.69,1.5l-.21.11c-.1-.17-.28-.34-.28-.51a1.29,1.29,0,0,1,1.21-1.22m-1.5,1.13a2.93,2.93,0,0,1-.25.48,7.39,7.39,0,0,1,.15-1l.17-.06a2.9,2.9,0,0,1-.06.59m-2.54-3c.72-.14,1.46-.17,2.19-.24,0,.05,0,.1,0,.15l-2.74.78-.13-.15c.21-.19.4-.5.63-.54m.88,1.09-1.16.38.11-.44a3.65,3.65,0,0,0-.21.47l-1,.33c.19-.85,1-1.12,2.24-.74m-5.22-2,.65,1.34-.17.54.15,0,.1-.4.53,1.1v0l0,.1.09,0a1.62,1.62,0,0,0,.22.47c.1.12.3.16.47.23l0,0-.43.58-.36-.76.07-.17-.07,0-.07.07c-.14-.3-.28-.62-.43-.91-.23-.45-.55-.85-.75-1.29a3.31,3.31,0,0,1-.15-.89l.22-.07M547,344l-.3,0c-.07-.77-.15-1.55-.22-2.32.71.69.54,1.49.52,2.28m-2.21-1.49a2.32,2.32,0,0,1,.85,2.05,8.39,8.39,0,0,1-.6-1.54l.11.6-.36-1.12m-.35,1.26.08.15-.16.06-.08-.14.15-.08m.07,1.9-.07.06,0-.13,0,.07m-1,.07.49.68-.16.38-.41-.49.08-.57m-1,0,.57.79,0,.09-.55-.37c0-.17,0-.34,0-.51m-.33,1.32,0,.54-.22-.18c-.1-.3-.19-.6-.27-.9l.52.55m-1.74-1.92c.26.31.52.61.78.91l.15.89-.21-.18-.73-1.62m-3.73-.42,1.34.28-.05.19-1.34-.33.05-.14m.29.7,0-.12c.76.2,1.66,0,2.26.57l-.05.11-2.25-.56m3.13,1.2-1.69-.41c1-.11,1.44,0,1.69.41m-.76.26,0,0-.1,0h.07m.7,1.41c.21.09.42.2.63.29s.29.1.44.15l.06.24.15-.06,0-.13.05,0c.1.1.2.19.12.32l-1.27-.53-.14-.31m-1.28,0,.41.22,0,0-.19,0,.16.09,0,.07h0l-.28-.36m-.9.16,0,0-.4-.09-.44-.43.86.48m.12.46,1,.54a.93.93,0,0,1,0,.14.79.79,0,0,1,.29.08l.3.25.05,0h0l0,0a2,2,0,0,0,.36.43l.14-.08-.07-.12.11.06v0l0,.22-.39-.08a3.29,3.29,0,0,0-.4-.28c0-.07,0-.13.22-.18h0l0,0-.31-.19,0,.3-.15-.09a.55.55,0,0,0,0,.15s0,0,0,.07l-.14,0a.8.8,0,0,0-.28-.62c-.22-.19-.43-.39-.64-.59m-1.36.78.15.32h0l0,.07,0-.07a3.61,3.61,0,0,0,.55,0,.28.28,0,0,1,.13,0h0l.31,1.5.2,1c-.37-.82-.75-1.63-1.12-2.44.17.61.31,1.24.5,1.85l-.25-.36-.58-1.88h.16m-.63,0h.28l.37,1.33-.81-1.17c.31.58.61,1.16.93,1.73l.08.14.11.4c-.37-.61-.74-1.23-1.13-1.84.22.57.43,1.15.68,1.7l-.42-.6-.68-1.63a11.09,11.09,0,0,0,.35,1.52,14.68,14.68,0,0,0-1.43-1.73l1.36.11.14.2-.1-.19.26,0m-3.53-.11.53.85.16-.08-.59-.78a8.93,8.93,0,0,1,1-.06l.38,0,.43.72-.29-.71h.22l1.67,2.42c.06.17.14.34.21.51l-1.3-1.6,0,0a2.15,2.15,0,0,0-.43-.54,3.21,3.21,0,0,0,.5,1.3l-1.39-1.39c.22.32.69.93,1.08,1.57.12.2.22.41.33.61a12.89,12.89,0,0,0-1.71-1.08l1.69,1.42a.31.31,0,0,0-.06.13c-.48-.54-1.24-.86-1.78-1.37l.59,1-1.44-.69h0l-2.47-2a25.94,25.94,0,0,0,2.67-.27m1.28,3.49.11-.09a3,3,0,0,0-.29-.25l.41.24.25.41-.11,0-.37-.29" transform="translate(-512 -330.52)" style="fill:#6ec829"/><path d="M534.53,350.39v0l0-.08,0,.08,0,0" transform="translate(-512 -330.52)" style="fill:#6ec829"/><path d="M550.65,363.32h0" transform="translate(-512 -330.52)" style="fill:#6ec829"/><polygon points="39.28 28.04 39.27 28.04 39.27 28.04 39.28 28.04" style="fill:#6ec829"/><path d="M548.08,364.4h0c0,.1-.09.2-.13.29h0l.77.45.07,0a1.75,1.75,0,0,0-.17-.22l-.55-.49h0Z" transform="translate(-512 -330.52)" style="fill:#6ec829"/><polyline points="37.87 33.84 37.87 33.84 37.87 33.84 37.87 33.83 37.87 33.84" style="fill:#6ec829"/><path d="M556.14,366.08c-.67-.74-.81-.84-1.13-.77l.32.48-.45-.12-2.41-.66a.66.66,0,0,0-.27,0,14.11,14.11,0,0,0,3.82,1.06h.12" transform="translate(-512 -330.52)" style="fill:#6ec829"/><path d="M555.59,365.28l0,.08c.28.27.76.39.89.84a3.44,3.44,0,0,1,1.59.63c-.62-.44-1.26-.84-1.91-1.25-.17-.11-.35-.2-.53-.3" transform="translate(-512 -330.52)" style="fill:#6ec829"/><path d="M557.82,365.21a.26.26,0,0,0,0-.05l-1.18-.44s0,.06,0,.1l1.2.4" transform="translate(-512 -330.52)" style="fill:#6ec829"/><polygon points="39.27 28.04 39.28 28.04 39.28 28.04 39.27 28.04" style="fill:#6ec829"/><path d="M548.89,365.67c0,.29.21.35.42.44,0-.23-.16-.33-.42-.44" transform="translate(-512 -330.52)" style="fill:#6ec829"/><path d="M640.42,386.69c-30.07-1-51.06,14.88-81.84,13.64a74,74,0,0,1-10.16-1.12c-.09-.37-.21-.76-.36-1.2a41.12,41.12,0,0,1-2.31-17.91c.52-7,.27-15.11-.38-17.66s-1.44,1.43-1.44,1.43,1.16,14.65.07,22.08a36.4,36.4,0,0,0,.18,12.38c-17.24-4.16-27.41-13.13-27.41-13.13s14.2,19.46,37.5,21.16,43.63-5.13,56.64-9.37,45.67-12.16,64,5c0,0-4.38-14.35-34.45-15.32" transform="translate(-512 -330.52)" style="fill:#6ec829"/><path d="M555.92,410.33c33.12,2,58.09-17.54,90.46-15.87s32,17.06,32,17.06c-19-20.05-51.53-11.18-65.72-6.56s-36.32,12-61.38,9.58S512,390.06,512,390.06a67.05,67.05,0,0,0,43.92,20.27" transform="translate(-512 -330.52)" style="fill:#006db6"/><path d="M599.92,366.91a2.26,2.26,0,1,1-2.26-2.26,2.26,2.26,0,0,1,2.26,2.26" transform="translate(-512 -330.52)" style="fill:#6ec829"/><path d="M617.86,366.91a2.26,2.26,0,1,1-2.26-2.26,2.26,2.26,0,0,1,2.26,2.26" transform="translate(-512 -330.52)" style="fill:#6ec829"/><path d="M640.1,366.91a2.26,2.26,0,1,1-2.26-2.26,2.26,2.26,0,0,1,2.26,2.26" transform="translate(-512 -330.52)" style="fill:#6ec829"/></g></svg>