<svg id="Layer_1" data-name="Layer 1" xmlns="http://www.w3.org/2000/svg" xmlns:xlink="http://www.w3.org/1999/xlink" viewBox="0 0 1366.83 129"><defs><linearGradient id="linear-gradient" x1="0.74" y1="430.77" x2="1.75" y2="430.77" gradientTransform="matrix(-485.87, 748.17, 748.17, 485.87, -321011.25, -210164.42)" gradientUnits="userSpaceOnUse"><stop offset="0" stop-color="#fff"/><stop offset="0.58" stop-color="#fff"/><stop offset="0.64" stop-color="#c9c9c9"/><stop offset="0.71" stop-color="#8d8d8d"/><stop offset="0.78" stop-color="#5a5a5a"/><stop offset="0.85" stop-color="#333"/><stop offset="0.91" stop-color="#171717"/><stop offset="0.96" stop-color="#060606"/><stop offset="1"/></linearGradient><clipPath id="clip-path"><rect x="-39" y="-22.06" width="1440" height="152.06" style="fill:none"/></clipPath><clipPath id="clip-path-2"><rect y="-22.06" width="1366.83" height="152.06" style="fill:none"/></clipPath><filter id="luminosity-noclip" x="-92.03" y="-680.81" width="1540.25" height="1467.56" filterUnits="userSpaceOnUse" color-interpolation-filters="sRGB"><feFlood flood-color="#fff" result="bg"/><feBlend in="SourceGraphic" in2="bg"/></filter><mask id="mask" x="-92.03" y="-680.81" width="1540.25" height="1467.56" maskUnits="userSpaceOnUse"><polygon points="1448.22 22.05 963.77 786.75 -92.03 83.89 392.41 -680.81 1448.22 22.05" style="fill:url(#linear-gradient);filter:url(#luminosity-noclip)"/></mask><clipPath id="clip-path-3"><rect x="-33.06" y="-7" width="1422.3" height="137" style="fill:none"/></clipPath><clipPath id="clip-path-4"><rect x="829.49" y="-58.06" width="570.78" height="118.12" style="fill:none"/></clipPath></defs><title>nav-2</title><g style="clip-path:url(#clip-path)"><g style="clip-path:url(#clip-path-2)"><g style="mask:url(#mask)"><g style="clip-path:url(#clip-path-3)"><rect x="-24.28" width="1404.74" height="129" style="fill:#006db6"/></g></g><g style="opacity:0.10000599920749664"><g style="clip-path:url(#clip-path-4)"><path d="M990.05,43.13c105.26,6.68,184.62-58.74,287.49-53.15S1379.29,47.1,1379.29,47.1c-60.48-67.15-163.77-37.43-208.87-22S1055,65.17,975.35,57.21s-124.88-82-124.88-82,51.17,62.29,139.58,67.88" style="fill:#fff"/><path d="M865.61-41.16s52.88,69.69,137,71.75C1073,32.31,1095.63,20.43,1133,9c37.1-11.39,155.17-63.92,235.1,6.21,0,0-19.05-58.06-126.84-51.27-103.58,6.52-124.4,42.2-224.62,45.78,0,0-87.65,3.13-151-50.84" style="fill:#fff"/></g></g></g></g></svg>