<svg id="Layer_1" data-name="Layer 1" xmlns="http://www.w3.org/2000/svg" xmlns:xlink="http://www.w3.org/1999/xlink" viewBox="0 0 1366 130"><defs><linearGradient id="linear-gradient" x1="0.73" y1="429.77" x2="1.75" y2="429.77" gradientTransform="matrix(-485.87, 748.17, 748.17, 485.87, -320263.08, -209679.55)" gradientUnits="userSpaceOnUse"><stop offset="0" stop-color="#fff"/><stop offset="0.58" stop-color="#fff"/><stop offset="0.64" stop-color="#c9c9c9"/><stop offset="0.71" stop-color="#8d8d8d"/><stop offset="0.78" stop-color="#5a5a5a"/><stop offset="0.85" stop-color="#333"/><stop offset="0.91" stop-color="#171717"/><stop offset="0.96" stop-color="#060606"/><stop offset="1"/></linearGradient><clipPath id="clip-path"><rect y="-23.06" width="1366" height="152.06" style="fill:none"/></clipPath><filter id="luminosity-noclip" x="-65.89" y="-680.81" width="1497.77" height="1467.56" filterUnits="userSpaceOnUse" color-interpolation-filters="sRGB"><feFlood flood-color="#fff" result="bg"/><feBlend in="SourceGraphic" in2="bg"/></filter><mask id="mask" x="-65.89" y="-680.81" width="1497.77" height="1467.56" maskUnits="userSpaceOnUse"><polygon points="1431.89 22.05 960.8 786.75 -65.89 83.89 405.2 -680.81 1431.89 22.05" style="fill:url(#linear-gradient);filter:url(#luminosity-noclip)"/></mask><clipPath id="clip-path-3"><rect x="-8.54" y="-7" width="1383.08" height="137" style="fill:none"/></clipPath><clipPath id="clip-path-4"><rect x="808.12" y="-39.96" width="570.43" height="118.12" style="fill:none"/></clipPath></defs><title>nav-1</title><g style="clip-path:url(#clip-path)"><g style="clip-path:url(#clip-path)"><g style="mask:url(#mask)"><g style="clip-path:url(#clip-path-3)"><rect width="1366" height="129" style="fill:#006db6"/></g></g><g style="opacity:0.10000599920749664"><g style="clip-path:url(#clip-path-4)"><path d="M968.58,61.23c105.2,6.68,184.51-58.74,287.31-53.15S1357.59,65.2,1357.59,65.2c-60.45-67.15-163.67-37.43-208.74-22s-115.37,40-194.95,32.08-124.81-82-124.81-82,51.14,62.29,139.5,67.88" style="fill:#fff"/><path d="M844.22-23.06s52.84,69.69,136.93,71.75c70.36,1.72,92.94-10.16,130.28-21.63,37.08-11.39,155.08-63.92,235,6.21,0,0-19-58.06-126.76-51.27-103.52,6.52-124.32,42.2-224.48,45.78,0,0-87.59,3.13-150.92-50.84" style="fill:#fff"/></g></g></g></g></svg>