<svg xmlns="http://www.w3.org/2000/svg" viewBox="0 0 592.96 600.97"><title>Asset 2</title><g id="Layer_2" data-name="Layer 2"><g id="Layer_1-2" data-name="Layer 1"><g style="opacity:0.19999699294567108"><path d="M3.92,264.08c8.19-3.07,16.68-5.69,24.34-9.57,28.79-14.38,59.54-17.75,91.49-15.32,1.07.09,2.12.32,3.19.42.67.69,1.36,1.38,2,2.07l-.49,0c-3.57-.08-7.11-.35-10.58-.65s-7.13-.81-10.69-1.17a11.08,11.08,0,0,0-.5,1.27l1.81.39c-3.77-.83-7.55-1.66-11.41-2.34,5.86,2.05,12.07,3.35,16.53,6.73a26.08,26.08,0,0,0-3.21,3.05c-2.25-.54-4.42-1.68-6.79-1.52a51.69,51.69,0,0,0-8.7,1.52c-4.32-.47-8.64-1-13-1.41,5.77,4.7,12.77,4.07,19.95,4.39l-16.25,4.53a32.93,32.93,0,0,1-8.4.46l5.77.27-5.6,1.57v.69c3.42-.7,6.79-1.35,10.18-2l.63,0c.07.23.11.44.19.65-2.14,1.15-4.26,2.44-6.48,3.43-2.36.38-4.72.78-7.08,1.15-2.93.45-5.92.51-8.89,1.07a9.13,9.13,0,0,0-4.87,2.7c4.75-.68,9.52-1.4,14.27-2.1-4.12,1.77-8.25,3.55-12.38,5.3a8,8,0,0,0-1.22.69l-4.67,1.07,1.05,1.68c-2.2,1-4.35,1.94-6.59,2.9.06.14.13.25.19.39,2.05-.46,4.11-.94,6.15-1.36a3,3,0,0,0,.19.4,43,43,0,0,0-5.72,2.14c-.52.24-1,.6-1.53.84-3.8,1.34-7.61,2.66-11.39,4a.92.92,0,0,0,.15.46l6-1.59c-3.59,1.91-7.2,3.67-10.76,5.9,5.31-2.27,10.62-4.51,15.93-6.79.21.45.43.85.64,1.28l-.42.43c-10.13,4.76-20.28,9.49-30.37,14.28.06.1.11.22.17.33q13.51-5.65,27-11.26l-.39.4.93-.58c.21.32.41.62.63.91-10.24,7-20.48,13.94-30.45,20.7C32.82,301.53,44.39,287,60.29,278c7.86-4.42,16.37-7.94,24.58-11.87,2-1,4-2.07,6.24-3.23.74.27,1.75.68,2.7,1.06-5.56,2.91-11.13,5.86-16.62,9.11Q86.61,269,96,265c.62.33,1.22.67,1.82,1,0,.11.08.23.12.34q-4.71,2.68-9.43,5.33l-.1,0,.08,0-1.64.93A4.17,4.17,0,0,1,87,273l2.31-1c14.2,6.35,28.11,13.33,44.51,14.61v1.78c-2.3.24-4.8,1.11-7,.75-14.1-2.55-28.12-5.34-42.18-8.05-.11.52-.3,1-.44,1.54q19.83,4.62,39.71,9.12c-16.77,1.74-33.83.11-50.84,2.2,13.6.7,27.23,1.36,40.87,2.09a3.56,3.56,0,0,0,.2.35c-15.49,2.18-31,4.26-46.51,6.45,0,.36.06.7.08,1.09q17.8-1.28,35.66-2.61c.13.3.29.6.41.88-4.34,1.58-8.59,3.35-13,4.65-10.67,3-21.33,5.84-31.79,9.57,10-2,19.93-4,29.91-5.93a4.7,4.7,0,0,1,.3.57Q69.1,318.41,49,325.82c.13.33.24.6.38.9,11.06-3.49,22.19-7,33.29-10.49.16.12.3.21.46.31-3.34,2-6.61,4.2-10,6.07s-7.24,3.78-11,5.57-7.62,3.45-11.45,5.15c.17.41.38.81.56,1.2,4.91-1.68,9.84-3.44,16.09-5.63-2.42,2.17-4.22,3.27-5.25,4.8-.74,1.18-.5,2.85-.74,4.34-2.67,1-5.74,1.31-8,2.81a53.16,53.16,0,0,0-11.29,10.2c5.15-3.37,10.36-6.67,15.57-10.05.27.24.6.51.92.78q-10.83,11-21.69,22.06a4.14,4.14,0,0,0,.6.46c3-2.52,5.89-5.05,8.85-7.6.29.14.58.3.87.46-1.2,2.06-2.23,4.25-3.64,6.25-3.9,5.52-7.92,11-11.94,16.5-2,2.82-1.11,4.13,2.53,4.09-2.18,2.55-4.67,4.91-6.45,7.67a124,124,0,0,0-9.38,16.89q5.05-7,10.12-13.91c.55.16,1.13.39,1.66.54-.17,1.72-.35,3.36-.5,5.28,3.71-8,7.35-15.79,11.38-24.43l-3.4,3.25c6.33-7.45,12.78-14.83,18.93-22.43,4.1-5,7.75-10.37,11.89-16-2-1-3.47-1.78-5-2.55,2.81-.21,5.61-.36,8.58-.57l4.53,3.88c-4.25-1.3-6.9-.15-9.08,3.67-5,8.89-10.49,17.6-15.12,26.75q6.38-8.82,12.72-17.65c.73.3,1.45.64,2.21,1-1.93,3.61-3.85,7.25-5.74,10.86a3.25,3.25,0,0,0,.4.19c4.07-5.74,8.11-11.5,11.83-16.83,2.29,0,4,0,5.81,0-.83,1.69-1.61,3.43-2.41,5.12.53.27,1.11.49,1.67.73,2.1-2.76,4.47-5.39,6.24-8.28.48-.81-.84-2.46-1.31-3.71,2.36-1.36,5.08-2.43,7.13-4.1,4.31-3.53,8.46-7.24,12.63-10.91,1.71.16,3.42.28,5.13.4L100.13,338l-5,.67a10.14,10.14,0,0,0-3.57,1.25l7.52-.71c.13.09.27.19.43.32l.44-.4,31.78-3-.19.58,2.12.31c-4.84,1.82-9.66,3.78-14.51,5.34-5.21,1.73-10.52,3-15.74,4.49C98,348.37,92.6,350,87.2,351.94c5.91-1.28,11.77-2.53,17.68-3.76a6.83,6.83,0,0,0,.24.72c-1.66,1.05-3.29,2.08-4.94,3.11,0,.12.06.25.08.39,8.24-3.36,16.46-6.72,24.94-10.2-.07,1.22,0,1.63-.18,1.71-2.09,1.53-4.17,3.1-6.28,4.6l-9.65,3.56a2.21,2.21,0,0,0,.05.36Q93.57,359.11,78,365.77v.57c2.3-.88,4.87-2.7,6.8-2.49,7.92.9,14.1-6.41,21.43-8.19,1.2-.29,2.33-1.58,3.33-3l6.32-2c-4.48,3.21-9,6.34-13.32,9.77-3.81,3.06-6.61,7.45-10.38,10.57C87,375.3,81.36,379,75.89,383c-1.32,1-2.64,2-4,3,.17.22.3.52.47.78Q81,381,89.7,375.31a6.32,6.32,0,0,0,.61.6,17.89,17.89,0,0,1-2,2.57c-2.31,2-4.88,3.81-7.06,5.93a203.24,203.24,0,0,0-16.92,18.27c.8-.39,1.58-.76,2.34-1.2a4.44,4.44,0,0,0,.56.36c-1.8,2-3.57,3.91-5.33,5.88a2.93,2.93,0,0,0,.4.46c2.13-1.78,4.21-3.57,6.37-5.36a3.33,3.33,0,0,0,.71.6c-4.6,5.77-9.17,11.54-13.76,17.35.22.14.44.3.66.47,3-3.41,6-6.82,8.92-10.22.29.14.62.26.91.41-5.61,9.33-11.25,18.66-16.83,28a4,4,0,0,1,.4.57c1-.84,2.23-1.5,2.85-2.52,4.44-7.19,9.33-14.28,13-21.75,13.72-27.81,34.9-49.25,60-67.37.85-.61,1.76-1.11,2.62-1.71,18.63,1.35,36.05,5.34,55.56-.58a6.85,6.85,0,0,0-2.54-1c-3.4-.06-6.83.16-10.19.13-6.51,0-13-.15-20.19-.25,1.54-1.74,2.35-2.67,3.17-3.58-6.06-2.42-12.33-1.5-18.9.81,1.12-.7,2.2-1.52,3.33-2.18a26.1,26.1,0,0,1,3.9-1.7c1.87.27,3.77.48,5.62.82a32.93,32.93,0,0,1,6.07,2.23l0,0a.89.89,0,0,1,.15,0l0-.16c6.42.34,12.85.81,19.31.88,5.23.08,10.54-.42,15.82-.64h0c-.66-.89-1.12-2.21-2.09-2.56-1.33-.46-3-.1-4.6-.27-6.49-.54-13-1.14-19.48-1.73.07-.52.19-1.06.27-1.6,2.1-.44,4.37-1.39,6.34-1.26,3.34.25,6.46,1.35,9.78,1.76,4.4.54,8.93.7,13.62,1-1.61,2-2.68,3.3-3.8,4.6l0,0h0c-1.78,1.58-3.6,3.16-5.38,4.69l.17-.14c-2,2.29-4,4.61-6,6.89h0l.11,0c-2.22,3.6-5.3,5-9,5.85-11.72,2.62-23.4,5.62-35.13,8.46-1.2.32-2.44.35-4.67.69,2.25-2.9,3.91-5,5.85-7.49-4.31-.14-7.81-.29-11.93,2.78-7.91,6-16.16,11.35-24.35,17,9.82-.44,15.63-10.24,25.09-14.2-1.59,2-2.58,3.23-3.74,4.68,1.31.24,2.48.48,3.65.68C113,372.59,108.57,384,100.39,389.57c5.05-3.86,10.12-7.69,15.16-11.53l.79.74c-4.87,5.4-9.71,10.86-14.58,16.26-2,2.11-4.21,4-6.11,6.22a9.43,9.43,0,0,0-2.14,4.94q8.37-9.13,16.79-18.21c.43.34.9.68,1.31,1-6.09,7.65-12.22,15.32-18.43,23.12.56.16,1.1.29,1.64.48-1.08,2.06-2.2,4.08-3.31,6.1a3.22,3.22,0,0,0,.32.17c1.3-1.58,2.6-3.18,3.88-4.72.21.08.44.18.67.28-3.51,5.44-7,10.88-10.51,16.31.15.07.27.13.39.21,3.09-4.08,6.15-8.16,9.22-12.25.36.17.67.36,1,.54-5.68,10.93-11.42,21.88-17.1,32.8a.67.67,0,0,0,.29.17q7.19-12.47,14.36-25l1,.31c-3.9,11.16-7.81,22.33-11.6,33.22,10.81-15.13,11.64-32.36,18.65-48.48,3.48-8,8-15.69,11.93-23.51,1-1.93,1.87-3.85,2.94-6.13,1.07-.38,2.51-.92,4-1.44v.13l.88-.33-.83.19a45.75,45.75,0,0,0,2.12-5.33c.44-1.41,3.79-3.23.66-4.42,1.73-.47,3.47-1.11,5.18-1.43,9.92-1.84,19.81-3.36,29.76-5.43,4.09-.89,8.24-2.87,12.39-4.31.19.28.37.57.56.89-1.38,1.2-2.68,3-4.22,3.58-4.28,1.69-8.69,2.79-13,4.34Q138,375,121.77,381c14.87-3.57,29.85-5.53,44.13-14.58.17.49.33,1,.5,1.51a29.57,29.57,0,0,1-3.74,2.38c-14.36,6.63-28.76,13.14-43.06,20.05,14.29-4.52,28.7-8.26,41.89-17.74l.94,1.22c-1.58,1.61-3,3.8-4.8,4.85-11.87,7-23.85,13.73-35.78,20.59.15.41.37.87.51,1.34,11.49-6.13,23-12.23,34.47-18.34-11.55,11.64-25.14,21.05-36.7,33.08q15.8-11.93,31.58-23.89c.13,0,.27.06.38.11q-15.67,16.65-31.32,33.29l.73.74q12.59-12,25.15-23.94l.81.37c-2.38,3.74-4.62,7.64-7.24,11.26-6.28,8.72-12.72,17.26-18.51,26.33,6.38-7.53,12.73-15.11,19.11-22.66a3.69,3.69,0,0,1,.52.2q-11.05,17.67-22.11,35.31c.27.11.5.25.78.37l19.21-27.95c.17,0,.31,0,.47-.07-1.39,3.47-2.65,7-4.21,10.42-1.6,3.57-3.37,7.12-5.15,10.65s-3.85,7.12-5.78,10.68a8.43,8.43,0,0,0,1,.48l9-13.87c-.67,3-1.37,4.9-1.34,6.61.08,1.31,1.17,2.32,1.8,3.51-1.54,2.27-3.6,4.46-4.45,6.86a53.72,53.72,0,0,0-3,14.09q3.13-8.3,6.21-16.65l1.16,0q-2.23,14.43-4.37,28.77c.26,0,.47,0,.71,0,.84-3.58,1.63-7.2,2.47-10.78.33-.1.61-.17.93-.25.2,2.16.63,4.35.64,6.6.07,6.26,0,12.58,0,18.88,0,3.24,1.37,3.54,4.05,1.28a76.86,76.86,0,0,0-.74,9.31,120.15,120.15,0,0,0,2.13,17.53c0-5.3,0-10.62.07-16a16,16,0,0,0,1.53-.62c.77,1.33,1.58,2.57,2.47,4-1.51-7.92-3-15.53-4.62-24-.36,1.81-.57,3-.8,4.29.71-9.05,1.58-18.21,2.08-27.25.36-6,.23-12,.3-18.48-2,.54-3.54.91-5.07,1.32,2-1.87,4-3.72,6.08-5.7l5.44-.11c-3.9,1.75-5.21,4.2-4.78,8.16,1.06,9.27,1.6,18.74,3.1,27.93V462.36c.7-.25,1.4-.46,2.13-.71.53,3.72,1,7.4,1.56,11.1a2.13,2.13,0,0,1,.41-.11c-.1-6.5-.14-13-.2-19,1.7-1.43,3-2.55,4.3-3.63.32,1.66.63,3.37,1,5.09.53-.23,1.09-.37,1.6-.57a78,78,0,0,0,.22-9.62c-.06-.84-1.91-1.18-3-1.74,1.07-2.44,2.55-4.86,3.14-7.3,1.94-7.54,3.82-15.12,5.26-22.68,1.56-8.05,2.85-16.08,3.76-24.08.61-5.21.1-10.29.55-15.52.19-2.4,1.6-5,2.47-7.49.54,0,1.13.13,1.7.15q-3.88,32.21-7.68,64.43c.14,0,.31,0,.53,0,2.08-10.16,4.24-20.32,6.4-30.48.58,0,1.21-.08,1.81-.12-.58,6.45-1.14,12.85-1.7,19.26.31,0,.64-.06,1-.11.76-3.14,1.53-6.24,2.54-10.5.31,3.45.54,5.7.78,8,.27,0,.58-.08.89-.14,1.5-7.09,2.86-14.17,4.54-21.29a38.42,38.42,0,0,1,2.62-6.12c.06-.19.11-.39.17-.59,0,0,0,0,.06,0a48,48,0,0,1,1.35-5.93c.24-.78,1.33-1.44,2.07-2.17.45.68,1.23,1.26,1.34,2.06.16,1.21.33,2.73-.33,3.77-1,1.54-2,4.8-4.43,2.27a1.39,1.39,0,0,0,0,.14c-.06.14-.13.27-.19.41-.33,1.12-.68,2.22-.95,3.34l4.61-2.13c.24,1.7.5,3.38.6,5.1,0,.51-.84,1.35-.67,1.69,3.17,6.55-2.93,9.37-7.19,13,2.65-1.49,5.3-3,8.36-4.76.86-6.3,1.85-13.11,2.81-20h-.11l.13-.08c.22-5.18,2.81-9.39,7.24-11.1,1.14-.42,2.54.37,3.85.61-.64,1.45-.86,3.44-1.91,4.33-2.87,2.28-6.08,4.12-9.18,6.16,0,0,0,0,0,0s0,0,0,.05a8.94,8.94,0,0,0,3.32-.26c2.1-.9,4.05-2.45,6.17-3.28,1-.39,2.17.25,3.27.42-.59,1.12-.87,2.6-1.77,3.31-2.75,2.22-5.74,4.1-8.56,6.19a29.48,29.48,0,0,0-2.67,2.63c.3.38.57.75.85,1.13,5.07-3.91,10.17-7.83,15.22-11.74.38-2.49.8-5,1.23-7.45-2.05-3.81-1.45-6.24,2-8.32-.5-.32-1.5-.65-1.44-.93,2.21-7-1-12.31-1.66-18.38,2.3,4.48,4.6,9,7,13.85-.78,1-1.93,2.34-3,3.67,1.94.33,3.88.64,5.89,1-.27-2.7-.58-5.32-.64-8,0-2.14.35-4.35.5-6.55,2.61-1.13,5.05-2.16,7.72-3.31-.39,4.37-7.53,2.85-6.52,7.77,3.22-1.09,6.29-2.14,9.37-3.2.33-1.84.71-3.7,1-5.55.34.9.66,1.81,1,2.69q3.08-2.21,6.16-4.39c-.41-.52-.87-1.06-1.3-1.61,3.35-2.06,7.06-3.69,9.88-6.3,2.37-2.16,3.67-5.44,5.61-8.55-1.56-3.16-.55-8.74,2.47-11.49a20,20,0,0,1,2.75-1.58c-.5,1.68-1,3.4-1.5,5.06.34.19.71.4,1.07.56.77-.73,1.53-1.45,2.33-2.16a21.75,21.75,0,0,1,2.6-2.39,5.23,5.23,0,0,1,1.56-.7c0,.09,0,.18,0,.27-.17,1.58-.38,3.15-.61,4.77.5.23,1,.41,1.48.64,1.09-1.67,2.23-3.41,3.34-5.09l1.08.54a6.1,6.1,0,0,1,1.28,1.68,5.76,5.76,0,0,0,.5-.8c1.35.67,2.74,1.35,4,2-.08.3-.21.63-.33,1-2.52-.92-5-1.79-7.51-2.68a101.38,101.38,0,0,1,9,5.92c2,2.31,1.9,6.2.15,8.1,1.05,2.35,1.58,4.77,3.11,6.55,1.87,2.19,4.6,3.81,7,5.67-.44.32-.86.62-1.32.91,1.43,1.3,2.83,2.58,4.28,3.83.39-.49.8-1.09,1.17-1.61,0,1.29,0,2.54-.05,3.87,2.33,1.14,4.66,2.32,7.09,3.53,1.6-3.16-4.41-3.21-4-6.22,2,1.19,3.78,2.25,5.68,3.4a36.21,36.21,0,0,1-.69,4.44c-.47,1.82-1.17,3.55-1.76,5.32,1.63.08,3.3.13,4.94.19-.7-1-1.38-2.1-1.89-2.88,2.77-2.87,5.32-5.54,7.9-8.22-.62-4.08-.33-4.49,3.77-4.75-1.26,1.57-2.47,3.18-3.72,4.72-1.52,4-4.95,7.09-4.33,12.08,0,.14-.84.29-1.3.41,2.4,1.88,2.49,3.58.23,5.87l-.08,0s0,.07,0,.12l.07-.08c-.08,1.72-.18,3.46-.24,5.2,3.44,3.34,6.9,6.73,10.38,10.08a5.92,5.92,0,0,0,.86-.64,16.33,16.33,0,0,0-1.71-2.11c-1.93-1.84-4-3.55-5.91-5.46-.58-.58-.58-1.64-.9-2.45.94,0,2-.24,2.74.17,1.55.9,2.94,2.21,4.47,3.15a8,8,0,0,0,2.58.63v0s0,0,0,0c-2.16-1.81-4.44-3.54-6.39-5.49-.73-.69-.57-2.07-.83-3.14,1.11,0,2.34-.3,3.21.15a7.56,7.56,0,0,1,4,8.49l.12.1-.12,0c-.31,4.75-.67,9.49-1,13.83,2.24,1.66,4.13,3,6,4.4-2.84-3.09-7.3-5.91-3.67-9.8.14-.2-.36-.9-.26-1.22.36-1.18.87-2.25,1.26-3.36l3.45,2.13c-.07-.81-.15-1.6-.23-2.39,0-.09-.06-.19-.08-.27s0-.09,0-.13c-2.4,1.34-2.71-1-3.25-2.16A3.64,3.64,0,0,1,314,378c.23-.54.92-.79,1.4-1.16.46.56,1.25,1.19,1.34,1.73a36.05,36.05,0,0,1,.14,4.19h0c0,.14,0,.27,0,.41a21.8,21.8,0,0,1,1.1,4.51c.17,5,.14,10,.17,15,.24.06.5.15.74.19.54-1.46,1.08-3,1.91-5.23.13,3,.2,5.22.31,7.41a5.44,5.44,0,0,1,.74.22c.64-4.37,1.25-8.76,1.8-13.19.49.15,1,.26,1.45.36.07,7.16.13,14.3.22,21.41a1.28,1.28,0,0,0,.38.07q2.16-22.16,4.35-44.33c.46,0,.94.08,1.4.14.26,1.78,1,3.73.76,5.4-.47,3.55-1.74,6.91-2.13,10.49-.54,5.49-.84,11.1-.87,16.69-.07,5.29.2,10.68.53,16a30.89,30.89,0,0,0,1.35,5.33c-.93.24-2.49.21-2.67.74a45.58,45.58,0,0,0-1.41,6.5c.41.19.83.42,1.21.59.56-1.08,1.11-2.17,1.61-3.26.89.94,1.77,1.86,2.88,3.09-1,4-2.18,8.36-3.27,12.77l.33.08c1-2.4,2-4.79,3-7.19.55.24,1.11.52,1.64.78-1.08,4.5-2.17,9-3.28,13.51,2.73-6,4.69-12.25,7.07-18.29,1-2.61.31-4.49-2.54-6.21,1.69.32,3.36.68,4.37.88,1.43,1.63,2.72,3.21,4,4.75-1.2-.49-2.36-1-3.92-1.69-1,4.41-2.08,8.37-2.79,12.47-1,6.15-1.86,12.42-2.77,18.63,0-.86.07-1.7.09-3-2.71,5.44-5.15,10.35-7.68,15.43.94-.84,1.81-1.55,2.62-2.3.37.22.76.43,1.16.63-.85,3.57-1.71,7.16-2.55,10.74a69,69,0,0,0,4.55-11.5,39.06,39.06,0,0,0,1-6.33c1.83,1.91,3,1.89,3.5-.28,1-4.22,2-8.48,3-12.68a37,37,0,0,1,1.66-4.29,3.29,3.29,0,0,1,.65.26c.07,2.52.16,5.07.24,7.62a4.24,4.24,0,0,0,.57.11c.38-6.64.78-13.28,1.18-20,.33.07.6.12.93.21.74,4.06,1.55,8.06,2.3,12.08a31.28,31.28,0,0,0-.05-9.93c-.36-1.72-1.66-3.48-2.5-5.27.7-.63,1.74-1.2,2-2.06.34-1.14,0-2.54,0-4.66,1.94,4.19,3.47,7.4,5,10.66a9.19,9.19,0,0,1,1-.14c-1-2.7-2-5.4-2.93-8.05s-1.76-5.26-2.44-7.93c-.7-2.5-1.16-5.07-1.7-7.56a2.76,2.76,0,0,0,.35.07c3.68,7.21,7.34,14.43,11,21.61l.69-.14c-4-9-8.09-17.94-12.1-27l.44,0c4,6,7.86,12,11.79,18-3.21-6.9-7.07-13.67-10.67-20.43-1.55-2.84-2.7-5.73-4-8.62l.71-.11q8.2,9.92,16.43,19.79c.23-.12.46-.26.69-.4-6.64-9-13.22-18-19.83-27l.3,0L363.61,410c-7.38-9.78-16.86-18.12-24.28-27.58,8.28,5.76,16.59,11.57,24.87,17.34.23-.25.46-.54.66-.81-8.58-6.34-17.12-12.65-25.58-19.11-1.3-1-2.07-2.63-3.1-4,.36-.24.67-.43,1-.67,9.09,8.33,20.16,12.95,30.95,18.07-10.38-6.7-21-13.25-31.5-19.8a23.29,23.29,0,0,1-2.65-2.12,9.59,9.59,0,0,1,.69-.94c10,8.14,21.77,11.65,33.18,16.23-8.1-4.26-16.19-8.54-24.27-12.76-3.28-1.7-6.65-3.07-9.88-4.85-1.13-.58-1.87-2-2.8-3,.2-.18.42-.34.62-.51,3.1,1.58,6.1,3.51,9.31,4.71,7.68,2.85,15.46,5.34,23.17,8,1.31.48,2.64,1.18,4,1.75-2.72.32-.33,2-.21,3.08a27.8,27.8,0,0,0,.86,3.88l-.74-.29.77.4V387c1.07.56,2.13,1.15,3,1.58.5,1.69.9,3.1,1.36,4.51,1.94,5.87,4.34,11.67,5.81,17.56,3.07,11.81.91,23.56,7.17,35.29-1.27-7.85-2.63-15.92-3.94-24a7.43,7.43,0,0,1,.86,0c2.48,6.27,5,12.6,7.51,18.87h.29c-2.85-8.19-5.71-16.38-8.51-24.63l.89-.18c1.8,3.21,3.63,6.39,5.45,9.59l.39-.07c-2-4.2-3.92-8.33-5.86-12.46a2.31,2.31,0,0,1,.6-.14c.79,1.26,1.59,2.49,2.39,3.78a.74.74,0,0,1,.28-.08c-.58-1.52-1.16-3.07-1.7-4.6a14,14,0,0,1,1.41-.11c-3.76-6.15-7.45-12.19-11.12-18.21l1.23-.52c3.54,4.9,7.06,9.78,10.62,14.73a5.78,5.78,0,0,0-1-3.63c-1.17-1.75-2.63-3.36-3.88-5.12-3.08-4.31-6.09-8.68-9.09-13a7.28,7.28,0,0,0,.7-.41c3.45,3.34,6.92,6.64,10.38,10-5.66-5-7.43-13.29-16-15.74.94.07,1.94.1,3.07.11-.69-1.18-1.27-2.1-2.24-3.69,7,4,10.06,11.47,17.93,13.24-5.67-5-11.52-9.83-16.9-15-2.82-2.68-5.66-3.14-9.16-3.66,1.16,2,2.11,3.62,3.5,5.91-1.76-.56-2.76-.76-3.73-1.17-9-3.58-17.93-7.34-27-10.86-2.92-1.09-5.21-2.51-6.42-5.28l.13.13.11,0-.18-.08c-1.21-1.8-2.41-3.61-3.64-5.43l.1.08h.08l-.14-.05c-1.16-1.27-2.33-2.58-3.51-3.86h0l-2.35-3.61c3.9.43,7.57,1,11.19,1.27,2.77.24,5.48-.1,8.19.25,1.63.2,3.28,1.17,4.94,1.78,0,.39,0,.78,0,1.15l-16.06-1.73a21.84,21.84,0,0,0-3.77-.51c-.84.1-1.4.89-2.1,1.4l0,0c4.23,1,8.44,2,12.66,2.77,5.28.89,10.53,1.52,15.78,2.25l-.08.1h.15l0,0a31.75,31.75,0,0,1,5.29-.66c1.43.05,2.88.18,4.32.27a23.39,23.39,0,0,1,3.23,1.78c.82.61,1.55,1.32,2.34,2-4.93-2.51-9.84-4.07-15.17-3.33.5.71,1,1.45,2,2.87-5.81-1-11.11-1.84-16.32-2.77-2.77-.49-5.51-1.15-8.24-1.6a7,7,0,0,0-2.28.31c14.83,6.86,29.58,6.77,44.91,8.59.59.52,1.23,1,1.82,1.51,17.34,15.86,30.94,33.32,37.5,54.07,1.75,5.55,4.54,11,7,16.52a11.31,11.31,0,0,0,1.87,2.09c.19-.13.3-.25.46-.36q-4.5-10.65-9-21.25l.77-.17c1.85,2.72,3.71,5.49,5.55,8.19a6,6,0,0,1,.6-.22c-2.77-4.58-5.54-9.1-8.28-13.66.23-.12.44-.2.66-.31,1.44,1.49,2.9,3,4.3,4.5a1.72,1.72,0,0,0,.4-.25c-1.08-1.54-2.21-3.12-3.31-4.72a4,4,0,0,1,.47-.14c.56.37,1.12.74,1.69,1.14A133.45,133.45,0,0,0,400.1,395c-1.43-1.79-3.18-3.34-4.74-5.07a9.92,9.92,0,0,1-1.19-2c.16-.14.39-.2.57-.33,4.07,3.4,8.08,6.8,12.15,10.18l.51-.42c-1-.88-1.84-1.75-2.77-2.6-3.77-3.47-7.72-6.8-11.21-10.46-2.52-2.66-4.1-6-6.7-8.62-2.93-2.95-6.08-5.73-9.18-8.55l4.82,2.34a5.3,5.3,0,0,0,2.22,2.55c5.59,2.24,9.42,8,15.94,8.64,1.58.12,3.41,1.72,5.1,2.65a2.44,2.44,0,0,0,.11-.36c-7.67-4.53-15.35-9-23-13.55a1.85,1.85,0,0,0,.09-.22c-2.39-1.25-4.79-2.53-7.19-3.8-1.46-1.33-2.88-2.7-4.33-4-.08-.07,0-.36.14-1.19l18.47,10.57a.72.72,0,0,0,.11-.28c-1.12-.93-2.25-1.85-3.47-2.79a3.45,3.45,0,0,0,.36-.46c4.55,1.69,9.09,3.41,13.66,5.12-4.07-2.14-8.15-4-12.25-5.82s-8.09-3.37-12-5.3c-3.69-1.78-7.25-3.83-10.87-5.75l1.75.11a2.55,2.55,0,0,0,0-.41c10.66,2.82,21.25,5.64,31.87,8.48a8.64,8.64,0,0,0-2.68-1.35c-12.93-3.94-25.88-7.74-38.81-11.95a38.5,38.5,0,0,1-8.3-3.49,2.62,2.62,0,0,0,.07-.33c6.65-.64,13.24-1.36,19.9-2.06-5.47-.74-11-3.27-16.39-3.58a2.45,2.45,0,0,0,.62-1.34c-2.16.15-4,.33-5.91.51.13.27.21.55.34.84.79.13,1.3.19,1.87.27a13.71,13.71,0,0,0-1.84.16c3,.75,5.92,1.41,8.92,2.09-4.45,1.55-8.78.38-13.8-2.7,6.05-1,11.54-2.18,17.16-2.87s11.29-.67,14.16-.81l-12.67-1.28.68-.67a22.61,22.61,0,0,0,7.1-2.25,17.72,17.72,0,0,0-4.71-.06l2.18-2.13-.16-.07,3.23-.19a22.93,22.93,0,0,1-1.06,2.07,8.65,8.65,0,0,1,1.23.25l-.49.05c-.07,0-.15,0-.21.08s.22,0,.3,0l.49-.13c3.89.63,5.45,3.51,5.07,9.83l-.15.05c0,.09.11.12.15.22v-.27c1.59,3,3.16,6,4.8,9l-10.08-2c-4.15-1.52-8.32-2.92-12.56-3.14v.84c-1.35-.28-2.69-.55-4-.84-.09.3-.13.55-.2.87,3.26.81,6.54,1.55,9.83,2.35,0-.19,0-.42,0-.63l2.8.64c0,.14,0,.3,0,.44,3.55.77,7.09,1.36,10.63,2l2.88.66c-.3-.08-.6-.2-.9-.29,5.33.88,10.66,1.57,16,2,3.22.53,6.42,1,9.65,1.6.15-.7.27-1.47.43-2.22a23.52,23.52,0,0,0-4.43-1.54c-4.37-.62-8.78-.82-13.13-1.67-1.39-.3-2.5-2.12-3.71-3.24,1.21-1.14,2.27-3,3.65-3.31,2.88-.56,6,0,8.89-.43,1.39-.19,2.68-1.52,4-2.4l0-.09h0c-4.65-.31-9.34-.27-13.9-1.13-.23,0-.41-.38-.63-.5.42-.05.84-.08,1.26-.13a3,3,0,0,1-.06-.33l-1.72,0a35.2,35.2,0,0,1-3.17-3.62c1.38-1.38,2.64-3.67,4.19-4,6.1-1.29,11.25,2.54,14,9.68h.18l-.12.09c4.52,8.89,9,17.77,13.14,25.94,4.49-.1,8.36-.14,12.23-.27-6.86-1.65-15.45-.61-14.93-12.47,0-.58-1.39-1.08-1.6-1.82-.74-2.54-1.26-5.15-1.89-7.7,2.07-.27,4.2-.52,6.57-.87-.91-1.25-1.8-2.54-2.69-3.8-.17-.17-.37-.34-.54-.51l-.06-.09c-1.65,5.53-4.52,1.79-6.39.42-1.24-.92-1.87-3.27-2.27-5.06-.24-1.25.37-2.71.64-4.05,1.14.43,2.79.46,3.47,1.37a74.74,74.74,0,0,1,4.55,7.32.63.63,0,0,0,.06-.14l.54.75c2.07,2.07,4.44,4,6,6.46,5.44,8.64,10.56,17.5,15.83,26.3a12.09,12.09,0,0,1,1.16-.57c-.89-3.4-1.75-6.84-3.06-11.91,3.31,5.17,5.71,9,8.14,12.75.38-.22.83-.49,1.23-.7-3.81-8.59-7.66-17.17-11.49-25.77.71-.45,1.44-.9,2.16-1.31,7.52,12.59,15.09,25.17,22.6,37.74a5.48,5.48,0,0,0,.66-.35q-16-33.23-32-66.49c1.67.85,3.33,1.71,5,2.56.94,2.58,1.84,5.19,3,7.65,5,10.54,10.49,20.83,16.27,30.9,5.43,9.49,11.42,18.68,17.45,27.76,2,2.93,4.81,5.13,7.27,7.69-.95,1.67-3,3.68-2.66,5,1.27,4.57,3.31,9,5.05,13.41.71-.19,1.46-.34,2.13-.57-.44-2.66-.91-5.33-1.36-8,2.1.48,4.15,1,6.87,1.57,2.87,8.59,6,17.82,9.16,27.06a5.06,5.06,0,0,0,.54-.17q-1.85-8.51-3.7-17c1-.26,1.94-.54,2.94-.84q4.91,14.25,9.9,28.5c-2.83-14.31-6.82-28.12-10.19-42-1.43-6.06-4.26-8.41-9.66-7.63,2.45-1.7,5-3.37,6.5-4.38,3.45,1.06,6.69,2,10,3-2,.7-4,1.42-6.64,2.31,3.31,9.12,6,17.66,9.44,25.91,5.11,12.38,10.62,24.56,15.94,36.86-.87-1.58-1.74-3.14-3.05-5.5,2.28,13.37,4.35,25.39,6.44,37.83.33-2.8.6-5.23.93-7.67l2.08-.39c2.69,7.5,5.31,15,8,22.51a200.13,200.13,0,0,0-6.21-26.55c-1.32-4.4-3.58-8.47-5.42-12.62,4.3,1,5.74-.63,4.13-5.15q-4.73-13.35-9.36-26.64c-1.09-3.21-1.65-6.58-2.5-9.88.44-.14.8-.29,1.2-.42,2.74,4.41,5.51,8.78,8.25,13.19a8.34,8.34,0,0,0,.86-.57q-9.68-18.51-19.28-37.07c.42-.24.89-.55,1.33-.84q7.78,9.17,15.5,18.36a69.85,69.85,0,0,0-10.48-17.52c-2.14-2.64-5.68-4-8.56-6,.14-2.18.92-4.54.33-6.39-.74-2.51-2.57-4.55-4.82-8.29,6.82,4.77,12.15,8.53,17.45,12.26.32-.54.66-1,1-1.55-4-3.48-8.15-6.86-12.11-10.39s-7.69-7-11.35-10.77c-3.5-3.61-6.71-7.47-10.07-11.29a3.25,3.25,0,0,0,.56-.27q18.24,11.82,36.43,23.6c.24-.39.48-.81.7-1.17-14.47-10.53-28.92-21.07-43.47-31.6.21-.24.39-.48.59-.68,11.22,5.36,22.44,10.79,33.69,16.18-11.3-8-23.14-14.81-34.83-21.91-4.88-3-9.44-6.59-14.09-10l.79-1.14q20.7,6.47,41.42,13c.2-.54.36-1.08.5-1.58Q475,328.58,448.36,318l.34-.48,49,7.69c-19.54-7.46-40.21-9.51-59.57-16.39,16.56-.87,33.1-1.82,49.65-2.69,0-.74,0-1.49-.06-2.3-17.43.24-34.86.58-52.23.54-2.73,0-5.38-1.88-8-2.92.14-.82.31-1.64.5-2.47,20.17,2.47,39-4.19,58-9.58-20.25,2.06-40.37,4.73-60.58,7.28a38.21,38.21,0,0,1-5.56-.27c0-.84-.13-1.7-.19-2.55,21.26,1,39.91-8.68,59.1-15.9-14.73,3.33-29.46,6.62-44.16,10.1-5.88,1.38-11.59,3.46-17.5,4.64-2.1.41-4.51-1-6.75-1.62.06-.57.14-1.13.24-1.68,5.59-1.35,11.48-2,16.72-4.22,12.7-5.26,25.12-11.27,37.68-16.91a71,71,0,0,1,6.82-2.3c-3.11,4.3,1.73,4,3,5.78a51.69,51.69,0,0,0,5.14,5.76c-.39.13-.77.3-1.15.45l1.3-.3-.11-.16c2-.48,3.93-.92,5.35-1.26,2.43,2.3,4.38,4.33,6.51,6.25,8.52,7.76,17.6,15,25.64,23.32,16.23,17,25.74,40.69,45.9,53.16-9.83-12.23-20-24.84-30.09-37.37.39-.43.7-.81,1-1.22q14.66,11.77,29.29,23.49a2.92,2.92,0,0,1,.3-.45c-12.15-10.8-24.3-21.51-36.42-32.29.32-.51.63-1.09.91-1.56,5.67,3.19,11.29,6.44,16.9,9.67a5.13,5.13,0,0,0,.34-.66c-6.76-4.77-13.61-9.54-20.4-14.33.23-.3.44-.68.63-1,2.31,1.18,4.61,2.31,6.92,3.5.1-.15.19-.33.29-.46-2.3-2-4.62-3.91-7-5.91.59-.7,1.16-1.33,1.76-2.09-11.18-5.85-22.2-11.64-33.15-17.35.35-.89.73-1.73,1.06-2.61,9.6,4,19.17,7.9,28.76,11.88a11.12,11.12,0,0,0-5-5.16c-3.32-1.54-6.89-2.46-10.22-3.84-8.46-3.55-16.8-7.23-25.2-10.86.17-.57.36-1.14.56-1.7q11.69,1.88,23.49,3.74c-12.36-1.17-23.27-13.63-36.68-6.34,1.26-1.27,2.53-2.57,3.93-4-2-1.07-3.78-2-6.67-3.53,13.11-2.18,24.74,6.82,36.57-.65-12.46-1.21-24.82-2-37.07-3.8-6.37-1-10.46,2.13-15.4,5.92,3.55,1.94,6.45,3.51,10.58,5.74-2.79,1.39-4.28,2.33-5.86,2.93-15.17,5.68-30.39,11.1-45.51,17.08-4.85,1.91-9.22,2.46-13.58-.78h.2l.05-.08-.13,0c-3.44-1.57-6.9-3.17-10.4-4.77l.27.06c0-.06.07-.13.11-.19l-.36.13-4.74-1.21-.25-.48-.87.19-2.5-.64-.07,0a.19.19,0,0,0,0-.06h0c-1.78-.85-3.61-1.75-6-2.94l2.49-1.19c-1.06.25-2,.62-3.06.91l-.19-.09c4.94-4,9.7-7.76,14.27-11.72,1.36.4,2.72.83,4.08,1.25-1.71,1.44-3.41,2.89-5.13,4.31s-3.94,2.42-5.26,4.17c-1,1.27-.87,3.51-1.19,5.31l.06,0c6.15-3.89,12.41-7.58,18.36-11.81,1.91.54,3.8,1,5.71,1.44l-.76.55c-4,2.86-8.16,5.4-12.06,8.26-1.11.8-1.72,2.33-2.53,3.58a92.44,92.44,0,0,0,23.72-11.4c1.11,0,2.23.32,3.35.25l-2.69-.68c14.53-9.55,27.44-22.07,41.45-33.51,1.27.13,2.54.21,3.81.37,38.53,4.79,74,17.58,103.92,45.58,8,7.47,17.26,13.47,26.08,20,1.18.93,3,.81,4.57,1.22a11,11,0,0,1,.19-1.22l-33.6-25.66c.27-.46.53-.91.8-1.33,5.21,2.38,10.39,4.7,15.57,7.1.2-.43.33-.81.5-1.25-8.21-4.34-16.48-8.75-24.72-13.12a14.94,14.94,0,0,0,.56-1.42c3.38.76,6.74,1.54,10.12,2.28.09-.34.18-.64.24-.93q-4.56-2-9.09-4c.11-.3.27-.6.4-.91l3.34-.29a190.7,190.7,0,0,0-28.93-11.77c-3.61-1.25-7.49-1.64-11.23-2.58a18.15,18.15,0,0,1-3.58-2c.11-.44.27-.91.41-1.37,8.69.6,17.34,1.21,26,1.77,0-.46.08-1,.13-1.48-2-.3-4.08-.65-6.17-.92-8.36-1.07-16.86-1.66-25.11-3.51-6-1.3-11.49-5.21-17.46-6.33-6.66-1.25-13.38-2.11-20.1-2.91l8.07-2.23c1.88,1.24,3.87,2.09,5.44,1.52,9.45-3.53,20.37,1.64,29.2-6.13,2.17-1.91,6.13-1.48,9.27-2.14-.09-.25-.2-.52-.29-.81l-43.2,6.9-.09-.52q-6.38,1.42-12.73,2.87c-3.35-.39-6.72-.77-10.06-1.22-.21,0-.36-.66-1.07-2.28,11.68-2.12,23.06-4.15,34.41-6.24,0-.21-.09-.42-.11-.64-2.45-.11-4.88-.17-7.34-.3,0-.38-.06-.84-.09-1.25,7.58-3.11,15.1-6.19,22.67-9.31-7.32,1.69-14.45,3.94-21.6,6.2-6.87,2.27-13.73,4.85-20.73,6.77-6.52,1.8-13.17,3-19.75,4.43l2.35-2.2c-.19-.23-.35-.46-.51-.7q24.58-13.87,49.22-27.84a11,11,0,0,0-4.84,1.21c-20.47,10.42-40.81,21.16-61.52,31-4.53,2.16-9.27,4.41-14.21,5-.08-.21-.15-.41-.22-.62q11.52-15.29,23-30.56c-7.71,6.07-17.37,9-24.5,15.76a7.4,7.4,0,0,0-.64-3.24c-2.51,3.2-4.68,6-6.9,8.85.43.31.84.7,1.26,1.06.9-.65,1.41-1.08,2.1-1.61a27.55,27.55,0,0,0-1.56,2.42c4.48-2.82,9-5.59,13.43-8.4-3.94,8.82-10.72,12.49-20.29,13.87,6.64-10.07,12.32-19.48,18.8-28.2,6.34-8.53,13.5-16.42,17-20.64L414.85,198c4.06-5.62,7.72-11.3,9.65-18.19-5.52,3.74-13.47,16-13.83,21.75l-5,4.27a4.82,4.82,0,0,0-.17-.84l-1.62,2.36-12.43,10.58c3.78-5.88,7.24-12,10.45-18.21,9-10.71,18.27-21.86,27.55-33-7.5,8.12-16.66,14.73-23,23.47a211.62,211.62,0,0,0,8.63-21.71q-6.39,11.4-12.78,22.78L385,212c2.63-5.92,5.22-11.85,7.83-17.78.45-.65.93-1.28,1.39-1.93,5.34-7.66,10.49-15.49,15.7-23.28l-12.71,15.24c4.42-10.08,8.88-20.15,13.31-30.25-.47-.22-.94-.49-1.38-.7a9.1,9.1,0,0,0-1.07,1.55q-8.56,18.4-17.06,36.83c-5.05,6.06-10.07,12.07-14.9,17.85l6.63-18.13q4.38-11.7,8.76-23.39c-1.08-.51-2.14-1-3.2-1.43-2.14,5.16-4.11,10.37-6,15.63q-5.58,8-10.71,16.33a13.5,13.5,0,0,0-.51-3.61l.11,0q3.33-9.25,6.62-18.55,2.41-4.82,4.8-9.62l9.16-2.9c.86-4.76,1.61-8.82,2.36-12.85-2.5,5.8-3.58,13.29-10.41,13.53l2.05-4.12c-.76,1.43-1.62,2.81-2.48,4.18a14.16,14.16,0,0,1-3.65-.58c-.53-.12-1.28,1.24-2,1.3-2.45.25-4.91.25-7.42.37.21-2.25.43-4.52.68-7.11-1.42.71-2.76,1.4-4.12,2.1-.18.13-.36.29-.54.42l-.12.06c4.69,2.86.69,5.09-.92,6.76-1.13,1.15-3.34,1.28-5.08,1.32-1.2,0-2.36-1-3.6-1.45.66-1.16,1-2.87,2-3.44a63.37,63.37,0,0,1,7.6-3.19S366,161,366,161l.76-.39c2.33-1.78,4.57-3.88,7.17-5,9-4,18.15-7.46,27.26-11.15a12.89,12.89,0,0,1-.31-1.32c-3.28.2-6.54.4-11.48.67L402.71,138c-.12-.49-.23-1-.37-1.4l-25.82,6.58c-.24-.81-.47-1.69-.71-2.55q19.55-7.91,39.05-15.77c-.07-.27-.13-.48-.18-.73q-42.8,12.48-85.61,25c-.34-.74-.68-1.54-1-2.33,3.06-1.79,5.91-4.26,9.17-5.12,7-1.79,14.33-2.2,21.27-4.19,10.63-3,21.15-6.61,31.5-10.56,9.78-3.71,19.37-8.05,28.9-12.47,3.07-1.46,5.67-4,8.55-6,1.28,1.39,2.67,4,3.9,3.85,4.42-.33,8.83-1.55,13.26-2.45-.06-.76-.06-1.55-.09-2.35-2.46-.1-5-.19-7.48-.28.86-2.12,1.73-4.18,2.84-6.91,8.38-1.21,17.47-2.52,26.52-3.86,0-.21,0-.45,0-.62L450.17,96c-.06-1.07-.09-2.11-.1-3.19,9.28-1.44,18.61-2.95,27.88-4.42-13.5-.07-26.89,1.25-40.3,1.79-5.77.24-8.51,2.66-8.95,8.57-1-3-2-6-2.58-7.73L431,81.11c.24,2.3.44,4.57.73,7.52,8.93-1.56,17.29-2.63,25.48-4.44,12.36-2.74,24.57-6,36.83-9-1.6.55-3.21,1.17-5.59,2l35.64,1.3c-2.45-.94-4.58-1.77-6.74-2.61,0-.74.06-1.49.12-2.25q11-1.86,22.08-3.65a161.66,161.66,0,0,0-25.41.88c-4.27.47-8.38,2-12.56,3.07,1.8-4.34.65-6.22-3.85-5.49-8.69,1.45-17.4,3-26.17,4.24-3.14.44-6.31.38-9.49.54,0-.48-.05-.91-.08-1.33,4.56-2,9.15-3.94,13.75-5.9a10.43,10.43,0,0,1-.37-1q-18.89,6.28-37.73,12.48c-.17-.54-.36-1.08-.53-1.62,6.68-4.14,13.3-8.27,20-12.44a63.45,63.45,0,0,0-18.13,7.31c-2.84,1.73-4.88,5.14-7.26,7.77-1.91-.6-3.92-1.92-5.75-1.73-2.41.3-4.64,1.73-8.48,3.34,5.75-6.16,10.25-11,14.79-15.76-.41-.46-.8-.94-1.22-1.41-4,3.52-7.92,7.12-11.95,10.53s-8,6.61-12.18,9.69c-4.05,2.9-8.21,5.48-12.38,8.22a3.59,3.59,0,0,0-.16-.71Q408.9,74,423.49,57.33c-.31-.33-.64-.63-.94-1q-18.88,19.55-37.84,39c-.19-.24-.37-.47-.53-.71l21.83-32c-9.68,10.19-18.33,21.22-27.27,32-3.74,4.51-8,8.49-12,12.68-.3-.35-.6-.67-.9-1.06q10.3-20.43,20.6-40.85c-.47-.32-.88-.59-1.32-.86q-15.33,25.81-30.56,51.56a3.74,3.74,0,0,0-.37-.46c5.77-16.66,11.59-33.29,17.3-49.92C360.61,84.75,354.36,106,344,125c2.67-17.64,5.37-35.22,8.05-52.85-.68-.17-1.37-.27-2.11-.41-3.5,18.4-6.85,36.81-10.58,55.11-.57,2.82-2.84,5.25-4.34,7.85-.71-.36-1.46-.73-2.16-1,6.52-20.75,4.48-42,3.6-63.15-2.43,21.75-4.24,43.53-6.2,65.29a45.92,45.92,0,0,1-1.43,5.84c-.8-.14-1.6-.24-2.39-.36,5.39-22.19.57-43.9-1.89-65.67-.07,16.25-.24,32.47-.2,48.71,0,6.46.7,13,.52,19.45-.09,2.3-1.89,4.48-2.91,6.7-.49-.18-1-.36-1.49-.55,0-6.19.57-12.49-.25-18.52-2.08-14.5-4.94-28.85-7.41-43.25-.38-2.52-.38-5.11-.6-7.66,3.24,4.22,4-.95,5.87-1.89a49.35,49.35,0,0,0,6.33-4.2c0,.41.1.81.14,1.21,0-.44,0-.88,0-1.31l-.15.06c0-2.15,0-4.31,0-5.9,2.55-2,4.84-3.67,7-5.5,8.88-7.36,17.34-15.37,26.67-22,18.83-13.49,42.38-18.45,58-37.06-13.19,7.75-26.75,15.74-40.31,23.69-.3-.41-.59-.87-.89-1.33C384.05,17.64,393.26,9,402.43.41L402.07,0q-18.5,15.74-37,31.5c-.4-.48-.85-.91-1.27-1.34,4.14-5.23,8.26-10.5,12.41-15.72a5.16,5.16,0,0,1-.5-.51c-5.83,6.17-11.58,12.27-17.33,18.4-.26-.28-.51-.58-.82-.88,1.57-2.18,3.13-4.32,4.68-6.51a2.12,2.12,0,0,0-.4-.4c-2.24,2-4.52,4-6.78,6-.5-.75-1-1.46-1.53-2.24-7.7,10.51-15.24,20.83-22.84,31.17-.69-.6-1.36-1.11-2.1-1.68Q337,44,345.43,30.1a10.72,10.72,0,0,0-5.74,4.14c-2.1,3.14-3.65,6.74-5.62,10-5,8.11-10.17,16.1-15.23,24.18-.47-.3-1-.58-1.44-.94,2.8-8,5.63-16,8.41-23.95-3.67,12.74-17.27,21.6-13.53,37.27-.89-1.59-1.78-3.22-2.77-5-1.41,2-2.67,3.6-4.64,6.28.76-14.2,11.39-24.57,7.14-38.6-3.73,12.82-7.05,25.71-11.32,38.21-2.18,6.47-.24,11.43,2.13,17.45,2.52-3.31,4.57-6.05,7.47-9.92A67.49,67.49,0,0,1,311.65,96c2,17.18,3.66,34.37,5.84,51.53.73,5.55.34,10.22-3.56,14.16l.06-.24-.07-.07a1.18,1.18,0,0,0,0,.17c-2.16,3.3-4.35,6.61-6.54,9.92l.1-.31c0-.05-.11-.1-.15-.15,0,.13,0,.26,0,.39-1.21,2.8-2.48,5.6-3.7,8.38h0c-1.29-4.25-2.54-8.53-3.85-12.8.81-2.1,1.62-4.19,2.43-6.3.76,2.32,1.52,4.64,2.36,6.93.49,1.34,1.77,2.3,2.72,3.38-1.64-30.59-17.58-55.33-29-83.18-1.84,15.82-2.09,30,7.53,42.17.86-1.32,1.72-2.67,3.42-5.24,3.75,10.13,7.14,19.26,10.46,28.45.73,2,1.42,4.09,2.1,6.15-.85,1.93-1.73,3.86-2.58,5.79-.83-2.63-1.64-5.26-2.58-7.84-3.36-9.19-7.24-18.09-10.92-27.16l.27.06c-.07-.07-.1-.15-.17-.23v0c-2.12-2.68-4.51-5.09-6.13-8.06-4.11-7.49-7.77-15.14-11.61-22.75-.33.19-.64.36-.9.52.91,11.6,1.85,23.17,2.78,34.78l-.45.06c-.07-.8-.14-1.6-.22-2.4a13.38,13.38,0,0,0-1,2.1c-7.49-10.06-15-20.18-22.5-30.25,4.94,12,4.59,26.21,14,36,.29,1.77.59,3.54.88,5.3l-4.45-5.16c-1.62-3.56-3.24-7.12-4.81-10.66-1.11-2.47-1.76-5.07-3-7.51a7.68,7.68,0,0,0-4-3.67c2.36,5.46,4.69,10.9,7,16.32-3.16-3.7-6.25-7.38-9.13-11.19l-.13-.19-4-7.31-.78.65c-4.32-6.25-8-12.13-10.22-15.52,1.63,3.58,3.39,7.47,5.22,11.49l-.34-.37c-.12,0-.23.16-.34.2.91,1.7,1.83,3.36,2.7,5.08-.29.19-.53.31-.79.48-3.65-5-7.32-9.94-11-14.92a4.86,4.86,0,0,1-.47.27c2.51,4.12,5,8.25,7.45,12.38l-1.21.68Q216,103,203.6,89.7a2.63,2.63,0,0,1-.36.24l18,21.39c-.29.24-.63.49-.94.73L217,109.49l-3.73-5.56c.89,1.48,1.64,3.06,2.45,4.59-8.07-6.16-16.18-12.33-24.06-18.32C198,100,208.11,106.33,218,112.91c5.48,10.92,10.45,22.11,20.34,28.5-5.88-8.74-12-17.91-18.13-27a105.81,105.81,0,0,1,12.19,9.25c3.29,3,6.32,6.16,9.32,9.4,3.4,7.47,6.88,15.15,10.43,22.92l-.68,1.65-6.92-6.78c.15-1.37.37-2.74.52-4.12-.36,1.19-.72,2.38-1.09,3.57l-17-16.61,15.15,22.62c-.53,1.77-1,3.54-1.44,5.32q-3.43-4.44-6.88-8.84c0-2.42,0-4.83.08-7.24-.58,0-1.14,0-1.75,0-.09,1.59-.18,3.18-.27,4.78-1-1.25-1.94-2.54-2.94-3.77-5.82-7.27-11.82-14.35-17.78-21.47q10.36,15.49,20.42,30.49c-.14,2.27-.26,4.53-.39,6.79L223,156.36a138.92,138.92,0,0,0-5.42-18c.86,5.35,1.71,10.66,2.57,16l-7.94-5.7-5.43-13.07c-.43.15-.8.24-1.23.37,1.13,3.45,2.25,6.89,3.38,10.34l-.15-.11.19.25q2.82,8.63,5.64,17.26l-7.71-7.09c-5.43-8.55-10.57-17.21-16.77-25.4q4.71,9.33,9.44,18.66l-1.33-1.22c.54.53,1,1.12,1.56,1.68.94,1.86,1.88,3.72,2.82,5.58l-.57.43q-12.12-15.88-24.22-31.76l-.94.51Q186,138.41,195,151.69c-.07.18-.16.32-.21.48-2.88-2.43-5.9-4.83-8.66-7.35s-5.58-5.47-8.25-8.29-5.3-5.87-8-8.82c-.41.24-.8.51-1.2.74l9.36,12.8c-2.84-1.67-4.39-3-6.32-3.52-1.44-.36-3.26.2-4.88.3-1.53-2.11-2.64-4.7-4.69-6.3a55.13,55.13,0,0,0-13.42-7.55c4.68,3.77,9.42,7.54,14.1,11.32-.21.31-.44.65-.69,1-9.48-4.61-19-9.28-28.46-13.9-.16.21-.28.42-.47.64q5.08,3,10.18,6c-.11.27-.2.58-.31.85-2.54-.55-5.12-1-7.6-1.76-6.87-2.13-13.66-4.41-20.47-6.68-3.49-1.13-4.75-.06-4,3.11a88.4,88.4,0,0,0-9.68-3.89A158.79,158.79,0,0,0,81,116.49c5.74,1.9,11.52,3.77,17.26,5.7-.09.5-.21,1-.32,1.53-1.84.25-3.72.48-5.86.76,9.52,1.42,18.74,2.84,29,4.39-1.8-.92-3-1.57-4.22-2.23,9.45,3.87,18.81,7.84,28.32,11.5,6.37,2.43,12.9,4.38,19.9,6.71.71-1.94,1.26-3.43,1.8-4.93.77,2.39,1.51,4.83,2.32,7.39-.78,1.08-2.05,2.93-3.38,4.75.62-4-1.18-6-5.79-7-10.76-2.34-21.32-5.2-32.3-7.13,7.29,2.37,14.55,4.73,21.85,7-.22.74-.42,1.43-.64,2.18-4.31-.89-8.66-1.72-13-2.57,0,.09-.11.27-.15.39,7.08,2.25,14.24,4.49,20.79,6.55.51,2,.86,3.5,1.22,5-2-.27-4.07-.61-6.12-.87-.14.49-.3,1-.44,1.55a101.76,101.76,0,0,0,10.34,3.57c1,.27,2.5-1.25,3.79-2,2,1.79,3.63,3.87,5.9,5.29,7,4.38,14,8.71,21.33,12.62,5.26,2.86,10.73,5.4,16.16,8,.38,1,.76,2.09,1.15,3.13l-36.86-16.61a3.53,3.53,0,0,0-.23.46l23.82,13.43c.64,1.17,1.21,2.35,1.77,3.53L181,181.36c-.13.25-.29.52-.46.8l-.83-.87a11.63,11.63,0,0,0,1.32,4.93,4.46,4.46,0,0,0-.32.64l.89.51c3.11,4.81,9.24,7.22,12.17,13l-4.68-1.74c-.18,1-.33,1.89-.49,2.8a4.87,4.87,0,0,1-.7-.74,10.45,10.45,0,0,0-1.49-3.26c-.42-1.68-.64-3.52-1.07-5.23,0,1.21,0,2.57-.08,3.81-4.06-4.06-11-5.06-15-9.21,3.87,3.41,7.67,6.85,11.43,10.26-.24.35-.47.74-.74,1.11-2.32-1.1-4.64-2.22-7-3.31-.21-.71-.4-1.41-.6-2.12a7.7,7.7,0,0,0-.59-1.18c-.41.06-.83.18-1.24.24.18.72.38,1.45.57,2.17-2.44-1.16-4.87-2.3-7.31-3.48-2.13-1-4.05-2.4-6.24-3.38a7.28,7.28,0,0,0-4.87-.06l18.08,9c-.35.61-.71,1.18-1.06,1.79l-4-1.48-.13-.26-.22.13c-6.18-2.31-12.35-4.63-18.65-7-.18.68-.33,1.27-.5,1.87l-6.09-.69a1.94,1.94,0,0,1-.19.36c1.6.58,3.18,1.24,4.74,1.85a6.83,6.83,0,0,1-.31.81c-5.41-1.18-10.81-2.37-16.22-3.51a2.11,2.11,0,0,0-.2.48c4,1.31,8.12,2.64,12.21,4-.22.42-.4.87-.56,1.25q-16.38-1.54-32.76-3.09c0,.1-.06.3-.1.4q12.46,1.82,24.9,3.64a7.07,7.07,0,0,0-.27,1.11l-33.19,2.64a41.83,41.83,0,0,0,11.49,1.46c4.88,5.51,10.08,10.73,15.5,15.77-.26-.19-.57-.35-.83-.54l2.38,1.91c3.75,3.43,7.49,6.87,11.44,10.14.19-.16.36-.32.55-.49l3,2.4-.73.72c2.55,2,5.1,4,7.64,6-1.09-.23-2.24-.38-3.29-.7-1.66-.49-3.32-1-5-1.49-13.6-8.85-27-18-40.43-27A9.93,9.93,0,0,0,97.32,207q17.59,13,35.18,25.93c-1.41-.4-2.88-.72-4.31-1.1.2-.26.4-.52.59-.82q-7.26-3.82-14.46-7.68c-.19.24-.36.41-.51.63l12.51,7.4c-2.06-.53-4.08-1.15-6.19-1.59l6.81,2.86c-2.9-1.09-5.82-2.11-8.65-3.34-5.32-2.31-10.42-5.06-15.66-7.54-5.38-2.63-10.79-5.19-16.43-7.4,5.6,3.21,11.19,6.38,16.79,9.58-.08.3-.19.55-.3.86-1.94-.35-3.92-.59-5.92-.89-.09.13-.14.27-.23.43,8.86,3,17.7,6.08,26.84,9.21-.86,1-1.07,1.43-1.24,1.42-2.35-.17-4.7-.38-7-.57l-2.1-.42-9-3.48c-.06.12-.13.22-.19.33-11.24-3.67-22.54-7.31-33.78-11-.16.15-.24.32-.41.48,2.47.9,5.71,1.21,7.14,2.82,5.91,6.53,15.6,4.63,22.63,8.4,1.19.64,2.94.34,4.67-.23l3.73,1.62-.4-.08c-.12.29-.25.59-.38.91-4.5-.35-9-.64-13.49-.75-5.07-.13-10.17,1.7-15.17,1.7-7,0-13.92-.88-20.9-1.36-1.71-.14-3.41-.2-5.13-.3,0,.32-.07.67-.11,1,7.13.89,14.2,1.75,21.31,2.6,0,.37.06.67.1,1a13.91,13.91,0,0,1-3.2.78c-3.17.15-6.38-.21-9.56.08a187.47,187.47,0,0,0-25.31,3.69c.91.22,1.78.44,2.67.68a4,4,0,0,1,.2.7c-2.66.38-5.34.82-8,1.28,0,.2.06.41.06.64H39c.07.33.17.67.23,1C31.8,248.22,24.44,250,17,251.66c.1.3.13.59.23.9,4.56-.78,9.14-1.63,13.73-2.46.11.34.3.68.44,1C21,255.23,10.53,259.29.12,263.4a4.38,4.38,0,0,1-.12.85c1.37,0,2.83.3,3.92-.16" style="fill:#fff"/><path d="M264.63,516.62c5-72.48,2.63-157.41-3.68-184.05s-14,14.85-14,14.85,11.26,152.68.73,230.1c-7,51.88,11.89,11.55,16.91-60.9" style="fill:#fff"/></g></g></g></svg>